SplineFontDB: 3.2
FontName: TDATextCondensed
FullName: TDAText Condensed
FamilyName: TDAText Condensed
Weight: Regular
Copyright: Copyright (c) 2024 Dmitry Tretyakov\n\nBased on Philips SAA52XX/SAA55XX/TDA93XX IC character set:\nCopyright (c) 1993-2001 NXP Semiconductors N.V.
UComments: "TDAText teletext-styled font family based on Philips SAA52XX/SAA55XX/TDA93XX IC character set and adapted for use in computer printing systems.+AAoACgAA-The font contains punctuation marks, Latin letters and Cyrillic letters.+AAoACgAA-However, the software behind these integrated circuits for TVs as especially popular in the late 90s and early 2000s. For example, Samsung often used these chips in CRT TVs built on the KS1A, KS9A/B, KS16A/C chassis."
Version: 0.0.3.20240609-1250
ItalicAngle: 0
UnderlinePosition: -100
UnderlineWidth: 50
Ascent: 800
Descent: 200
InvalidEm: 0
LayerCount: 2
Layer: 0 0 "+BBcEMAQ0BD0EOAQ5 +BD8EOwQwBD0A" 1
Layer: 1 0 "+BB8ENQRABDUENAQ9BDgEOQAA +BD8EOwQwBD0A" 0
XUID: [1021 427 478162242 4809]
StyleMap: 0x0000
FSType: 0
OS2Version: 0
OS2_WeightWidthSlopeOnly: 0
OS2_UseTypoMetrics: 1
CreationTime: 1720191932
ModificationTime: 1720579665
PfmFamily: 17
TTFWeight: 400
TTFWidth: 5
LineGap: 90
VLineGap: 90
OS2TypoAscent: 0
OS2TypoAOffset: 1
OS2TypoDescent: 0
OS2TypoDOffset: 1
OS2TypoLinegap: 90
OS2WinAscent: 0
OS2WinAOffset: 1
OS2WinDescent: 0
OS2WinDOffset: 1
HheadAscent: 0
HheadAOffset: 1
HheadDescent: 0
HheadDOffset: 1
OS2Vendor: 'PfEd'
MarkAttachClasses: 1
DEI: 91125

StartChar: exclam
Encoding: 33 33 4
Width: 390
Flags: HW
HStem: 0 100<250 350> 680 20G<250 350>
VStem: 250 100<0 100 200 700>
LayerCount: 2
Back
Fore
SplineSet
166.666666667 700 m 13
 188.888888889 700 211.111111111 700 233.333333333 700 c 25
 233.333333333 533.333333333 233.333333333 366.666666667 233.333333333 200 c 25
 211.111111111 200 188.888888889 200 166.666666667 200 c 25
 166.666666667 366.666666667 166.666666667 533.333333333 166.666666667 700 c 13
233.333333333 0 m 9
 211.111111111 -0 188.888888889 0 166.666666667 0 c 1
 166.666666667 33.3333333333 166.666666667 66.6666666667 166.666666667 100 c 25
 188.888888889 100 211.111111111 100 233.333333333 100 c 1
 233.333333333 66.6666666667 233.333333333 33.3333333333 233.333333333 0 c 9
EndSplineSet
EndChar

StartChar: asterisk
Encoding: 42 42 5
Width: 390
Flags: HW
HStem: 0 21G<250 350> 100 100<50 100 500 550> 300 100<200 250 350 400> 500 100<50 100 500 550> 680 20G<250 350>
VStem: 50 100<100 200 500 600> 100 100<200 300 400 500> 250 100<0 300 400 700> 400 100<200 300 400 500> 450 100<100 200 500 600>
LayerCount: 2
Back
Fore
SplineSet
33.3333333333 600 m 13
 55.5555555556 600 77.7777777778 600 100 600 c 25
 100 566.666666667 100 533.333333333 100 500 c 25
 110.888888889 500 121.777777778 500 132.666666667 500 c 25
 132.888888889 466.666666667 133.111111111 433.333333333 133.333333333 400 c 25
 144.444444444 400 155.555555556 400 166.666666667 400 c 25
 166.666666667 500 166.666666667 600 166.666666667 700 c 25
 188.888888889 700 211.111111111 700 233.333333333 700 c 25
 233.333333333 600 233.333333333 500 233.333333333 400 c 25
 244.444444444 400 255.555555556 400 266.666666667 400 c 25
 266.666666667 433.333333333 266.666666667 466.666666667 266.666666667 500 c 25
 277.777777778 500 288.888888889 500 300 500 c 25
 300 533.333333333 300 566.666666667 300 600 c 25
 322.222222222 600 344.444444444 600 366.666666667 600 c 25
 366.666666667 566.666666667 366.666666667 533.333333333 366.666666667 500 c 25
 355.555555556 500 344.444444444 500 333.333333333 500 c 25
 333.333333333 466.666666667 333.333333333 433.333333333 333.333333333 400 c 25
 322.222222222 400 311.111111111 400 300 400 c 25
 300 366.666666667 300 333.333333333 300 300 c 25
 311.111111111 300 322.222222222 300 333.333333333 300 c 25
 333.333333333 266.666666667 333.333333333 233.333333333 333.333333333 200 c 25
 344.444444444 200 355.555555556 200 366.666666667 200 c 25
 366.666666667 166.666666667 366.666666667 133.333333333 366.666666667 100 c 25
 344.444444444 100 322.222222222 100 300 100 c 25
 300 133.333333333 300 166.666666667 300 200 c 25
 288.888888889 200 277.777777778 200 266.666666667 200 c 25
 266.666666667 233.333333333 266.666666667 266.666666667 266.666666667 300 c 25
 255.555555556 300 244.444444444 300 233.333333333 300 c 25
 233.333333333 200 233.333333333 100 233.333333333 0 c 25
 211.111111111 -0 188.888888889 0 166.666666667 0 c 25
 166.666666667 100 166.666666667 200 166.666666667 300 c 25
 155.555555556 300 144.444444444 300 133.333333333 300 c 25
 133.333333333 266.666666667 133.333333333 233.333333333 133.333333333 200 c 25
 122.222222222 200 111.111111111 200 100 200 c 25
 100 166.666666667 100 133.333333333 100 100 c 25
 77.7777777778 100 55.5555555556 100 33.3333333333 100 c 25
 33.3333333333 133.333333333 33.3333333333 166.666666667 33.3333333333 200 c 25
 44.4444444444 200 55.5555555556 200 66.6666666667 200 c 25
 66.6666666667 233.333333333 66.6666666667 266.666666667 66.6666666667 300 c 25
 77.7777777778 300 88.8888888889 300 100 300 c 25
 100 333.333333333 100 366.666666667 100 400 c 25
 88.8888888889 400 77.7777777778 400 66.6666666667 400 c 25
 66.6666666667 433.333333333 66.6666666667 466.666666667 66.6666666667 500 c 25
 55.5555555556 500 44.4444444444 500 33.3333333333 500 c 25
 33.3333333333 533.333333333 33.3333333333 566.666666667 33.3333333333 600 c 13
EndSplineSet
EndChar

StartChar: plus
Encoding: 43 43 6
Width: 390
Flags: HW
HStem: 250 100<100 250 350 500>
VStem: 250 100<50 250 350 550>
LayerCount: 2
Back
Fore
SplineSet
166.666666667 550 m 13
 188.888888889 550 211.111111111 550 233.333333333 550 c 25
 233.333333333 483.333333333 233.333333333 416.666666667 233.333333333 350 c 25
 266.666666667 350 300 350 333.333333333 350 c 25
 333.333333333 316.666666667 333.333333333 283.333333333 333.333333333 250 c 25
 300 250 266.666666667 250 233.333333333 250 c 25
 233.333333333 183.333333333 233.333333333 116.666666667 233.333333333 50 c 25
 211.111111111 50 188.888888889 50 166.666666667 50 c 25
 166.666666667 116.666666667 166.666666667 183.333333333 166.666666667 250 c 25
 133.333333333 250 100 250 66.6666666667 250 c 25
 66.6666666667 283.333333333 66.6666666667 316.666666667 66.6666666667 350 c 25
 100 350 133.333333333 350 166.666666667 350 c 25
 166.666666667 416.666666667 166.666666667 483.333333333 166.666666667 550 c 13
EndSplineSet
EndChar

StartChar: comma
Encoding: 44 44 7
Width: 390
Flags: HW
HStem: -200 100<199 249> 0 100<199 249>
VStem: 199 100<-200 -100> 249 100<-100 0>
LayerCount: 2
Back
Fore
SplineSet
132.666666667 -100 m 5
 143.777777778 -100 154.888888889 -100 166 -100 c 29
 166 -66.6666666667 166 -33.3333333333 166 0 c 5
 154.888888889 -0 143.777777778 0 132.666666667 0 c 29
 132.666666667 33.3333333333 132.666666667 66.6666666667 132.666666667 100 c 29
 166 100 199.333333333 100 232.666666667 100 c 29
 232.666666667 33.3333333333 232.666666667 -33.3333333333 232.666666667 -100 c 29
 221.555555556 -100 210.444444444 -100 199.333333333 -100 c 29
 199.333333333 -133.333333333 199.333333333 -166.666666667 199.333333333 -200 c 29
 177.111111111 -200 154.888888889 -200 132.666666667 -200 c 29
 132.666666667 -166.666666667 132.666666667 -133.333333333 132.666666667 -100 c 5
EndSplineSet
EndChar

StartChar: hyphen
Encoding: 45 45 8
Width: 390
Flags: HW
HStem: 250 100<100 500>
LayerCount: 2
Back
Fore
SplineSet
66.6666666667 250 m 13
 66.6666666667 283.333333333 66.6666666667 316.666666667 66.6666666667 350 c 25
 155.555555556 350 244.444444444 350 333.333333333 350 c 25
 333.333333333 316.666666667 333.333333333 283.333333333 333.333333333 250 c 25
 244.444444444 250 155.555555556 250 66.6666666667 250 c 13
EndSplineSet
EndChar

StartChar: period
Encoding: 46 46 9
Width: 390
Flags: HW
HStem: 0 100<250 350>
VStem: 250 100<0 100>
LayerCount: 2
Back
Fore
SplineSet
233.333333333 0 m 13
 211.111111111 -0 188.888888889 0 166.666666667 0 c 29
 166.666666667 33.3333333333 166.666666667 66.6666666667 166.666666667 100 c 29
 188.888888889 100 211.111111111 100 233.333333333 100 c 29
 233.333333333 66.6666666667 233.333333333 33.3333333333 233.333333333 0 c 13
EndSplineSet
EndChar

StartChar: slash
Encoding: 47 47 10
Width: 390
Flags: HW
HStem: 0 100<100 150> 600 100<450 500>
VStem: 100 100<0 100> 150 100<100 200> 200 100<200 300> 250 100<300 400> 300 100<400 500> 350 100<500 600> 400 100<600 700>
LayerCount: 2
Back
Fore
SplineSet
266.666666667 700 m 13
 288.888888889 700 311.111111111 700 333.333333333 700 c 25
 333.333333333 666.666666667 333.333333333 633.333333333 333.333333333 600 c 25
 322.222222222 600 311.111111111 600 300 600 c 25
 300 566.666666667 300 533.333333333 300 500 c 25
 288.888888889 500 277.777777778 500 266.666666667 500 c 25
 266.666666667 466.666666667 266.666666667 433.333333333 266.666666667 400 c 25
 255.555555556 400 244.444444444 400 233.333333333 400 c 25
 233.333333333 366.666666667 233.333333333 333.333333333 233.333333333 300 c 25
 222.222222222 300 211.111111111 300 200 300 c 25
 200 266.666666667 200 233.333333333 200 200 c 25
 188.888888889 200 177.777777778 200 166.666666667 200 c 25
 166.666666667 166.666666667 166.666666667 133.333333333 166.666666667 100 c 25
 155.555555556 100 144.444444444 100 133.333333333 100 c 25
 133.333333333 66.6666666667 133.333333333 33.3333333333 133.333333333 0 c 25
 111.111111111 -0 88.8888888889 0 66.6666666667 0 c 25
 66.6666666667 33.3333333333 66.6666666667 66.6666666667 66.6666666667 100 c 25
 77.7777777778 100 88.8888888889 100 100 100 c 25
 100 133.333333333 100 166.666666667 100 200 c 25
 111.111111111 200 122.222222222 200 133.333333333 200 c 25
 133.333333333 233.333333333 133.333333333 266.666666667 133.333333333 300 c 25
 144.444444444 300 155.555555556 300 166.666666667 300 c 25
 166.666666667 333.333333333 166.666666667 366.666666667 166.666666667 400 c 25
 177.777777778 400 188.888888889 400 200 400 c 25
 200 433.333333333 200 466.666666667 200 500 c 25
 211.111111111 500 222.222222222 500 233.333333333 500 c 25
 233.333333333 533.333333333 233.333333333 566.666666667 233.333333333 600 c 25
 244.444444444 600 255.555555556 600 266.666666667 600 c 25
 266.666666667 633.333333333 266.666666667 666.666666667 266.666666667 700 c 13
EndSplineSet
EndChar

StartChar: zero
Encoding: 48 48 11
Width: 390
Flags: HW
HStem: 0 100<250 400> 600 100<250 400>
VStem: 100 150<100 600> 400 150<100 600>
LayerCount: 2
Back
Fore
SplineSet
266.666666667 600 m 13
 233.333333333 600 200 600 166.666666667 600 c 25
 166.666666667 433.333333333 166.666666667 266.666666667 166.666666667 100 c 25
 200 100 233.333333333 100 266.666666667 100 c 25
 266.666666667 266.666666667 266.666666667 433.333333333 266.666666667 600 c 13
100 700 m 9
 177.777777778 700 255.555555556 700 333.333333333 700 c 25
 333.333333333 666.666666667 333.333333333 633.333333333 333.333333333 600 c 25
 344.444444444 600 355.555555556 600 366.666666667 600 c 25
 366.666666667 433.333333333 366.666666667 266.666666667 366.666666667 100 c 25
 355.555555556 100 344.444444444 100 333.333333333 100 c 25
 333.333333333 66.6666666667 333.333333333 33.3333333333 333.333333333 0 c 25
 255.555555556 -0 177.777777778 0 100 0 c 25
 100 33.3333333333 100 66.6666666667 100 100 c 25
 88.8888888889 100 77.7777777778 100 66.6666666667 100 c 25
 66.6666666667 266.666666667 66.6666666667 433.333333333 66.6666666667 600 c 25
 77.7777777778 600 88.8888888889 600 100 600 c 25
 100 633.333333333 100 666.666666667 100 700 c 9
EndSplineSet
EndChar

StartChar: one
Encoding: 49 49 12
Width: 390
Flags: HW
HStem: 0 21G<300 450> 500 100<200 300> 680 20G<300 450>
VStem: 300 150<0 500 600 700>
LayerCount: 2
Back
Fore
SplineSet
133.333333333 500 m 13
 133.333333333 533.333333333 133.333333333 566.666666667 133.333333333 600 c 29
 155.555555556 600 177.777777778 600 200 600 c 29
 200 633.333333333 200 666.666666667 200 700 c 29
 233.333333333 700 266.666666667 700 300 700 c 29
 300 466.666666667 300 233.333333333 300 0 c 29
 266.666666667 -0 233.333333333 0 200 0 c 29
 200 166.666666667 200 333.333333333 200 500 c 29
 177.777777778 500 155.555555556 500 133.333333333 500 c 13
EndSplineSet
EndChar

StartChar: two
Encoding: 50 50 13
Width: 390
Flags: HW
HStem: 0 100<100 150 350 550> 500 100<100 150> 600 100<200 400>
VStem: 100 100<500 600> 350 150<300 400> 400 150<400 600>
LayerCount: 2
Back
Fore
SplineSet
133.333333333 500 m 13
 111.111111111 500 88.8888888889 500 66.6666666667 500 c 1
 66.6666666667 533.333333333 66.6666666667 566.666666667 66.6666666667 600 c 25
 77.7777777778 600 88.8888888889 600 100 600 c 25
 100 633.333333333 100 666.666666667 100 700 c 25
 177.777777778 700 255.555555556 700 333.333333333 700 c 25
 333.333333333 666.666666667 333.333333333 633.333333333 333.333333333 600 c 25
 344.444444444 600 355.555555556 600 366.666666667 600 c 25
 366.666666667 533.333333333 366.666666667 466.666666667 366.666666667 400 c 25
 355.555555556 400 344.444444444 400 333.333333333 400 c 25
 333.333333333 366.666666667 333.333333333 333.333333333 333.333333333 300 c 25
 322.222222222 300 311.111111111 300 300 300 c 25
 300 266.666666667 300 233.333333333 300 200 c 25
 277.777777778 200 255.555555556 200 233.333333333 200 c 25
 233.333333333 166.666666667 233.333333333 133.333333333 233.333333333 100 c 25
 277.777777778 100 322.222222222 100 366.666666667 100 c 25
 366.666666667 66.6666666667 366.666666667 33.3333333333 366.666666667 0 c 25
 266.666666667 -0 166.666666667 0 66.6666666667 0 c 25
 66.6666666667 33.3333333333 66.6666666667 66.6666666667 66.6666666667 100 c 25
 77.7777777778 100 88.8888888889 100 100 100 c 25
 100 133.333333333 100 166.666666667 100 200 c 25
 122.222222222 200 144.444444444 200 166.666666667 200 c 25
 166.666666667 233.333333333 166.666666667 266.666666667 166.666666667 300 c 25
 188.888888889 300 211.111111111 300 233.333333333 300 c 25
 233.333333333 333.333333333 233.333333333 366.666666667 233.333333333 400 c 25
 244.444444444 400 255.555555556 400 266.666666667 400 c 25
 266.666666667 466.666666667 266.666666667 533.333333333 266.666666667 600 c 25
 222.222222222 600 177.777777778 600 133.333333333 600 c 1
 133.333333333 566.666666667 133.333333333 533.333333333 133.333333333 500 c 13
EndSplineSet
EndChar

StartChar: three
Encoding: 51 51 14
Width: 390
Flags: HW
HStem: 0 100<100 450> 300 100<250 350> 600 100<100 400 500 550>
VStem: 350 100<400 500> 400 100<500 600> 450 100<100 300>
CounterMasks: 1 e0
LayerCount: 2
Back
Fore
SplineSet
66.6666666667 700 m 13
 166.666666667 700 266.666666667 700 366.666666667 700 c 25
 366.666666667 666.666666667 366.666666667 633.333333333 366.666666667 600 c 25
 355.555555556 600 344.444444444 600 333.333333333 600 c 25
 333.333333333 566.666666667 333.333333333 533.333333333 333.333333333 500 c 25
 322.222222222 500 311.111111111 500 300 500 c 25
 300 466.666666667 300 433.333333333 300 400 c 25
 322.222222222 400 344.444444444 400 366.666666667 400 c 25
 366.666666667 300 366.666666667 200 366.666666667 100 c 25
 355.555555556 100 344.444444444 100 333.333333333 100 c 25
 333.333333333 66.6666666667 333.333333333 33.3333333333 333.333333333 0 c 25
 244.444444444 -0 155.555555556 0 66.6666666667 0 c 25
 66.6666666667 33.3333333333 66.6666666667 66.6666666667 66.6666666667 100 c 25
 144.444444444 100 222.222222222 100 300 100 c 25
 300 166.666666667 300 233.333333333 300 300 c 25
 255.555555556 300 211.111111111 300 166.666666667 300 c 25
 166.666666667 333.333333333 166.666666667 366.666666667 166.666666667 400 c 25
 188.888888889 400 211.111111111 400 233.333333333 400 c 25
 233.333333333 433.333333333 233.333333333 466.666666667 233.333333333 500 c 25
 244.444444444 500 255.555555556 500 266.666666667 500 c 25
 266.666666667 533.333333333 266.666666667 566.666666667 266.666666667 600 c 25
 200 600.333333333 133.333333333 600.666666667 66.6666666667 601 c 25
 66.6666666667 634 66.6666666667 667 66.6666666667 700 c 13
EndSplineSet
EndChar

StartChar: four
Encoding: 52 52 15
Width: 390
Flags: HW
HStem: 0 21G<400 550> 100 100<250 400> 600 100<500 550>
VStem: 100 150<200 300> 150 150<300 400> 250 150<400 500> 400 150<0 100 200 300 600 700>
LayerCount: 2
Back
Fore
SplineSet
266.666666667 700 m 13
 300 700 333.333333333 700 366.666666667 700 c 25
 366.666666667 666.666666667 366.666666667 633.333333333 366.666666667 600 c 25
 355.555555556 600 344.444444444 600 333.333333333 600 c 25
 333.333333333 566.666666667 333.333333333 533.333333333 333.333333333 500 c 25
 311.111111111 500 288.888888889 500 266.666666667 500 c 25
 266.666666667 466.666666667 266.666666667 433.333333333 266.666666667 400 c 25
 244.444444444 400 222.222222222 400 200 400 c 25
 200 366.666666667 200 333.333333333 200 300 c 25
 188.888888889 300 177.777777778 300 166.666666667 300 c 25
 166.666666667 266.666666667 166.666666667 233.333333333 166.666666667 200 c 25
 200 200 233.333333333 200 266.666666667 200 c 25
 266.666666667 233.333333333 266.666666667 266.666666667 266.666666667 300 c 25
 300 300 333.333333333 300 366.666666667 300 c 25
 366.666666667 200 366.666666667 100 366.666666667 0 c 25
 333.333333333 -0 300 0 266.666666667 0 c 25
 266.666666667 33.3333333333 266.666666667 66.6666666667 266.666666667 100 c 25
 200 100 133.333333333 100 66.6666666667 100 c 25
 66.6666666667 166.666666667 66.6666666667 233.333333333 66.6666666667 300 c 25
 77.7777777778 300 88.8888888889 300 100 300 c 25
 100 333.333333333 100 366.666666667 100 400 c 25
 122.222222222 400 144.444444444 400 166.666666667 400 c 25
 166.666666667 433.333333333 166.666666667 466.666666667 166.666666667 500 c 25
 177.777777778 500 188.888888889 500 200 500 c 25
 200 533.333333333 200 566.666666667 200 600 c 25
 222.222222222 600 244.444444444 600 266.666666667 600 c 25
 266.666666667 633.333333333 266.666666667 666.666666667 266.666666667 700 c 13
EndSplineSet
EndChar

StartChar: five
Encoding: 53 53 16
Width: 390
Flags: HW
HStem: 0 100<200 400> 100 100<100 150> 300 100<200 400> 600 100<200 500>
VStem: 100 100<100 200 400 600> 400 150<100 300>
LayerCount: 2
Back
Fore
SplineSet
333.333333333 700 m 13
 333.333333333 666.666666667 333.333333333 633.333333333 333.333333333 600 c 25
 266.666666667 600 200 600 133.333333333 600 c 25
 133.333333333 533.333333333 133.333333333 466.666666667 133.333333333 400 c 25
 200 400 266.666666667 400 333.333333333 400 c 25
 333.333333333 366.666666667 333.333333333 333.333333333 333.333333333 300 c 25
 344.444444444 300 355.555555556 300 366.666666667 300 c 25
 366.666666667 233.333333333 366.666666667 166.666666667 366.666666667 100 c 25
 355.555555556 100 344.444444444 100 333.333333333 100 c 25
 333.333333333 66.6666666667 333.333333333 33.3333333333 333.333333333 0 c 25
 255.555555556 -0 177.777777778 0 100 0 c 25
 100 33.3333333333 100 66.6666666667 100 100 c 25
 88.8888888889 100 77.7777777778 100 66.6666666667 100 c 25
 66.6666666667 133.333333333 66.6666666667 166.666666667 66.6666666667 200 c 25
 88.8888888889 200 111.111111111 200 133.333333333 200 c 25
 133.333333333 166.666666667 133.333333333 133.333333333 133.333333333 100 c 25
 177.777777778 100 222.222222222 100 266.666666667 100 c 25
 266.666666667 166.666666667 266.666666667 233.333333333 266.666666667 300 c 25
 200 300 133.333333333 300 66.6666666667 300 c 25
 66.6666666667 433.333333333 66.6666666667 566.666666667 66.6666666667 700 c 25
 155.555555556 700 244.444444444 700 333.333333333 700 c 13
EndSplineSet
EndChar

StartChar: six
Encoding: 54 54 17
Width: 390
Flags: HW
HStem: 0 100<249 450> 300 100<300 450> 600 100<350 400>
VStem: 100 149<100 300> 150 150<400 500> 200 150<500 600> 250 150<600 700> 450 100<100 300>
CounterMasks: 1 e0
LayerCount: 2
Back
Fore
SplineSet
300 300 m 13
 255.333333333 300 210.666666667 300 166 300 c 25
 166 233.333333333 166 166.666666667 166 100 c 25
 210.666666667 100 255.333333333 100 300 100 c 25
 300 166.666666667 300 233.333333333 300 300 c 13
266.666666667 700 m 9
 266.666666667 666.666666667 266.666666667 633.333333333 266.666666667 600 c 25
 255.555555556 600 244.444444444 600 233.333333333 600 c 25
 233.333333333 566.666666667 233.333333333 533.333333333 233.333333333 500 c 25
 222.222222222 500 211.111111111 500 200 500 c 25
 200 466.666666667 200 433.333333333 200 400 c 25
 244.444444444 400 288.888888889 400 333.333333333 400 c 25
 333.333333333 366.666666667 333.333333333 333.333333333 333.333333333 300 c 25
 344.444444444 300 355.555555556 300 366.666666667 300 c 25
 366.666666667 233.333333333 366.666666667 166.666666667 366.666666667 100 c 25
 355.555555556 100 344.444444444 100 333.333333333 100 c 25
 333.333333333 66.6666666667 333.333333333 33.3333333333 333.333333333 0 c 25
 255.555555556 -0 177.777777778 0 100 0 c 25
 100 33.3333333333 100 66.6666666667 100 100 c 25
 88.8888888889 100 77.7777777778 100 66.6666666667 100 c 25
 66.6666666667 200 66.6666666667 300 66.6666666667 400 c 25
 77.7777777778 400 88.8888888889 400 100 400 c 25
 100 433.333333333 100 466.666666667 100 500 c 25
 111.111111111 500 122.222222222 500 133.333333333 500 c 25
 133.333333333 533.333333333 133.333333333 566.666666667 133.333333333 600 c 25
 144.444444444 600 155.555555556 600 166.666666667 600 c 25
 166.666666667 633.333333333 166.666666667 666.666666667 166.666666667 700 c 25
 200 700 233.333333333 700 266.666666667 700 c 9
EndSplineSet
EndChar

StartChar: seven
Encoding: 55 55 18
Width: 390
Flags: HW
HStem: 0 100<100 150> 600 100<50 350 500 550>
VStem: 100 150<0 100> 150 150<100 200> 200 150<200 300> 250 150<300 400> 300 150<400 500> 350 150<500 600>
LayerCount: 2
Back
Fore
SplineSet
33.3333333333 700 m 1
 144.444444444 700 255.555555556 700 366.666666667 700 c 25
 366.666666667 666.666666667 366.666666667 633.333333333 366.666666667 600 c 25
 355.555555556 600 344.444444444 600 333.333333333 600 c 25
 333.333333333 566.666666667 333.333333333 533.333333333 333.333333333 500 c 25
 322.222222222 500 311.111111111 500 300 500 c 25
 300 466.666666667 300 433.333333333 300 400 c 25
 288.888888889 400 277.777777778 400 266.666666667 400 c 25
 266.666666667 366.666666667 266.666666667 333.333333333 266.666666667 300 c 25
 255.555555556 300 244.444444444 300 233.333333333 300 c 25
 233.333333333 266.666666667 233.333333333 233.333333333 233.333333333 200 c 25
 222.222222222 200 211.111111111 200 200 200 c 25
 200 166.666666667 200 133.333333333 200 100 c 25
 188.888888889 100 177.777777778 100 166.666666667 100 c 25
 166.666666667 66.6666666667 166.666666667 33.3333333333 166.666666667 0 c 25
 133.333333333 -0 100 0 66.6666666667 0 c 25
 66.6666666667 33.3333333333 66.6666666667 66.6666666667 66.6666666667 100 c 25
 77.7777777778 100 88.8888888889 100 100 100 c 25
 100 133.333333333 100 166.666666667 100 200 c 25
 111.111111111 200 122.222222222 200 133.333333333 200 c 25
 133.333333333 233.333333333 133.333333333 266.666666667 133.333333333 300 c 25
 144.444444444 300 155.555555556 300 166.666666667 300 c 25
 166.666666667 333.333333333 166.666666667 366.666666667 166.666666667 400 c 25
 177.777777778 400 188.888888889 400 200 400 c 25
 200 433.333333333 200 466.666666667 200 500 c 25
 211.111111111 500 222.222222222 500 233.333333333 500 c 25
 233.333333333 533.333333333 233.333333333 566.666666667 233.333333333 600 c 1
 166.666666667 600 100 600 33.3333333333 600 c 25
 33.3333333333 633.333333333 33.3333333333 666.666666667 33.3333333333 700 c 1
EndSplineSet
EndChar

StartChar: eight
Encoding: 56 56 19
Width: 390
Flags: HW
HStem: 0 100<250 400> 300 100<250 400> 600 100<250 400>
VStem: 100 150<100 300 400 600> 400 150<100 300 400 600>
CounterMasks: 1 e0
LayerCount: 2
Back
Fore
SplineSet
166.666666667 100 m 13
 200 100 233.333333333 100 266.666666667 100 c 25
 266.666666667 166.666666667 266.666666667 233.333333333 266.666666667 300 c 25
 233.333333333 300 200 300 166.666666667 300 c 25
 166.666666667 233.333333333 166.666666667 166.666666667 166.666666667 100 c 13
166.666666667 600 m 9
 166.666666667 533.333333333 166.666666667 466.666666667 166.666666667 400 c 25
 200 400 233.333333333 400 266.666666667 400 c 25
 266.666666667 466.666666667 266.666666667 533.333333333 266.666666667 600 c 25
 233.333333333 600 200 600 166.666666667 600 c 9
100 700 m 9
 177.777777778 700 255.555555556 700 333.333333333 700 c 25
 333.333333333 666.666666667 333.333333333 633.333333333 333.333333333 600 c 25
 344.444444444 600 355.555555556 600 366.666666667 600 c 25
 366.666666667 533.333333333 366.666666667 466.666666667 366.666666667 400 c 25
 344.444444444 400 322.222222222 400 300 400 c 25
 300 366.666666667 300 333.333333333 300 300 c 25
 322.222222222 300 344.444444444 300 366.666666667 300 c 25
 366.666666667 233.333333333 366.666666667 166.666666667 366.666666667 100 c 25
 355.555555556 100 344.444444444 100 333.333333333 100 c 25
 333.333333333 66.6666666667 333.333333333 33.3333333333 333.333333333 0 c 25
 255.555555556 -0 177.777777778 0 100 0 c 25
 100 33.3333333333 100 66.6666666667 100 100 c 25
 88.8888888889 100 77.7777777778 100 66.6666666667 100 c 25
 66.6666666667 166.666666667 66.6666666667 233.333333333 66.6666666667 300 c 25
 88.8888888889 300 111.111111111 300 133.333333333 300 c 25
 133.333333333 333.333333333 133.333333333 366.666666667 133.333333333 400 c 25
 111.111111111 400 88.8888888889 400 66.6666666667 400 c 25
 66.6666666667 466.666666667 66.6666666667 533.333333333 66.6666666667 600 c 25
 77.7777777778 600 88.8888888889 600 100 600 c 25
 100 633.333333333 100 666.666666667 100 700 c 9
EndSplineSet
EndChar

StartChar: nine
Encoding: 57 57 20
Width: 390
Flags: HW
HStem: 0 100<250 300> 300 100<200 350> 600 100<200 400>
VStem: 100 100<400 600> 250 150<0 100> 300 150<100 200> 350 150<200 300> 400 150<400 600>
CounterMasks: 1 e0
LayerCount: 2
Back
Fore
SplineSet
133.333333333 600 m 13
 133.333333333 533.333333333 133.333333333 466.666666667 133.333333333 400 c 25
 177.777777778 400 222.222222222 400 266.666666667 400 c 25
 266.666666667 466.666666667 266.666666667 533.333333333 266.666666667 600 c 25
 222.222222222 600 177.777777778 600 133.333333333 600 c 13
100 600 m 9
 100 633.333333333 100 666.666666667 100 700 c 25
 177.777777778 700 255.555555556 700 333.333333333 700 c 25
 333.333333333 666.666666667 333.333333333 633.333333333 333.333333333 600 c 25
 344.444444444 600 355.555555556 600 366.666666667 600 c 25
 366.666666667 500 366.666666667 400 366.666666667 300 c 25
 355.333333333 300 344 300 332.666666667 300 c 25
 332.888888889 266.666666667 333.111111111 233.333333333 333.333333333 200 c 25
 322.222222222 200 311.111111111 200 300 200 c 25
 300 166.666666667 300 133.333333333 300 100 c 25
 288.888888889 100 277.777777778 100 266.666666667 100 c 25
 266.666666667 66.6666666667 266.666666667 33.3333333333 266.666666667 0 c 25
 233.333333333 -0 200 0 166.666666667 0 c 25
 166.666666667 33.3333333333 166.666666667 66.6666666667 166.666666667 100 c 25
 177.777777778 100 188.888888889 100 200 100 c 25
 200 133.333333333 200 166.666666667 200 200 c 25
 211.111111111 200 222.222222222 200 233.333333333 200 c 25
 233.333333333 233.333333333 233.333333333 266.666666667 233.333333333 300 c 25
 188.888888889 300 144.444444444 300 100 300 c 25
 100 333.333333333 100 366.666666667 100 400 c 25
 88.8888888889 400 77.7777777778 400 66.6666666667 400 c 25
 66.6666666667 466.666666667 66.6666666667 533.333333333 66.6666666667 600 c 25
 77.7777777778 600 88.8888888889 600 100 600 c 9
EndSplineSet
EndChar

StartChar: colon
Encoding: 58 58 21
Width: 390
Flags: HW
HStem: 0 21G<250 350> 480 20G<250 349.1>
VStem: 250 100<0 200 300 500>
LayerCount: 2
Back
Fore
SplineSet
166.666666667 200 m 13
 188.888888889 200 211.111111111 200 233.333333333 200 c 25
 233.333333333 133.333333333 233.333333333 66.6666666667 233.333333333 0 c 25
 211.111111111 -0 188.888888889 0 166.666666667 0 c 25
 166.666666667 66.6666666667 166.666666667 133.333333333 166.666666667 200 c 13
166.666666667 500 m 9
 188.666666667 500 210.666666667 500 232.666666667 500 c 25
 232.888888889 433.333333333 233.111111111 366.666666667 233.333333333 300 c 25
 211.111111111 300 188.888888889 300 166.666666667 300 c 25
 166.666666667 366.666666667 166.666666667 433.333333333 166.666666667 500 c 9
EndSplineSet
EndChar

StartChar: semicolon
Encoding: 59 59 22
Width: 390
Flags: HW
HStem: -200 100<200 250> 480 20G<250 350>
VStem: 200 100<-200 -100> 250 100<-100 100 300 500>
LayerCount: 2
Back
Fore
SplineSet
166.666666667 100 m 1
 188.888888889 100 211.111111111 100 233.333333333 100 c 25
 233.333333333 33.3333333333 233.333333333 -33.3333333333 233.333333333 -100 c 1
 222.222222222 -100 211.111111111 -100 200 -100 c 25
 200 -133.333333333 200 -166.666666667 200 -200 c 25
 177.777777778 -200 155.555555556 -200 133.333333333 -200 c 25
 133.333333333 -166.666666667 133.333333333 -133.333333333 133.333333333 -100 c 25
 144.444444444 -100 155.555555556 -100 166.666666667 -100 c 25
 166.666666667 -33.3333333333 166.666666667 33.3333333333 166.666666667 100 c 1
166.666666667 500 m 9
 188.888888889 500 211.111111111 500 233.333333333 500 c 25
 233.333333333 433.333333333 233.333333333 366.666666667 233.333333333 300 c 25
 211.111111111 300 188.888888889 300 166.666666667 300 c 25
 166.666666667 366.666666667 166.666666667 433.333333333 166.666666667 500 c 9
EndSplineSet
EndChar

StartChar: less
Encoding: 60 60 23
Width: 390
Flags: HW
HStem: 0 100<450 550> 100 100<350 400> 200 100<250 300> 300 100<100 200> 400 100<250 300> 500 100<350 400> 600 100<450 550>
VStem: 100 150<300 400> 200 150<200 300 400 500> 300 150<100 200 500 600> 400 150<0 100 600 700>
LayerCount: 2
Back
Fore
SplineSet
266.666666667 700 m 13
 300 700 333.333333333 700 366.666666667 700 c 25
 366.666666667 666.666666667 366.666666667 633.333333333 366.666666667 600 c 25
 344.444444444 600 322.222222222 600 300 600 c 25
 300 566.666666667 300 533.333333333 300 500 c 25
 277.777777778 500 255.555555556 500 233.333333333 500 c 25
 233.333333333 466.666666667 233.333333333 433.333333333 233.333333333 400 c 25
 211.111111111 400 188.888888889 400 166.666666667 400 c 25
 166.666666667 366.666666667 166.666666667 333.333333333 166.666666667 300 c 25
 188.888888889 300 211.111111111 300 233.333333333 300 c 25
 233.333333333 266.666666667 233.333333333 233.333333333 233.333333333 200 c 25
 255.555555556 200 277.777777778 200 300 200 c 25
 300 166.666666667 300 133.333333333 300 100 c 25
 322.222222222 100 344.444444444 100 366.666666667 100 c 25
 366.666666667 66.6666666667 366.666666667 33.3333333333 366.666666667 0 c 25
 333.333333333 -0 300 0 266.666666667 0 c 25
 266.666666667 33.3333333333 266.666666667 66.6666666667 266.666666667 100 c 25
 244.444444444 100 222.222222222 100 200 100 c 25
 200 133.333333333 200 166.666666667 200 200 c 25
 177.777777778 200 155.555555556 200 133.333333333 200 c 25
 133.333333333 233.333333333 133.333333333 266.666666667 133.333333333 300 c 25
 111.111111111 300 88.8888888889 300 66.6666666667 300 c 25
 66.6666666667 333.333333333 66.6666666667 366.666666667 66.6666666667 400 c 25
 88.8888888889 400 111.111111111 400 133.333333333 400 c 25
 133.333333333 433.333333333 133.333333333 466.666666667 133.333333333 500 c 25
 155.555555556 500 177.777777778 500 200 500 c 25
 200 533.333333333 200 566.666666667 200 600 c 25
 222.222222222 600 244.444444444 600 266.666666667 600 c 25
 266.666666667 633.333333333 266.666666667 666.666666667 266.666666667 700 c 13
EndSplineSet
EndChar

StartChar: equal
Encoding: 61 61 24
Width: 390
Flags: HW
HStem: 200 100<100 500> 400 100<100 500>
LayerCount: 2
Back
Fore
SplineSet
66.6666666667 500 m 13
 155.555555556 500 244.444444444 500 333.333333333 500 c 25
 333.333333333 466.666666667 333.333333333 433.333333333 333.333333333 400 c 25
 244.444444444 400 155.555555556 400 66.6666666667 400 c 25
 66.6666666667 433.333333333 66.6666666667 466.666666667 66.6666666667 500 c 13
66.6666666667 300 m 9
 155.555555556 300 244.444444444 300 333.333333333 300 c 25
 333.333333333 266.666666667 333.333333333 233.333333333 333.333333333 200 c 25
 244.444444444 200 155.555555556 200 66.6666666667 200 c 25
 66.6666666667 233.333333333 66.6666666667 266.666666667 66.6666666667 300 c 9
EndSplineSet
EndChar

StartChar: greater
Encoding: 62 62 25
Width: 390
Flags: HW
HStem: 0 100<100 200> 100 100<250 300> 200 100<350 400> 300 100<450 550> 400 100<350 400> 500 100<250 300> 600 100<100 200>
VStem: 100 150<0 100 600 700> 200 150<100 200 500 600> 300 150<200 300 400 500> 400 150<300 400>
LayerCount: 2
Back
Fore
SplineSet
66.6666666667 600 m 13
 66.6666666667 633.333333333 66.6666666667 666.666666667 66.6666666667 700 c 25
 100 700 133.333333333 700 166.666666667 700 c 25
 166.666666667 666.666666667 166.666666667 633.333333333 166.666666667 600 c 25
 188.888888889 600 211.111111111 600 233.333333333 600 c 25
 233.333333333 566.666666667 233.333333333 533.333333333 233.333333333 500 c 25
 255.555555556 500 277.777777778 500 300 500 c 25
 300 466.666666667 300 433.333333333 300 400 c 25
 322.222222222 400 344.444444444 400 366.666666667 400 c 25
 366.666666667 366.666666667 366.666666667 333.333333333 366.666666667 300 c 25
 344.444444444 300 322.222222222 300 300 300 c 25
 300 266.666666667 300 233.333333333 300 200 c 25
 277.777777778 200 255.555555556 200 233.333333333 200 c 25
 233.333333333 166.666666667 233.333333333 133.333333333 233.333333333 100 c 25
 211.111111111 100 188.888888889 100 166.666666667 100 c 25
 166.666666667 66.6666666667 166.666666667 33.3333333333 166.666666667 0 c 25
 133.333333333 -0 100 0 66.6666666667 0 c 25
 66.6666666667 33.3333333333 66.6666666667 66.6666666667 66.6666666667 100 c 25
 88.8888888889 100 111.111111111 100 133.333333333 100 c 25
 133.333333333 133.333333333 133.333333333 166.666666667 133.333333333 200 c 25
 155.555555556 200 177.777777778 200 200 200 c 25
 200 233.333333333 200 266.666666667 200 300 c 25
 222.222222222 300 244.444444444 300 266.666666667 300 c 25
 266.666666667 333.333333333 266.666666667 366.666666667 266.666666667 400 c 25
 244.444444444 400 222.222222222 400 200 400 c 25
 200 433.333333333 200 466.666666667 200 500 c 25
 177.777777778 500 155.555555556 500 133.333333333 500 c 25
 133.333333333 533.333333333 133.333333333 566.666666667 133.333333333 600 c 25
 111.111111111 600 88.8888888889 600 66.6666666667 600 c 13
EndSplineSet
EndChar

StartChar: question
Encoding: 63 63 26
Width: 390
Flags: HW
HStem: 0 100<300 400> 200 100<300 400> 300 100<400 450> 600 100<200 450>
VStem: 100 100<400 600> 300 100<0 100 200 300> 400 100<300 400> 450 100<400 600>
LayerCount: 2
Back
Fore
SplineSet
200 300 m 1
 222.222222222 300 244.444444444 300 266.666666667 300 c 1
 266.666666667 266.666666667 266.666666667 233.333333333 266.666666667 200 c 1
 244.444444444 200 222.222222222 200 200 200 c 1
 200 233.333333333 200 266.666666667 200 300 c 1
266.666666667 0 m 9
 244.444444444 -0 222.222222222 0 200 0 c 1
 200 33.3333333333 200 66.6666666667 200 100 c 25
 222.222222222 100 244.444444444 100 266.666666667 100 c 1
 266.666666667 66.6666666667 266.666666667 33.3333333333 266.666666667 0 c 9
66.6666666667 600 m 9
 77.7777777778 600 88.8888888889 600 100 600 c 25
 100 633.333333333 100 666.666666667 100 700 c 25
 177.777777778 700 255.555555556 700 333.333333333 700 c 25
 333.333333333 666.666666667 333.333333333 633.333333333 333.333333333 600 c 25
 344.444444444 600 355.555555556 600 366.666666667 600 c 25
 366.666666667 533.333333333 366.666666667 466.666666667 366.666666667 400 c 25
 355.333333333 400 344 400 332.666666667 400 c 25
 332.888888889 366.666666667 333.111111111 333.333333333 333.333333333 300 c 25
 311.111111111 300 288.888888889 300 266.666666667 300 c 25
 266.666666667 333.333333333 266.666666667 366.666666667 266.666666667 400 c 25
 277.777777778 400 288.888888889 400 300 400 c 25
 300 466.666666667 300 533.333333333 300 600 c 25
 244.444444444 600 188.888888889 600 133.333333333 600 c 25
 133.333333333 533.333333333 133.333333333 466.666666667 133.333333333 400 c 25
 111.111111111 400 88.8888888889 400 66.6666666667 400 c 25
 66.6666666667 466.666666667 66.6666666667 533.333333333 66.6666666667 600 c 9
EndSplineSet
EndChar

StartChar: at
Encoding: 64 64 27
Width: 390
Flags: HW
HStem: -100 100<200 500> 100 100<350 450> 400 100<350 450> 600 100<200 450>
VStem: 50 100<100 500> 100 100<0 100 500 600> 250 100<200 400> 300 250<100 200 400 500> 450 100<200 400 500 600>
LayerCount: 2
Back
Fore
SplineSet
233.333333333 400 m 13
 233.333333333 333.333333333 233.333333333 266.666666667 233.333333333 200 c 25
 255.555555556 200 277.777777778 200 300 200 c 25
 300 266.666666667 300 333.333333333 300 400 c 25
 277.777777778 400 255.555555556 400 233.333333333 400 c 13
100 600 m 9
 100 633.333333333 100 666.666666667 100 700 c 25
 177.777777778 700 255.555555556 700 333.333333333 700 c 25
 333.333333333 666.666666667 333.333333333 633.333333333 333.333333333 600 c 25
 344.444444444 600 355.555555556 600 366.666666667 600 c 25
 366.666666667 433.333333333 366.666666667 266.666666667 366.666666667 100 c 25
 311.111111111 100 255.555555556 100 200 100 c 25
 200 133.333333333 200 166.666666667 200 200 c 25
 188.888888889 200 177.777777778 200 166.666666667 200 c 25
 166.666666667 266.666666667 166.666666667 333.333333333 166.666666667 400 c 25
 177.777777778 400 188.888888889 400 200 400 c 25
 200 433.333333333 200 466.666666667 200 500 c 25
 233.333333333 500 266.666666667 500 300 500 c 25
 300 533.333333333 300 566.666666667 300 600 c 25
 244.444444444 600 188.888888889 600 133.333333333 600 c 25
 133.333333333 566.666666667 133.333333333 533.333333333 133.333333333 500 c 25
 122.222222222 500 111.111111111 500 100 500 c 25
 100 366.666666667 100 233.333333333 100 100 c 25
 111.111111111 100 122.222222222 100 133.333333333 100 c 25
 133.333333333 66.6666666667 133.333333333 33.3333333333 133.333333333 0 c 25
 200 -0 266.666666667 0 333.333333333 0 c 25
 333.333333333 -33.3333333333 333.333333333 -66.6666666667 333.333333333 -100 c 25
 255.555555556 -100 177.777777778 -100 100 -100 c 25
 100 -66.6666666667 100 -33.3333333333 100 0 c 25
 88.8888888889 -0 77.7777777778 0 66.6666666667 0 c 25
 66.6666666667 33.3333333333 66.6666666667 66.6666666667 66.6666666667 100 c 25
 55.5555555556 100 44.4444444444 100 33.3333333333 100 c 25
 33.3333333333 233.333333333 33.3333333333 366.666666667 33.3333333333 500 c 25
 44.4444444444 500 55.5555555556 500 66.6666666667 500 c 25
 66.6666666667 533.333333333 66.6666666667 566.666666667 66.6666666667 600 c 25
 77.7777777778 600 88.8888888889 600 100 600 c 9
EndSplineSet
EndChar

StartChar: A
Encoding: 65 65 28
Width: 390
Flags: HW
HStem: 0 21G<50 150 450 550> 200 100<150 450> 600 100<250 350>
VStem: 50 100<0 200 300 400> 100 100<400 500> 150 100<500 600> 350 100<500 600> 400 100<400 500> 450 100<0 200 300 400>
LayerCount: 2
Back
Fore
SplineSet
100 400 m 13
 100 366.666666667 100 333.333333333 100 300 c 25
 166.666666667 300 233.333333333 300 300 300 c 25
 300 333.333333333 300 366.666666667 300 400 c 25
 288.888888889 400 277.777777778 400 266.666666667 400 c 25
 266.666666667 433.333333333 266.666666667 466.666666667 266.666666667 500 c 25
 255.555555556 500 244.444444444 500 233.333333333 500 c 25
 233.333333333 533.333333333 233.333333333 566.666666667 233.333333333 600 c 25
 211.111111111 600 188.888888889 600 166.666666667 600 c 25
 166.666666667 566.666666667 166.666666667 533.333333333 166.666666667 500 c 25
 155.555555556 500 144.444444444 500 133.333333333 500 c 25
 133.333333333 466.666666667 133.333333333 433.333333333 133.333333333 400 c 25
 122.222222222 400 111.111111111 400 100 400 c 13
100 0 m 9
 77.7777777778 -0 55.5555555556 0 33.3333333333 0 c 25
 33.3333333333 133.333333333 33.3333333333 266.666666667 33.3333333333 400 c 25
 44.4444444444 400 55.5555555556 400 66.6666666667 400 c 25
 66.6666666667 433.333333333 66.6666666667 466.666666667 66.6666666667 500 c 25
 77.7777777778 500 88.8888888889 500 100 500 c 25
 100 533.333333333 100 566.666666667 100 600 c 25
 111.111111111 600 122.222222222 600 133.333333333 600 c 25
 133.333333333 633.333333333 133.333333333 666.666666667 133.333333333 700 c 25
 177.555555556 700 221.777777778 700 266 700 c 25
 266.222222222 666.666666667 266.444444444 633.333333333 266.666666667 600 c 25
 277.777777778 600 288.888888889 600 300 600 c 25
 300 566.666666667 300 533.333333333 300 500 c 25
 311.111111111 500 322.222222222 500 333.333333333 500 c 25
 333.333333333 466.666666667 333.333333333 433.333333333 333.333333333 400 c 25
 344.444444444 400 355.555555556 400 366.666666667 400 c 25
 366.666666667 266.666666667 366.666666667 133.333333333 366.666666667 0 c 25
 344.444444444 -0 322.222222222 0 300 0 c 25
 300 66.6666666667 300 133.333333333 300 200 c 25
 233.333333333 200 166.666666667 200 100 200 c 25
 100 133.333333333 100 66.6666666667 100 0 c 9
EndSplineSet
EndChar

StartChar: B
Encoding: 66 66 29
Width: 390
Flags: HW
HStem: 0 100<200 450> 300 100<200 450> 600 100<200 450>
VStem: 100 400<0 100 300 400 600 700> 100 100<100 300 400 600> 450 100<100 300 400 600>
CounterMasks: 1 e0
LayerCount: 2
Back
Fore
SplineSet
133.333333333 600 m 13
 133.333333333 533.333333333 133.333333333 466.666666667 133.333333333 400 c 25
 188.888888889 400 244.444444444 400 300 400 c 25
 300 466.666666667 300 533.333333333 300 600 c 25
 244.444444444 600 188.888888889 600 133.333333333 600 c 13
133.333333333 300 m 9
 133.333333333 233.333333333 133.333333333 166.666666667 133.333333333 100 c 25
 188.888888889 100 244.444444444 100 300 100 c 25
 300 166.666666667 300 233.333333333 300 300 c 25
 244.444444444 300 188.888888889 300 133.333333333 300 c 9
66.6666666667 0 m 9
 66.6666666667 233.333333333 66.6666666667 466.666666667 66.6666666667 700 c 25
 155.555555556 700 244.444444444 700 333.333333333 700 c 25
 333.333333333 666.666666667 333.333333333 633.333333333 333.333333333 600 c 25
 344.444444444 600 355.555555556 600 366.666666667 600 c 25
 366.666666667 533.333333333 366.666666667 466.666666667 366.666666667 400 c 25
 355.555555556 400 344.444444444 400 333.333333333 400 c 25
 333.333333333 366.666666667 333.333333333 333.333333333 333.333333333 300 c 25
 344.444444444 300 355.555555556 300 366.666666667 300 c 25
 366.666666667 233.333333333 366.666666667 166.666666667 366.666666667 100 c 25
 355.555555556 100 344.444444444 100 333.333333333 100 c 25
 333.333333333 66.6666666667 333.333333333 33.3333333333 333.333333333 0 c 25
 244.444444444 -0 155.555555556 0 66.6666666667 0 c 9
EndSplineSet
EndChar

StartChar: C
Encoding: 67 67 30
Width: 390
Flags: HW
HStem: 0 100<250 450> 100 100<500 550> 500 100<500 550> 600 100<250 450>
VStem: 100 100<200 500> 150 100<100 200 500 600> 200 300<0 100 600 700> 450 100<100 200 500 600>
LayerCount: 2
Back
Fore
SplineSet
133.333333333 700 m 13
 200 700 266.666666667 700 333.333333333 700 c 25
 333.333333333 666.666666667 333.333333333 633.333333333 333.333333333 600 c 25
 344.444444444 600 355.555555556 600 366.666666667 600 c 25
 366.666666667 566.666666667 366.666666667 533.333333333 366.666666667 500 c 25
 344.444444444 500 322.222222222 500 300 500 c 25
 300 533.333333333 300 566.666666667 300 600 c 25
 255.555555556 600 211.111111111 600 166.666666667 600 c 25
 166.666666667 566.666666667 166.666666667 533.333333333 166.666666667 500 c 25
 155.555555556 500 144.444444444 500 133.333333333 500 c 25
 133.333333333 400 133.333333333 300 133.333333333 200 c 25
 144.444444444 200 155.555555556 200 166.666666667 200 c 25
 166.666666667 166.666666667 166.666666667 133.333333333 166.666666667 100 c 25
 211.111111111 100 255.555555556 100 300 100 c 25
 300 133.333333333 300 166.666666667 300 200 c 25
 322.222222222 200 344.444444444 200 366.666666667 200 c 25
 366.666666667 166.666666667 366.666666667 133.333333333 366.666666667 100 c 25
 355.555555556 100 344.444444444 100 333.333333333 100 c 25
 333.333333333 66.6666666667 333.333333333 33.3333333333 333.333333333 0 c 25
 266.666666667 -0 200 0 133.333333333 0 c 25
 133.333333333 33.3333333333 133.333333333 66.6666666667 133.333333333 100 c 25
 122.222222222 100 111.111111111 100 100 100 c 25
 100 133.333333333 100 166.666666667 100 200 c 25
 88.8888888889 200 77.7777777778 200 66.6666666667 200 c 25
 66.6666666667 300 66.6666666667 400 66.6666666667 500 c 25
 77.7777777778 500 88.8888888889 500 100 500 c 25
 100 533.333333333 100 566.666666667 100 600 c 25
 111.111111111 600 122.222222222 600 133.333333333 600 c 25
 133.333333333 633.333333333 133.333333333 666.666666667 133.333333333 700 c 13
EndSplineSet
EndChar

StartChar: D
Encoding: 68 68 31
Width: 390
Flags: HW
HStem: 0 100<200 400> 600 100<200 400>
VStem: 100 100<100 600> 400 100<100 200 500 600> 450 100<200 500>
LayerCount: 2
Back
Fore
SplineSet
133.333333333 600 m 13
 133.333333333 433.333333333 133.333333333 266.666666667 133.333333333 100 c 25
 177.777777778 100 222.222222222 100 266.666666667 100 c 25
 266.666666667 133.333333333 266.666666667 166.666666667 266.666666667 200 c 25
 277.777777778 200 288.888888889 200 300 200 c 25
 300 300 300 400 300 500 c 25
 288.888888889 500 277.777777778 500 266.666666667 500 c 25
 266.666666667 533.333333333 266.666666667 566.666666667 266.666666667 600 c 25
 222.222222222 600 177.777777778 600 133.333333333 600 c 13
66.6666666667 700 m 9
 144.444444444 700 222.222222222 700 300 700 c 25
 300 666.666666667 300 633.333333333 300 600 c 25
 311.111111111 600 322.222222222 600 333.333333333 600 c 25
 333.333333333 566.666666667 333.333333333 533.333333333 333.333333333 500 c 25
 344.444444444 500 355.555555556 500 366.666666667 500 c 25
 366.666666667 400 366.666666667 300 366.666666667 200 c 25
 355.555555556 200 344.444444444 200 333.333333333 200 c 25
 333.333333333 166.666666667 333.333333333 133.333333333 333.333333333 100 c 25
 322.222222222 100 311.111111111 100 300 100 c 25
 300 66.6666666667 300 33.3333333333 300 0 c 25
 222.222222222 -0 144.444444444 0 66.6666666667 0 c 25
 66.6666666667 233.333333333 66.6666666667 466.666666667 66.6666666667 700 c 9
EndSplineSet
EndChar

StartChar: E
Encoding: 69 69 32
Width: 390
Flags: HW
HStem: 0 100<200 550> 300 100<200 450> 600 100<200 550>
VStem: 100 100<100 300 400 600>
CounterMasks: 1 e0
LayerCount: 2
Back
Fore
SplineSet
366.666666667 600 m 13
 288.888888889 600 211.111111111 600 133.333333333 600 c 25
 133.333333333 533.333333333 133.333333333 466.666666667 133.333333333 400 c 25
 188.888888889 400 244.444444444 400 300 400 c 25
 300 366.666666667 300 333.333333333 300 300 c 25
 244.444444444 300 188.888888889 300 133.333333333 300 c 25
 133.333333333 233.333333333 133.333333333 166.666666667 133.333333333 100 c 25
 211.111111111 100 288.888888889 100 366.666666667 100 c 25
 366.666666667 66.6666666667 366.666666667 33.3333333333 366.666666667 0 c 25
 266.666666667 -0 166.666666667 0 66.6666666667 0 c 25
 66.6666666667 233.333333333 66.6666666667 466.666666667 66.6666666667 700 c 25
 166.666666667 700 266.666666667 700 366.666666667 700 c 25
 366.666666667 666.666666667 366.666666667 633.333333333 366.666666667 600 c 13
EndSplineSet
EndChar

StartChar: F
Encoding: 70 70 33
Width: 390
Flags: HW
HStem: 0 21G<100 200> 300 100<200 450> 600 100<200 550>
VStem: 100 100<0 300 400 600>
LayerCount: 2
Back
Fore
SplineSet
133.333333333 0 m 13
 111.111111111 -0 88.8888888889 0 66.6666666667 0 c 25
 66.6666666667 233.333333333 66.6666666667 466.666666667 66.6666666667 700 c 25
 166.666666667 700 266.666666667 700 366.666666667 700 c 25
 366.666666667 666.666666667 366.666666667 633.333333333 366.666666667 600 c 25
 288.888888889 600 211.111111111 600 133.333333333 600 c 25
 133.333333333 533.333333333 133.333333333 466.666666667 133.333333333 400 c 25
 188.888888889 400 244.444444444 400 300 400 c 25
 300 366.666666667 300 333.333333333 300 300 c 25
 244.444444444 300 188.888888889 300 133.333333333 300 c 25
 133.333333333 200 133.333333333 100 133.333333333 0 c 13
EndSplineSet
EndChar

StartChar: G
Encoding: 71 71 34
Width: 390
Flags: HW
HStem: 0 100<200 450> 200 100<300 450> 500 100<500 550> 600 100<200 450>
VStem: 100 100<100 600> 450 100<100 200 500 600>
LayerCount: 2
Back
Fore
SplineSet
300 600 m 13
 244.444444444 600 188.888888889 600 133.333333333 600 c 25
 133.333333333 433.333333333 133.333333333 266.666666667 133.333333333 100 c 25
 188.888888889 100 244.444444444 100 300 100 c 25
 300 133.333333333 300 166.666666667 300 200 c 25
 266.666666667 200 233.333333333 200 200 200 c 25
 200 233.333333333 200 266.666666667 200 300 c 25
 255.555555556 300 311.111111111 300 366.666666667 300 c 25
 366.666666667 233.333333333 366.666666667 166.666666667 366.666666667 100 c 25
 355.555555556 100 344.444444444 100 333.333333333 100 c 25
 333.333333333 66.6666666667 333.333333333 33.3333333333 333.333333333 0 c 25
 255.555555556 -0 177.777777778 0 100 0 c 25
 100 33.3333333333 100 66.6666666667 100 100 c 25
 88.8888888889 100 77.7777777778 100 66.6666666667 100 c 25
 66.6666666667 266.666666667 66.6666666667 433.333333333 66.6666666667 600 c 25
 77.7777777778 600 88.8888888889 600 100 600 c 25
 100 633.333333333 100 666.666666667 100 700 c 25
 177.777777778 700 255.555555556 700 333.333333333 700 c 25
 333.333333333 666.666666667 333.333333333 633.333333333 333.333333333 600 c 25
 344.444444444 600 355.555555556 600 366.666666667 600 c 25
 366.666666667 566.666666667 366.666666667 533.333333333 366.666666667 500 c 25
 344.444444444 500 322.222222222 500 300 500 c 25
 300 533.333333333 300 566.666666667 300 600 c 13
EndSplineSet
EndChar

StartChar: H
Encoding: 72 72 35
Width: 390
Flags: HW
HStem: 0 21G<100 200 450 550> 300 100<200 450> 680 20G<100 200 450 550>
VStem: 100 100<0 300 400 700> 450 100<0 300 400 700>
LayerCount: 2
Back
Fore
SplineSet
66.6666666667 700 m 13
 88.8888888889 700 111.111111111 700 133.333333333 700 c 25
 133.333333333 600 133.333333333 500 133.333333333 400 c 25
 188.888888889 400 244.444444444 400 300 400 c 25
 300 500 300 600 300 700 c 25
 322.222222222 700 344.444444444 700 366.666666667 700 c 25
 366.666666667 466.666666667 366.666666667 233.333333333 366.666666667 0 c 25
 344.444444444 -0 322.222222222 0 300 0 c 25
 300 100 300 200 300 300 c 25
 244.444444444 300 188.888888889 300 133.333333333 300 c 25
 133.333333333 200 133.333333333 100 133.333333333 0 c 25
 111.111111111 -0 88.8888888889 0 66.6666666667 0 c 25
 66.6666666667 233.333333333 66.6666666667 466.666666667 66.6666666667 700 c 13
EndSplineSet
EndChar

StartChar: I
Encoding: 73 73 36
Width: 390
Flags: HW
HStem: 0 100<100 250 350 500> 600 100<100 250 350 500>
VStem: 250 100<100 600>
LayerCount: 2
Back
Fore
SplineSet
66.6666666667 700 m 13
 155.555555556 700 244.444444444 700 333.333333333 700 c 25
 333.333333333 666.666666667 333.333333333 633.333333333 333.333333333 600 c 25
 300 600 266.666666667 600 233.333333333 600 c 25
 233.333333333 433.333333333 233.333333333 266.666666667 233.333333333 100 c 25
 266.666666667 100 300 100 333.333333333 100 c 25
 333.333333333 66.6666666667 333.333333333 33.3333333333 333.333333333 0 c 25
 244.444444444 -0 155.555555556 0 66.6666666667 0 c 25
 66.6666666667 33.3333333333 66.6666666667 66.6666666667 66.6666666667 100 c 25
 100 100 133.333333333 100 166.666666667 100 c 25
 166.666666667 266.666666667 166.666666667 433.333333333 166.666666667 600 c 25
 133.333333333 600 100 600 66.6666666667 600 c 25
 66.6666666667 633.333333333 66.6666666667 666.666666667 66.6666666667 700 c 13
EndSplineSet
EndChar

StartChar: J
Encoding: 74 74 37
Width: 390
Flags: HW
HStem: 0 100<200 450> 100 100<100 150> 680 20G<450 550>
VStem: 100 100<100 200> 450 100<100 700>
LayerCount: 2
Back
Fore
SplineSet
300 700 m 13
 322.222222222 700 344.444444444 700 366.666666667 700 c 25
 366.666666667 500 366.666666667 300 366.666666667 100 c 25
 355.555555556 100 344.444444444 100 333.333333333 100 c 25
 333.333333333 66.6666666667 333.333333333 33.3333333333 333.333333333 0 c 25
 255.555555556 -0 177.777777778 0 100 0 c 25
 100 33.3333333333 100 66.6666666667 100 100 c 25
 88.8888888889 100 77.7777777778 100 66.6666666667 100 c 25
 66.6666666667 133.333333333 66.6666666667 166.666666667 66.6666666667 200 c 25
 88.8888888889 200 111.111111111 200 133.333333333 200 c 25
 133.333333333 166.666666667 133.333333333 133.333333333 133.333333333 100 c 25
 188.888888889 100 244.444444444 100 300 100 c 25
 300 300 300 500 300 700 c 13
EndSplineSet
EndChar

StartChar: K
Encoding: 75 75 38
Width: 390
Flags: HW
HStem: 0 100<450 550> 200 100<300 350> 300 100<200 250> 400 100<300 350> 600 100<450 550>
VStem: 100 100<0 300 400 700> 250 150<200 300 400 500> 350 100<100 200 500 600> 400 150<0 100 600 700>
LayerCount: 2
Back
Fore
SplineSet
66.6666666667 700 m 13
 88.8888888889 700 111.111111111 700 133.333333333 700 c 25
 133.333333333 600 133.333333333 500 133.333333333 400 c 25
 144.444444444 400 155.555555556 400 166.666666667 400 c 25
 166.666666667 433.333333333 166.666666667 466.666666667 166.666666667 500 c 25
 188.888888889 500 211.111111111 500 233.333333333 500 c 25
 233.333333333 533.333333333 233.333333333 566.666666667 233.333333333 600 c 25
 244.444444444 600 255.555555556 600 266.666666667 600 c 25
 266.666666667 633.333333333 266.666666667 666.666666667 266.666666667 700 c 25
 300 700 333.333333333 700 366.666666667 700 c 25
 366.666666667 666.666666667 366.666666667 633.333333333 366.666666667 600 c 25
 344.444444444 600 322.222222222 600 300 600 c 25
 300 566.666666667 300 533.333333333 300 500 c 25
 288.888888889 500 277.777777778 500 266.666666667 500 c 25
 266.666666667 466.666666667 266.666666667 433.333333333 266.666666667 400 c 25
 244.444444444 400 222.222222222 400 200 400 c 25
 200 366.666666667 200 333.333333333 200 300 c 25
 222.222222222 300 244.444444444 300 266.666666667 300 c 25
 266.666666667 266.666666667 266.666666667 233.333333333 266.666666667 200 c 25
 277.777777778 200 288.888888889 200 300 200 c 25
 300 166.666666667 300 133.333333333 300 100 c 25
 322.222222222 100 344.444444444 100 366.666666667 100 c 25
 366.666666667 66.6666666667 366.666666667 33.3333333333 366.666666667 0 c 25
 333.333333333 -0 300 0 266.666666667 0 c 25
 266.666666667 33.3333333333 266.666666667 66.6666666667 266.666666667 100 c 25
 255.555555556 100 244.444444444 100 233.333333333 100 c 25
 233.333333333 133.333333333 233.333333333 166.666666667 233.333333333 200 c 25
 211.111111111 200 188.888888889 200 166.666666667 200 c 25
 166.666666667 233.333333333 166.666666667 266.666666667 166.666666667 300 c 25
 155.555555556 300 144.444444444 300 133.333333333 300 c 25
 133.333333333 200 133.333333333 100 133.333333333 0 c 25
 111.111111111 -0 88.8888888889 0 66.6666666667 0 c 25
 66.6666666667 233.333333333 66.6666666667 466.666666667 66.6666666667 700 c 13
EndSplineSet
EndChar

StartChar: L
Encoding: 76 76 39
Width: 390
Flags: HW
HStem: 0 100<200 550> 680 20G<100 200>
VStem: 100 100<100 700>
LayerCount: 2
Back
Fore
SplineSet
66.6666666667 700 m 13
 88.8888888889 700 111.111111111 700 133.333333333 700 c 25
 133.333333333 500 133.333333333 300 133.333333333 100 c 25
 211.111111111 100 288.888888889 100 366.666666667 100 c 25
 366.666666667 66.6666666667 366.666666667 33.3333333333 366.666666667 0 c 25
 266.666666667 -0 166.666666667 0 66.6666666667 0 c 25
 66.6666666667 233.333333333 66.6666666667 466.666666667 66.6666666667 700 c 13
EndSplineSet
EndChar

StartChar: M
Encoding: 77 77 40
Width: 390
Flags: HW
HStem: 0 21G<50 150 450 550> 680 20G<50 200 400 550>
VStem: 50 150<600 700> 50 100<0 500> 250 100<300 400> 400 150<600 700> 450 100<0 500>
LayerCount: 2
Back
Fore
SplineSet
100 0 m 13
 77.7777777778 -0 55.5555555556 0 33.3333333333 0 c 25
 33.3333333333 233.333333333 33.3333333333 466.666666667 33.3333333333 700 c 25
 66.6666666667 700 100 700 133.333333333 700 c 25
 133.333333333 666.666666667 133.333333333 633.333333333 133.333333333 600 c 25
 144.444444444 600 155.555555556 600 166.666666667 600 c 25
 166.666666667 566.666666667 166.666666667 533.333333333 166.666666667 500 c 25
 188.888888889 500 211.111111111 500 233.333333333 500 c 25
 233.333333333 533.333333333 233.333333333 566.666666667 233.333333333 600 c 25
 244.444444444 600 255.555555556 600 266.666666667 600 c 25
 266.666666667 633.333333333 266.666666667 666.666666667 266.666666667 700 c 25
 300 700 333.333333333 700 366.666666667 700 c 25
 366.666666667 466.666666667 366.666666667 233.333333333 366.666666667 0 c 25
 344.444444444 -0 322.222222222 0 300 0 c 25
 300 166.666666667 300 333.333333333 300 500 c 25
 288.888888889 500 277.777777778 500 266.666666667 500 c 25
 266.666666667 466.666666667 266.666666667 433.333333333 266.666666667 400 c 25
 255.555555556 400 244.444444444 400 233.333333333 400 c 25
 233.333333333 366.666666667 233.333333333 333.333333333 233.333333333 300 c 25
 211.111111111 300 188.888888889 300 166.666666667 300 c 25
 166.666666667 333.333333333 166.666666667 366.666666667 166.666666667 400 c 25
 155.555555556 400 144.444444444 400 133.333333333 400 c 25
 133.333333333 433.333333333 133.333333333 466.666666667 133.333333333 500 c 25
 122.222222222 500 111.111111111 500 100 500 c 25
 100 333.333333333 100 166.666666667 100 0 c 13
EndSplineSet
EndChar

StartChar: N
Encoding: 78 78 41
Width: 390
Flags: HW
HStem: 0 21G<50 150 400 550> 680 20G<50 200 450 550>
VStem: 50 150<600 700> 50 100<0 500> 200 100<400 500> 250 100<300 400> 300 100<200 300> 400 150<0 100> 450 100<200 700>
LayerCount: 2
Back
Fore
SplineSet
33.3333333333 700 m 13
 66.6666666667 700 100 700 133.333333333 700 c 25
 133.333333333 666.666666667 133.333333333 633.333333333 133.333333333 600 c 25
 144.444444444 600 155.555555556 600 166.666666667 600 c 25
 166.666666667 566.666666667 166.666666667 533.333333333 166.666666667 500 c 25
 177.777777778 500 188.888888889 500 200 500 c 25
 200 466.666666667 200 433.333333333 200 400 c 25
 211.111111111 400 222.222222222 400 233.333333333 400 c 25
 233.333333333 366.666666667 233.333333333 333.333333333 233.333333333 300 c 25
 244.444444444 300 255.555555556 300 266.666666667 300 c 25
 266.666666667 266.666666667 266.666666667 233.333333333 266.666666667 200 c 25
 277.777777778 200 288.888888889 200 300 200 c 25
 300 366.666666667 300 533.333333333 300 700 c 25
 322.222222222 700 344.444444444 700 366.666666667 700 c 25
 366.666666667 466.666666667 366.666666667 233.333333333 366.666666667 0 c 25
 333.333333333 -0 300 0 266.666666667 0 c 25
 266.666666667 33.3333333333 266.666666667 66.6666666667 266.666666667 100 c 25
 255.555555556 100 244.444444444 100 233.333333333 100 c 25
 233.333333333 133.333333333 233.333333333 166.666666667 233.333333333 200 c 25
 222.222222222 200 211.111111111 200 200 200 c 25
 200 233.333333333 200 266.666666667 200 300 c 25
 188.888888889 300 177.777777778 300 166.666666667 300 c 25
 166.666666667 333.333333333 166.666666667 366.666666667 166.666666667 400 c 25
 155.555555556 400 144.444444444 400 133.333333333 400 c 25
 133.333333333 433.333333333 133.333333333 466.666666667 133.333333333 500 c 25
 122.222222222 500 111.111111111 500 100 500 c 25
 100 333.333333333 100 166.666666667 100 0 c 25
 77.7777777778 -0 55.5555555556 0 33.3333333333 0 c 25
 33.3333333333 233.333333333 33.3333333333 466.666666667 33.3333333333 700 c 13
EndSplineSet
EndChar

StartChar: O
Encoding: 79 79 42
Width: 390
Flags: HW
HStem: 0 100<200 400> 600 100<200 400>
VStem: 50 100<200 500> 100 100<100 200 500 600> 150 300<0 100 600 700> 400 100<100 200 500 600> 450 100<200 500>
LayerCount: 2
Back
Fore
SplineSet
266.666666667 100 m 13
 266.666666667 133.333333333 266.666666667 166.666666667 266.666666667 200 c 25
 277.777777778 200 288.888888889 200 300 200 c 25
 300 300 300 400 300 500 c 25
 288.888888889 500 277.777777778 500 266.666666667 500 c 25
 266.666666667 533.333333333 266.666666667 566.666666667 266.666666667 600 c 25
 222.222222222 600 177.777777778 600 133.333333333 600 c 25
 133.333333333 566.666666667 133.333333333 533.333333333 133.333333333 500 c 25
 122.222222222 500 111.111111111 500 100 500 c 25
 100 400 100 300 100 200 c 25
 111.111111111 200 122.222222222 200 133.333333333 200 c 25
 133.333333333 166.666666667 133.333333333 133.333333333 133.333333333 100 c 25
 177.777777778 100 222.222222222 100 266.666666667 100 c 13
300 0 m 9
 233.333333333 -0 166.666666667 0 100 0 c 25
 100 33.3333333333 100 66.6666666667 100 100 c 25
 88.8888888889 100 77.7777777778 100 66.6666666667 100 c 25
 66.6666666667 133.333333333 66.6666666667 166.666666667 66.6666666667 200 c 25
 55.5555555556 200 44.4444444444 200 33.3333333333 200 c 25
 33.3333333333 300 33.3333333333 400 33.3333333333 500 c 25
 44.4444444444 500 55.5555555556 500 66.6666666667 500 c 25
 66.6666666667 533.333333333 66.6666666667 566.666666667 66.6666666667 600 c 25
 77.7777777778 600 88.8888888889 600 100 600 c 25
 100 633.333333333 100 666.666666667 100 700 c 25
 166.666666667 700 233.333333333 700 300 700 c 25
 300 666.666666667 300 633.333333333 300 600 c 25
 311.111111111 600 322.222222222 600 333.333333333 600 c 25
 333.333333333 566.666666667 333.333333333 533.333333333 333.333333333 500 c 25
 344.444444444 500 355.555555556 500 366.666666667 500 c 25
 366.666666667 400 366.666666667 300 366.666666667 200 c 25
 355.555555556 200 344.444444444 200 333.333333333 200 c 25
 333.333333333 166.666666667 333.333333333 133.333333333 333.333333333 100 c 25
 322.222222222 100 311.111111111 100 300 100 c 25
 300 66.6666666667 300 33.3333333333 300 0 c 9
EndSplineSet
EndChar

StartChar: P
Encoding: 80 80 43
Width: 390
Flags: HW
HStem: 0 21G<100 200> 300 100<200 450> 600 100<200 450>
VStem: 100 100<0 300 400 600> 450 100<400 600>
LayerCount: 2
Back
Fore
SplineSet
133.333333333 600 m 13
 133.333333333 533.333333333 133.333333333 466.666666667 133.333333333 400 c 25
 188.888888889 400 244.444444444 400 300 400 c 25
 300 466.666666667 300 533.333333333 300 600 c 25
 244.444444444 600 188.888888889 600 133.333333333 600 c 13
66.6666666667 700 m 9
 155.555555556 700 244.444444444 700 333.333333333 700 c 25
 333.333333333 683.333333333 333.333333333 666.666666667 333.333333333 650 c 25
 344.444444444 650 355.555555556 650 366.666666667 650 c 25
 366.666666667 566.666666667 366.666666667 483.333333333 366.666666667 400 c 25
 355.555555556 400 344.444444444 400 333.333333333 400 c 25
 333.333333333 366.666666667 333.333333333 333.333333333 333.333333333 300 c 25
 266.666666667 300 200 300 133.333333333 300 c 25
 133.333333333 200 133.333333333 100 133.333333333 0 c 25
 111.111111111 -0 88.8888888889 0 66.6666666667 0 c 25
 66.6666666667 233.333333333 66.6666666667 466.666666667 66.6666666667 700 c 9
EndSplineSet
EndChar

StartChar: Q
Encoding: 81 81 44
Width: 390
Flags: HW
HStem: -200 100<450 550> 0 100<150 300> 600 100<150 450>
VStem: 50 100<100 600> 300 100<100 200> 350 100<-100 0> 400 150<-200 -100> 450 100<100 600>
LayerCount: 2
Back
Fore
SplineSet
100 600 m 13
 100 433.333333333 100 266.666666667 100 100 c 25
 133.333333333 100 166.666666667 100 200 100 c 25
 200 133.333333333 200 166.666666667 200 200 c 25
 222.222222222 200 244.444444444 200 266.666666667 200 c 25
 266.666666667 166.666666667 266.666666667 133.333333333 266.666666667 100 c 25
 277.777777778 100 288.888888889 100 300 100 c 25
 300 266.666666667 300 433.333333333 300 600 c 25
 233.333333333 600 166.666666667 600 100 600 c 13
66.6666666667 700 m 9
 155.555555556 700 244.444444444 700 333.333333333 700 c 25
 333.333333333 666.666666667 333.333333333 633.333333333 333.333333333 600 c 25
 344.444444444 600 355.555555556 600 366.666666667 600 c 25
 366.666666667 433.333333333 366.666666667 266.666666667 366.666666667 100 c 25
 355.555555556 100 344.444444444 100 333.333333333 100 c 25
 333.333333333 66.6666666667 333.333333333 33.3333333333 333.333333333 0 c 25
 322.222222222 -0 311.111111111 0 300 0 c 25
 300 -33.3333333333 300 -66.6666666667 300 -100 c 25
 322.222222222 -100 344.444444444 -100 366.666666667 -100 c 25
 366.666666667 -133.333333333 366.666666667 -166.666666667 366.666666667 -200 c 25
 333.333333333 -200 300 -200 266.666666667 -200 c 25
 266.666666667 -166.666666667 266.666666667 -133.333333333 266.666666667 -100 c 25
 255.555555556 -100 244.444444444 -100 233.333333333 -100 c 25
 233.333333333 -66.6666666667 233.333333333 -33.3333333333 233.333333333 0 c 25
 177.777777778 -0 122.222222222 0 66.6666666667 0 c 25
 66.6666666667 33.3333333333 66.6666666667 66.6666666667 66.6666666667 100 c 25
 55.5555555556 100 44.4444444444 100 33.3333333333 100 c 25
 33.3333333333 266.666666667 33.3333333333 433.333333333 33.3333333333 600 c 25
 44.4444444444 600 55.5555555556 600 66.6666666667 600 c 25
 66.6666666667 633.333333333 66.6666666667 666.666666667 66.6666666667 700 c 9
EndSplineSet
EndChar

StartChar: R
Encoding: 82 82 45
Width: 390
Flags: HW
HStem: 0 100<450 550> 300 100<200 300 400 450> 600 100<200 450>
VStem: 100 100<0 300 400 600> 300 100<200 300> 350 100<100 200> 400 150<0 100> 450 100<400 600>
CounterMasks: 1 e0
LayerCount: 2
Back
Fore
SplineSet
133.333333333 600 m 13
 133.333333333 533.333333333 133.333333333 466.666666667 133.333333333 400 c 25
 188.888888889 400 244.444444444 400 300 400 c 25
 300 466.666666667 300 533.333333333 300 600 c 25
 244.444444444 600 188.888888889 600 133.333333333 600 c 13
66.6666666667 700 m 9
 155.555555556 700 244.444444444 700 333.333333333 700 c 25
 333.333333333 683.333333333 333.333333333 666.666666667 333.333333333 650 c 25
 344.444444444 650 355.555555556 650 366.666666667 650 c 25
 366.666666667 566.666666667 366.666666667 483.333333333 366.666666667 400 c 25
 355.555555556 400 344.444444444 400 333.333333333 400 c 25
 333.333333333 366.666666667 333.333333333 333.333333333 333.333333333 300 c 25
 311.111111111 300 288.888888889 300 266.666666667 300 c 25
 266.666666667 266.666666667 266.666666667 233.333333333 266.666666667 200 c 25
 277.777777778 200 288.888888889 200 300 200 c 25
 300 166.666666667 300 133.333333333 300 100 c 25
 322.222222222 100 344.444444444 100 366.666666667 100 c 25
 366.666666667 66.6666666667 366.666666667 33.3333333333 366.666666667 0 c 25
 333.333333333 -0 300 0 266.666666667 0 c 25
 266.666666667 33.3333333333 266.666666667 66.6666666667 266.666666667 100 c 25
 255.555555556 100 244.444444444 100 233.333333333 100 c 25
 233.333333333 133.333333333 233.333333333 166.666666667 233.333333333 200 c 25
 222.222222222 200 211.111111111 200 200 200 c 25
 200 233.333333333 200 266.666666667 200 300 c 25
 177.777777778 300 155.555555556 300 133.333333333 300 c 25
 133.333333333 200 133.333333333 100 133.333333333 0 c 25
 111.111111111 -0 88.8888888889 0 66.6666666667 0 c 25
 66.6666666667 233.333333333 66.6666666667 466.666666667 66.6666666667 700 c 9
EndSplineSet
EndChar

StartChar: S
Encoding: 83 83 46
Width: 390
Flags: HW
HStem: 0 100<150 450> 300 100<200 450> 600 100<200 500>
VStem: 100 100<400 600> 150 350<0 100 300 400 600 700> 450 100<100 300>
CounterMasks: 1 e0
LayerCount: 2
Back
Fore
SplineSet
100 600 m 13
 100 633.333333333 100 666.666666667 100 700 c 25
 177.777777778 700 255.555555556 700 333.333333333 700 c 25
 333.333333333 666.666666667 333.333333333 633.333333333 333.333333333 600 c 25
 266.666666667 600 200 600 133.333333333 600 c 25
 133.333333333 533.333333333 133.333333333 466.666666667 133.333333333 400 c 25
 200 400 266.666666667 400 333.333333333 400 c 25
 333.333333333 366.666666667 333.333333333 333.333333333 333.333333333 300 c 25
 344.444444444 300 355.555555556 300 366.666666667 300 c 25
 366.666666667 233.333333333 366.666666667 166.666666667 366.666666667 100 c 25
 355.555555556 100 344.444444444 100 333.333333333 100 c 25
 333.333333333 66.6666666667 333.333333333 33.3333333333 333.333333333 0 c 25
 255.555555556 -0 177.777777778 0 100 0 c 25
 100 33.3333333333 100 66.6666666667 100 100 c 25
 166.666666667 100 233.333333333 100 300 100 c 25
 300 166.666666667 300 233.333333333 300 300 c 25
 233.333333333 300 166.666666667 300 100 300 c 25
 100 333.333333333 100 366.666666667 100 400 c 25
 88.8888888889 400 77.7777777778 400 66.6666666667 400 c 25
 66.6666666667 466.666666667 66.6666666667 533.333333333 66.6666666667 600 c 25
 77.7777777778 600 88.8888888889 600 100 600 c 13
EndSplineSet
EndChar

StartChar: T
Encoding: 84 84 47
Width: 390
Flags: HW
HStem: 0 21G<250 350> 600 100<50 250 350 550>
VStem: 250 100<0 600>
LayerCount: 2
Back
Fore
SplineSet
33.3333333333 700 m 1
 144.444444444 700 255.555555556 700 366.666666667 700 c 5
 366.666666667 666.666666667 366.666666667 633.333333333 366.666666667 600 c 1
 322.222222222 600 277.777777778 600 233.333333333 600 c 1
 233.333333333 400 233.333333333 200 233.333333333 0 c 25
 211.111111111 -0 188.888888889 0 166.666666667 0 c 25
 166.666666667 200 166.666666667 400 166.666666667 600 c 1
 122.222222222 600 77.7777777778 600 33.3333333333 600 c 1
 33.3333333333 633.333333333 33.3333333333 666.666666667 33.3333333333 700 c 1
EndSplineSet
EndChar

StartChar: U
Encoding: 85 85 48
Width: 390
Flags: HW
HStem: 0 100<200 450> 680 20G<100 200 450 550>
VStem: 100 100<100 700> 450 100<100 700>
LayerCount: 2
Back
Fore
SplineSet
66.6666666667 700 m 13
 88.8888888889 700 111.111111111 700 133.333333333 700 c 25
 133.333333333 500 133.333333333 300 133.333333333 100 c 25
 188.888888889 100 244.444444444 100 300 100 c 25
 300 300 300 500 300 700 c 25
 322.222222222 700 344.444444444 700 366.666666667 700 c 25
 366.666666667 500 366.666666667 300 366.666666667 100 c 25
 355.555555556 100 344.444444444 100 333.333333333 100 c 25
 333.333333333 66.6666666667 333.333333333 33.3333333333 333.333333333 0 c 25
 255.555555556 -0 177.777777778 0 100 0 c 25
 100 33.3333333333 100 66.6666666667 100 100 c 25
 88.8888888889 100 77.7777777778 100 66.6666666667 100 c 25
 66.6666666667 300 66.6666666667 500 66.6666666667 700 c 13
EndSplineSet
EndChar

StartChar: V
Encoding: 86 86 49
Width: 390
Flags: HW
HStem: 0 21G<300 400> 680 20G<100 200 500 600>
VStem: 100 100<500 700> 150 100<300 500> 200 100<200 300> 300 100<0 100> 400 100<200 300> 450 100<300 500> 500 100<500 700>
LayerCount: 2
Back
Fore
SplineSet
66.6666666667 700 m 13
 88.8888888889 700 111.111111111 700 133.333333333 700 c 25
 133.333333333 633.333333333 133.333333333 566.666666667 133.333333333 500 c 25
 144.444444444 500 155.555555556 500 166.666666667 500 c 25
 166.666666667 433.333333333 166.666666667 366.666666667 166.666666667 300 c 25
 177.777777778 300 188.888888889 300 200 300 c 25
 200 266.666666667 200 233.333333333 200 200 c 25
 222.222222222 200 244.444444444 200 266.666666667 200 c 25
 266.666666667 233.333333333 266.666666667 266.666666667 266.666666667 300 c 25
 277.777777778 300 288.888888889 300 300 300 c 25
 300 366.666666667 300 433.333333333 300 500 c 25
 311.111111111 500 322.222222222 500 333.333333333 500 c 25
 333.333333333 566.666666667 333.333333333 633.333333333 333.333333333 700 c 25
 355.555555556 700 377.777777778 700 400 700 c 25
 400 633.333333333 400 566.666666667 400 500 c 25
 388.888888889 500 377.777777778 500 366.666666667 500 c 25
 366.666666667 433.333333333 366.666666667 366.666666667 366.666666667 300 c 25
 355.555555556 300 344.444444444 300 333.333333333 300 c 25
 333.333333333 266.666666667 333.333333333 233.333333333 333.333333333 200 c 25
 322.222222222 200 311.111111111 200 300 200 c 25
 300 166.666666667 300 133.333333333 300 100 c 25
 288.888888889 100 277.777777778 100 266.666666667 100 c 25
 266.666666667 66.6666666667 266.666666667 33.3333333333 266.666666667 0 c 25
 244.444444444 -0 222.222222222 0 200 0 c 25
 200 33.3333333333 200 66.6666666667 200 100 c 25
 188.888888889 100 177.777777778 100 166.666666667 100 c 25
 166.666666667 133.333333333 166.666666667 166.666666667 166.666666667 200 c 25
 155.555555556 200 144.444444444 200 133.333333333 200 c 25
 133.333333333 233.333333333 133.333333333 266.666666667 133.333333333 300 c 25
 122.222222222 300 111.111111111 300 100 300 c 25
 100 366.666666667 100 433.333333333 100 500 c 25
 88.8888888889 500 77.7777777778 500 66.6666666667 500 c 25
 66.6666666667 566.666666667 66.6666666667 633.333333333 66.6666666667 700 c 13
EndSplineSet
EndChar

StartChar: W
Encoding: 87 87 50
Width: 390
Flags: HW
HStem: 0 21G<100 200 400 500> 680 20G<50 150 450 550>
VStem: 50 100<200 700> 100 150<100 200> 100 100<0 100> 250 100<300 400> 350 150<100 200> 400 100<0 100> 450 100<200 700>
LayerCount: 2
Back
Fore
SplineSet
33.3333333333 700 m 13
 55.5555555556 700 77.7777777778 700 100 700 c 25
 100 533.333333333 100 366.666666667 100 200 c 25
 111.111111111 200 122.222222222 200 133.333333333 200 c 25
 133.333333333 233.333333333 133.333333333 266.666666667 133.333333333 300 c 25
 144.444444444 300 155.555555556 300 166.666666667 300 c 25
 166.666666667 333.333333333 166.666666667 366.666666667 166.666666667 400 c 25
 188.888888889 400 211.111111111 400 233.333333333 400 c 25
 233.333333333 366.666666667 233.333333333 333.333333333 233.333333333 300 c 25
 244.444444444 300 255.555555556 300 266.666666667 300 c 25
 266.666666667 266.666666667 266.666666667 233.333333333 266.666666667 200 c 25
 277.777777778 200 288.888888889 200 300 200 c 25
 300 366.666666667 300 533.333333333 300 700 c 25
 322.222222222 700 344.444444444 700 366.666666667 700 c 25
 366.666666667 533.333333333 366.666666667 366.666666667 366.666666667 200 c 25
 355.555555556 200 344.444444444 200 333.333333333 200 c 25
 333.333333333 133.333333333 333.333333333 66.6666666667 333.333333333 0 c 25
 311.111111111 -0 288.888888889 0 266.666666667 0 c 25
 266.666666667 33.3333333333 266.666666667 66.6666666667 266.666666667 100 c 25
 255.555555556 100 244.444444444 100 233.333333333 100 c 25
 233.333333333 133.333333333 233.333333333 166.666666667 233.333333333 200 c 25
 211.111111111 200 188.888888889 200 166.666666667 200 c 25
 166.666666667 166.666666667 166.666666667 133.333333333 166.666666667 100 c 25
 155.555555556 100 144.444444444 100 133.333333333 100 c 25
 133.333333333 66.6666666667 133.333333333 33.3333333333 133.333333333 0 c 25
 111.111111111 -0 88.8888888889 0 66.6666666667 0 c 25
 66.6666666667 66.6666666667 66.6666666667 133.333333333 66.6666666667 200 c 25
 55.5555555556 200 44.4444444444 200 33.3333333333 200 c 25
 33.3333333333 366.666666667 33.3333333333 533.333333333 33.3333333333 700 c 13
EndSplineSet
EndChar

StartChar: X
Encoding: 88 88 51
Width: 390
Flags: HW
HStem: 0 100<100 150 450 500> 600 100<100 150 450 500>
VStem: 100 100<0 100 600 700> 150 100<100 200 500 600> 200 200<200 300 400 500> 350 100<100 200 500 600> 400 100<0 100 600 700>
LayerCount: 2
Back
Fore
SplineSet
66.6666666667 700 m 13
 88.8888888889 700 111.111111111 700 133.333333333 700 c 25
 133.333333333 666.666666667 133.333333333 633.333333333 133.333333333 600 c 25
 144.444444444 600 155.555555556 600 166.666666667 600 c 25
 166.666666667 566.666666667 166.666666667 533.333333333 166.666666667 500 c 25
 188.888888889 500 211.111111111 500 233.333333333 500 c 25
 233.333333333 533.333333333 233.333333333 566.666666667 233.333333333 600 c 25
 244.444444444 600 255.555555556 600 266.666666667 600 c 25
 266.666666667 633.333333333 266.666666667 666.666666667 266.666666667 700 c 25
 288.888888889 700 311.111111111 700 333.333333333 700 c 25
 333.333333333 666.666666667 333.333333333 633.333333333 333.333333333 600 c 25
 322.222222222 600 311.111111111 600 300 600 c 25
 300 566.666666667 300 533.333333333 300 500 c 25
 288.888888889 500 277.777777778 500 266.666666667 500 c 25
 266.666666667 466.666666667 266.666666667 433.333333333 266.666666667 400 c 25
 255.555555556 400 244.444444444 400 233.333333333 400 c 25
 233.333333333 366.666666667 233.333333333 333.333333333 233.333333333 300 c 25
 244.444444444 300 255.555555556 300 266.666666667 300 c 25
 266.666666667 266.666666667 266.666666667 233.333333333 266.666666667 200 c 25
 277.777777778 200 288.888888889 200 300 200 c 25
 300 166.666666667 300 133.333333333 300 100 c 25
 311.111111111 100 322.222222222 100 333.333333333 100 c 25
 333.333333333 66.6666666667 333.333333333 33.3333333333 333.333333333 0 c 25
 311.111111111 -0 288.888888889 0 266.666666667 0 c 25
 266.666666667 33.3333333333 266.666666667 66.6666666667 266.666666667 100 c 25
 255.555555556 100 244.444444444 100 233.333333333 100 c 25
 233.333333333 133.333333333 233.333333333 166.666666667 233.333333333 200 c 25
 211.111111111 200 188.888888889 200 166.666666667 200 c 25
 166.666666667 166.666666667 166.666666667 133.333333333 166.666666667 100 c 25
 155.555555556 100 144.444444444 100 133.333333333 100 c 25
 133.333333333 66.6666666667 133.333333333 33.3333333333 133.333333333 0 c 25
 111.111111111 -0 88.8888888889 0 66.6666666667 0 c 25
 66.6666666667 33.3333333333 66.6666666667 66.6666666667 66.6666666667 100 c 25
 77.7777777778 100 88.8888888889 100 100 100 c 25
 100 133.333333333 100 166.666666667 100 200 c 25
 111.111111111 200 122.222222222 200 133.333333333 200 c 25
 133.333333333 233.333333333 133.333333333 266.666666667 133.333333333 300 c 25
 144.444444444 300 155.555555556 300 166.666666667 300 c 25
 166.666666667 333.333333333 166.666666667 366.666666667 166.666666667 400 c 25
 155.555555556 400 144.444444444 400 133.333333333 400 c 25
 133.333333333 433.333333333 133.333333333 466.666666667 133.333333333 500 c 25
 122.222222222 500 111.111111111 500 100 500 c 25
 100 533.333333333 100 566.666666667 100 600 c 25
 88.8888888889 600 77.7777777778 600 66.6666666667 600 c 25
 66.6666666667 633.333333333 66.6666666667 666.666666667 66.6666666667 700 c 13
EndSplineSet
EndChar

StartChar: Y
Encoding: 89 89 52
Width: 390
Flags: HW
HStem: 0 21G<250 350> 600 100<50 100 500 550>
VStem: 50 100<600 700> 100 100<500 600> 150 100<400 500> 250 100<0 300> 350 100<400 500> 400 100<500 600> 450 100<600 700>
LayerCount: 2
Back
Fore
SplineSet
33.3333333333 700 m 13
 55.5555555556 700 77.7777777778 700 100 700 c 25
 100 666.666666667 100 633.333333333 100 600 c 25
 111.111111111 600 122.222222222 600 133.333333333 600 c 25
 133.333333333 566.666666667 133.333333333 533.333333333 133.333333333 500 c 25
 144.444444444 500 155.555555556 500 166.666666667 500 c 25
 166.666666667 466.666666667 166.666666667 433.333333333 166.666666667 400 c 25
 188.888888889 400 211.111111111 400 233.333333333 400 c 25
 233.333333333 433.333333333 233.333333333 466.666666667 233.333333333 500 c 25
 244.444444444 500 255.555555556 500 266.666666667 500 c 25
 266.666666667 533.333333333 266.666666667 566.666666667 266.666666667 600 c 25
 277.777777778 600 288.888888889 600 300 600 c 25
 300 633.333333333 300 666.666666667 300 700 c 25
 322.222222222 700 344.444444444 700 366.666666667 700 c 25
 366.666666667 666.666666667 366.666666667 633.333333333 366.666666667 600 c 25
 355.555555556 600 344.444444444 600 333.333333333 600 c 25
 333.333333333 566.666666667 333.333333333 533.333333333 333.333333333 500 c 25
 322.222222222 500 311.111111111 500 300 500 c 25
 300 466.666666667 300 433.333333333 300 400 c 25
 288.888888889 400 277.777777778 400 266.666666667 400 c 25
 266.666666667 366.666666667 266.666666667 333.333333333 266.666666667 300 c 25
 255.555555556 300 244.444444444 300 233.333333333 300 c 25
 233.333333333 200 233.333333333 100 233.333333333 0 c 25
 211.111111111 -0 188.888888889 0 166.666666667 0 c 25
 166.666666667 100 166.666666667 200 166.666666667 300 c 25
 155.555555556 300 144.444444444 300 133.333333333 300 c 25
 133.333333333 333.333333333 133.333333333 366.666666667 133.333333333 400 c 25
 122.222222222 400 111.111111111 400 100 400 c 25
 100 433.333333333 100 466.666666667 100 500 c 25
 88.8888888889 500 77.7777777778 500 66.6666666667 500 c 25
 66.6666666667 533.333333333 66.6666666667 566.666666667 66.6666666667 600 c 25
 55.5555555556 600 44.4444444444 600 33.3333333333 600 c 25
 33.3333333333 633.333333333 33.3333333333 666.666666667 33.3333333333 700 c 13
EndSplineSet
EndChar

StartChar: Z
Encoding: 90 90 53
Width: 390
Flags: HW
HStem: 0 100<100 150 250 500> 600 100<100 350 450 500>
VStem: 150 100<100 200> 200 100<200 300> 250 100<300 400> 300 100<400 500> 350 100<500 600>
LayerCount: 2
Back
Fore
SplineSet
66.6666666667 700 m 13
 155.555555556 700 244.444444444 700 333.333333333 700 c 25
 333.333333333 666.666666667 333.333333333 633.333333333 333.333333333 600 c 25
 322.222222222 600 311.111111111 600 300 600 c 25
 300 566.666666667 300 533.333333333 300 500 c 25
 288.888888889 500 277.777777778 500 266.666666667 500 c 25
 266.666666667 466.666666667 266.666666667 433.333333333 266.666666667 400 c 25
 255.555555556 400 244.444444444 400 233.333333333 400 c 25
 233.333333333 366.666666667 233.333333333 333.333333333 233.333333333 300 c 25
 222.222222222 300 211.111111111 300 200 300 c 25
 200 266.666666667 200 233.333333333 200 200 c 25
 188.888888889 200 177.777777778 200 166.666666667 200 c 25
 166.666666667 166.666666667 166.666666667 133.333333333 166.666666667 100 c 25
 222.222222222 100 277.777777778 100 333.333333333 100 c 25
 333.333333333 66.6666666667 333.333333333 33.3333333333 333.333333333 0 c 25
 244.444444444 -0 155.555555556 0 66.6666666667 0 c 25
 66.6666666667 33.3333333333 66.6666666667 66.6666666667 66.6666666667 100 c 25
 77.7777777778 100 88.8888888889 100 100 100 c 25
 100 133.333333333 100 166.666666667 100 200 c 25
 111.111111111 200 122.222222222 200 133.333333333 200 c 25
 133.333333333 233.333333333 133.333333333 266.666666667 133.333333333 300 c 25
 144.444444444 300 155.555555556 300 166.666666667 300 c 25
 166.666666667 333.333333333 166.666666667 366.666666667 166.666666667 400 c 25
 177.777777778 400 188.888888889 400 200 400 c 25
 200 433.333333333 200 466.666666667 200 500 c 25
 211.111111111 500 222.222222222 500 233.333333333 500 c 25
 233.333333333 533.333333333 233.333333333 566.666666667 233.333333333 600 c 25
 177.777777778 600 122.222222222 600 66.6666666667 600 c 25
 66.6666666667 633.333333333 66.6666666667 666.666666667 66.6666666667 700 c 13
EndSplineSet
EndChar

StartChar: a
Encoding: 97 97 54
Width: 390
Flags: HW
HStem: 0 100<150 400 500 549> 100 100<50 100> 200 100<150 400> 400 100<100 400>
VStem: 50 100<100 200> 400 100<100 200 300 400>
LayerCount: 2
Back
Fore
SplineSet
100 200 m 13
 100 166.666666667 100 133.333333333 100 100 c 25
 155.555555556 100 211.111111111 100 266.666666667 100 c 25
 266.666666667 133.333333333 266.666666667 166.666666667 266.666666667 200 c 25
 211.111111111 200 155.555555556 200 100 200 c 13
66.6666666667 500 m 9
 144.444444444 500 222.222222222 500 300 500 c 25
 300 466.666666667 300 433.333333333 300 400 c 25
 311.111111111 400 322.222222222 400 333.333333333 400 c 25
 333.333333333 300 333.333333333 200 333.333333333 100 c 25
 344.222222222 100 355.111111111 100 366 100 c 25
 366.222222222 66.6666666667 366.444444444 33.3333333333 366.666666667 0 c 25
 266.666666667 -0 166.666666667 0 66.6666666667 0 c 25
 66.6666666667 33.3333333333 66.6666666667 66.6666666667 66.6666666667 100 c 25
 55.5555555556 100 44.4444444444 100 33.3333333333 100 c 25
 33.3333333333 133.333333333 33.3333333333 166.666666667 33.3333333333 200 c 25
 44.4444444444 200 55.5555555556 200 66.6666666667 200 c 25
 66.6666666667 233.333333333 66.6666666667 266.666666667 66.6666666667 300 c 25
 133.333333333 300 200 300 266.666666667 300 c 25
 266.666666667 333.333333333 266.666666667 366.666666667 266.666666667 400 c 25
 200 400 133.333333333 400 66.6666666667 400 c 25
 66.6666666667 433.333333333 66.6666666667 466.666666667 66.6666666667 500 c 9
EndSplineSet
EndChar

StartChar: b
Encoding: 98 98 55
Width: 390
Flags: HW
HStem: 0 100<200 450> 300 100<200 250> 400 100<250 450> 680 20G<100 200>
VStem: 100 150<300 400> 100 100<100 300 400 700> 450 100<100 400>
LayerCount: 2
Back
Fore
SplineSet
300 400 m 13
 255.555555556 400 211.111111111 400 166.666666667 400 c 25
 166.666666667 366.666666667 166.666666667 333.333333333 166.666666667 300 c 25
 155.555555556 300 144.444444444 300 133.333333333 300 c 25
 133.333333333 233.333333333 133.333333333 166.666666667 133.333333333 100 c 25
 188.888888889 100 244.444444444 100 300 100 c 25
 300 200 300 300 300 400 c 13
66.6666666667 700 m 9
 88.8888888889 700 111.111111111 700 133.333333333 700 c 25
 133.333333333 600 133.333333333 500 133.333333333 400 c 25
 144.444444444 400 155.555555556 400 166.666666667 400 c 25
 166.666666667 433.333333333 166.666666667 466.666666667 166.666666667 500 c 25
 222.222222222 500 277.777777778 500 333.333333333 500 c 25
 333.333333333 466.666666667 333.333333333 433.333333333 333.333333333 400 c 25
 344.444444444 400 355.555555556 400 366.666666667 400 c 25
 366.666666667 300 366.666666667 200 366.666666667 100 c 25
 355.555555556 100 344.444444444 100 333.333333333 100 c 25
 333.333333333 66.6666666667 333.333333333 33.3333333333 333.333333333 0 c 25
 244.444444444 -0 155.555555556 0 66.6666666667 0 c 25
 66.6666666667 233.333333333 66.6666666667 466.666666667 66.6666666667 700 c 9
EndSplineSet
EndChar

StartChar: c
Encoding: 99 99 56
Width: 390
Flags: HW
HStem: 0 100<250 550> 200 100<100 150> 400 100<250 550>
VStem: 100 100<200 300> 150 100<100 200 300 400>
CounterMasks: 1 e0
LayerCount: 2
Back
Fore
SplineSet
133.333333333 500 m 13
 211.111111111 500 288.888888889 500 366.666666667 500 c 25
 366.666666667 466.666666667 366.666666667 433.333333333 366.666666667 400 c 25
 300 400 233.333333333 400 166.666666667 400 c 25
 166.666666667 366.666666667 166.666666667 333.333333333 166.666666667 300 c 25
 155.555555556 300 144.444444444 300 133.333333333 300 c 25
 133.333333333 266.666666667 133.333333333 233.333333333 133.333333333 200 c 25
 144.444444444 200 155.555555556 200 166.666666667 200 c 25
 166.666666667 166.666666667 166.666666667 133.333333333 166.666666667 100 c 25
 233.333333333 100 300 100 366.666666667 100 c 25
 366.666666667 66.6666666667 366.666666667 33.3333333333 366.666666667 0 c 25
 288.888888889 -0 211.111111111 0 133.333333333 0 c 25
 133.333333333 33.3333333333 133.333333333 66.6666666667 133.333333333 100 c 25
 122.222222222 100 111.111111111 100 100 100 c 25
 100 133.333333333 100 166.666666667 100 200 c 25
 88.8888888889 200 77.7777777778 200 66.6666666667 200 c 25
 66.6666666667 233.333333333 66.6666666667 266.666666667 66.6666666667 300 c 25
 77.7777777778 300 88.8888888889 300 100 300 c 25
 100 333.333333333 100 366.666666667 100 400 c 25
 111.111111111 400 122.222222222 400 133.333333333 400 c 25
 133.333333333 433.333333333 133.333333333 466.666666667 133.333333333 500 c 13
EndSplineSet
EndChar

StartChar: d
Encoding: 100 100 57
Width: 390
Flags: HW
HStem: 0 100<200 450> 300 100<400 450> 400 100<200 400> 680 20G<450 550>
VStem: 100 100<100 400> 400 150<300 400> 450 100<100 300 400 700>
LayerCount: 2
Back
Fore
SplineSet
133.333333333 100 m 13
 188.888888889 100 244.444444444 100 300 100 c 25
 300 166.666666667 300 233.333333333 300 300 c 25
 288.888888889 300 277.777777778 300 266.666666667 300 c 25
 266.666666667 333.333333333 266.666666667 366.666666667 266.666666667 400 c 25
 222.222222222 400 177.777777778 400 133.333333333 400 c 25
 133.333333333 300 133.333333333 200 133.333333333 100 c 13
300 700 m 9
 322.222222222 700 344.444444444 700 366.666666667 700 c 25
 366.666666667 466.666666667 366.666666667 233.333333333 366.666666667 0 c 25
 277.777777778 -0 188.888888889 0 100 0 c 25
 100 33.3333333333 100 66.6666666667 100 100 c 25
 88.8888888889 100 77.7777777778 100 66.6666666667 100 c 25
 66.6666666667 200 66.6666666667 300 66.6666666667 400 c 25
 77.7777777778 400 88.8888888889 400 100 400 c 25
 100 433.333333333 100 466.666666667 100 500 c 25
 155.555555556 500 211.111111111 500 266.666666667 500 c 25
 266.666666667 466.666666667 266.666666667 433.333333333 266.666666667 400 c 25
 277.777777778 400 288.888888889 400 300 400 c 25
 300 500 300 600 300 700 c 9
EndSplineSet
EndChar

StartChar: e
Encoding: 101 101 58
Width: 390
Flags: HW
HStem: 0 100<200 500> 200 100<200 450> 400 100<200 450>
VStem: 100 100<100 200 300 400> 450 100<300 400>
CounterMasks: 1 e0
LayerCount: 2
Back
Fore
SplineSet
133.333333333 400 m 1
 133.333333333 366.666666667 133.333333333 333.333333333 133.333333333 300 c 1
 188.888888889 300 244.444444444 300 300 300 c 1
 300 333.333333333 300 366.666666667 300 400 c 1
 244.444444444 400 188.888888889 400 133.333333333 400 c 1
100 400 m 1
 100 433.333333333 100 466.666666667 100 500 c 1
 177.555555556 500 255.111111111 500 332.666666667 500 c 1
 332.888888889 466.666666667 333.111111111 433.333333333 333.333333333 400 c 25
 344.444444444 400 355.555555556 400 366.666666667 400 c 25
 366.666666667 333.333333333 366.666666667 266.666666667 366.666666667 200 c 1
 288.888888889 200 211.111111111 200 133.333333333 200 c 1
 133.333333333 166.666666667 133.333333333 133.333333333 133.333333333 100 c 1
 200 100 266.666666667 100 333.333333333 100 c 1
 333.333333333 66.6666666667 333.333333333 33.3333333333 333.333333333 0 c 1
 255.555555556 -0 177.777777778 0 100 0 c 1
 100 33.3333333333 100 66.6666666667 100 100 c 1
 88.8888888889 100 77.7777777778 100 66.6666666667 100 c 1
 66.6666666667 200 66.6666666667 300 66.6666666667 400 c 5
 77.7777777778 400 88.8888888889 400 100 400 c 1
EndSplineSet
EndChar

StartChar: f
Encoding: 102 102 59
Width: 390
Flags: HW
HStem: 0 21G<200 300> 300 100<100 200 300 450> 600 100<300 550>
VStem: 200 100<0 300 400 600>
LayerCount: 2
Back
Fore
SplineSet
166.666666667 600 m 13
 166.666666667 633.333333333 166.666666667 666.666666667 166.666666667 700 c 25
 233.333333333 700 300 700 366.666666667 700 c 25
 366.666666667 666.666666667 366.666666667 633.333333333 366.666666667 600 c 25
 311.111111111 600 255.555555556 600 200 600 c 25
 200 533.333333333 200 466.666666667 200 400 c 25
 233.333333333 400 266.666666667 400 300 400 c 25
 300 366.666666667 300 333.333333333 300 300 c 25
 266.666666667 300 233.333333333 300 200 300 c 25
 200 200 200 100 200 0 c 25
 177.777777778 -0 155.555555556 0 133.333333333 0 c 25
 133.333333333 100 133.333333333 200 133.333333333 300 c 25
 111.111111111 300 88.8888888889 300 66.6666666667 300 c 25
 66.6666666667 333.333333333 66.6666666667 366.666666667 66.6666666667 400 c 25
 88.8888888889 400 111.111111111 400 133.333333333 400 c 25
 133.333333333 466.666666667 133.333333333 533.333333333 133.333333333 600 c 25
 144.444444444 600 155.555555556 600 166.666666667 600 c 13
EndSplineSet
EndChar

StartChar: g
Encoding: 103 103 60
Width: 390
Flags: HW
HStem: -200 100<150 450> 0 100<200 400> 100 100<400 450> 300 100<400 450> 400 100<200 400>
VStem: 100 100<100 400> 150 250<0 100 400 498> 400 150<100 200 300 400> 450 100<-100 100 200 300 400 500>
LayerCount: 2
Back
Fore
SplineSet
133.333333333 400 m 13
 133.333333333 300 133.333333333 200 133.333333333 100 c 25
 177.777777778 100 222.222222222 100 266.666666667 100 c 25
 266.666666667 133.333333333 266.666666667 166.666666667 266.666666667 200 c 25
 277.777777778 200 288.888888889 200 300 200 c 25
 300 233.333333333 300 266.666666667 300 300 c 25
 288.888888889 300 277.777777778 300 266.666666667 300 c 25
 266.666666667 333.333333333 266.666666667 366.666666667 266.666666667 400 c 25
 222.222222222 400 177.777777778 400 133.333333333 400 c 13
100 400 m 9
 100 432.666666667 100 465.333333333 100 498 c 25
 155.555555556 498.666666667 211.111111111 499.333333333 266.666666667 500 c 25
 266.666666667 466.666666667 266.666666667 433.333333333 266.666666667 400 c 25
 277.777777778 400 288.888888889 400 300 400 c 25
 300 433.333333333 300 466.666666667 300 500 c 25
 322.222222222 500 344.444444444 500 366.666666667 500 c 25
 366.666666667 300 366.666666667 100 366.666666667 -100 c 25
 355.555555556 -100 344.444444444 -100 333.333333333 -100 c 25
 333.333333333 -133.333333333 333.333333333 -166.666666667 333.333333333 -200 c 25
 255.555555556 -200 177.777777778 -200 100 -200 c 25
 100 -166.666666667 100 -133.333333333 100 -100 c 25
 166.666666667 -100 233.333333333 -100 300 -100 c 25
 300 -33.3333333333 300 33.3333333333 300 100 c 25
 288.888888889 100 277.777777778 100 266.666666667 100 c 25
 266.666666667 66.6666666667 266.666666667 33.3333333333 266.666666667 0 c 25
 211.111111111 -0 155.555555556 0 100 0 c 25
 100 33.3333333333 100 66.6666666667 100 100 c 25
 88.8888888889 100 77.7777777778 100 66.6666666667 100 c 25
 66.6666666667 200 66.6666666667 300 66.6666666667 400 c 25
 77.7777777778 400 88.8888888889 400 100 400 c 9
EndSplineSet
EndChar

StartChar: h
Encoding: 104 104 61
Width: 390
Flags: HW
HStem: 0 21G<100 200 450 550> 300 100<200 250> 400 100<250 450> 680 20G<100 200>
VStem: 100 150<300 400> 100 100<0 300 400 700> 450 100<0 400>
LayerCount: 2
Back
Fore
SplineSet
66.6666666667 700 m 13
 88.8888888889 700 111.111111111 700 133.333333333 700 c 25
 133.333333333 600 133.333333333 500 133.333333333 400 c 25
 144.444444444 400 155.555555556 400 166.666666667 400 c 25
 166.666666667 433.333333333 166.666666667 466.666666667 166.666666667 500 c 25
 222.222222222 500 277.777777778 500 333.333333333 500 c 25
 333.333333333 466.666666667 333.333333333 433.333333333 333.333333333 400 c 25
 344.444444444 400 355.555555556 400 366.666666667 400 c 25
 366.666666667 266.666666667 366.666666667 133.333333333 366.666666667 0 c 25
 344.444444444 -0 322.222222222 0 300 0 c 25
 300 133.333333333 300 266.666666667 300 400 c 25
 255.555555556 400 211.111111111 400 166.666666667 400 c 25
 166.666666667 366.666666667 166.666666667 333.333333333 166.666666667 300 c 25
 155.555555556 300 144.444444444 300 133.333333333 300 c 25
 133.333333333 200 133.333333333 100 133.333333333 0 c 25
 111.111111111 -0 88.8888888889 0 66.6666666667 0 c 25
 66.6666666667 233.333333333 66.6666666667 466.666666667 66.6666666667 700 c 13
EndSplineSet
EndChar

StartChar: i
Encoding: 105 105 62
Width: 390
Flags: HW
HStem: 0 100<150 250 349 450> 400 100<200 250> 600 100<200 350>
VStem: 200 150<400 500 600 700> 250 100<100 400>
LayerCount: 2
Back
Fore
SplineSet
133.333333333 500 m 1
 166.666666667 500 200 500 233.333333333 500 c 25
 233.111111111 366.666666667 232.888888889 233.333333333 232.666666667 100 c 25
 255.111111111 100 277.555555556 100 300 100 c 25
 300 66.6666666667 300 33.3333333333 300 0 c 25
 233.333333333 -0 166.666666667 0 100 0 c 25
 100 33.3333333333 100 66.6666666667 100 100 c 25
 122.222222222 100 144.444444444 100 166.666666667 100 c 25
 166.666666667 200 166.666666667 300 166.666666667 400 c 1
 155.555555556 400 144.444444444 400 133.333333333 400 c 29
 133.333333333 433.333333333 133.333333333 466.666666667 133.333333333 500 c 1
133.333333333 700 m 9
 166.666666667 700 200 700 233.333333333 700 c 25
 233.333333333 666.666666667 233.333333333 633.333333333 233.333333333 600 c 25
 200 600 166.666666667 600 133.333333333 600 c 25
 133.333333333 633.333333333 133.333333333 666.666666667 133.333333333 700 c 9
EndSplineSet
EndChar

StartChar: j
Encoding: 106 106 63
Width: 390
Flags: HW
HStem: -200 100<200 450> -100 100<100 150> 400 100<400 450> 600 100<400 549>
VStem: 100 100<-100 0> 400 150<400 500 600 700> 450 100<-100 400>
LayerCount: 2
Back
Fore
SplineSet
266.666666667 400 m 13
 266.666666667 433.333333333 266.666666667 466.666666667 266.666666667 500 c 25
 300 500 333.333333333 500 366.666666667 500 c 25
 366.666666667 300 366.666666667 100 366.666666667 -100 c 25
 355.555555556 -100 344.444444444 -100 333.333333333 -100 c 25
 333.333333333 -133.333333333 333.333333333 -166.666666667 333.333333333 -200 c 25
 255.555555556 -200 177.777777778 -200 100 -200 c 25
 100 -166.666666667 100 -133.333333333 100 -100 c 25
 88.8888888889 -100 77.7777777778 -100 66.6666666667 -100 c 25
 66.6666666667 -66.6666666667 66.6666666667 -33.3333333333 66.6666666667 0 c 25
 88.8888888889 -0 111.111111111 0 133.333333333 0 c 25
 133.333333333 -33.3333333333 133.333333333 -66.6666666667 133.333333333 -100 c 25
 188.888888889 -100 244.444444444 -100 300 -100 c 25
 300 66.6666666667 300 233.333333333 300 400 c 25
 288.888888889 400 277.777777778 400 266.666666667 400 c 13
266.666666667 700 m 9
 299.777777778 700 332.888888889 700 366 700 c 25
 366.222222222 666.666666667 366.444444444 633.333333333 366.666666667 600 c 25
 333.333333333 600 300 600 266.666666667 600 c 25
 266.666666667 633.333333333 266.666666667 666.666666667 266.666666667 700 c 9
EndSplineSet
EndChar

StartChar: k
Encoding: 107 107 64
Width: 390
Flags: HW
HStem: 0 100<400 500> 200 100<200 300> 400 100<400 500> 680 20G<100 200>
VStem: 100 100<0 200 300 700> 300 100<100 200 300 400> 350 150<0 100 400 500>
LayerCount: 2
Back
Fore
SplineSet
66.6666666667 700 m 13
 88.8888888889 700 111.111111111 700 133.333333333 700 c 25
 133.333333333 566.666666667 133.333333333 433.333333333 133.333333333 300 c 25
 155.555555556 300 177.777777778 300 200 300 c 25
 200 333.333333333 200 366.666666667 200 400 c 25
 211.111111111 400 222.222222222 400 233.333333333 400 c 25
 233.333333333 433.333333333 233.333333333 466.666666667 233.333333333 500 c 25
 266.666666667 500 300 500 333.333333333 500 c 25
 333.333333333 466.666666667 333.333333333 433.333333333 333.333333333 400 c 25
 311.111111111 400 288.888888889 400 266.666666667 400 c 25
 266.666666667 366.666666667 266.666666667 333.333333333 266.666666667 300 c 25
 255.555555556 300 244.444444444 300 233.333333333 300 c 25
 233.333333333 266.666666667 233.333333333 233.333333333 233.333333333 200 c 25
 244.444444444 200 255.555555556 200 266.666666667 200 c 25
 266.666666667 166.666666667 266.666666667 133.333333333 266.666666667 100 c 25
 288.888888889 100 311.111111111 100 333.333333333 100 c 25
 333.333333333 66.6666666667 333.333333333 33.3333333333 333.333333333 0 c 25
 300 -0 266.666666667 0 233.333333333 0 c 25
 233.333333333 33.3333333333 233.333333333 66.6666666667 233.333333333 100 c 25
 222.222222222 100 211.111111111 100 200 100 c 25
 200 133.333333333 200 166.666666667 200 200 c 25
 177.777777778 200 155.555555556 200 133.333333333 200 c 25
 133.333333333 133.333333333 133.333333333 66.6666666667 133.333333333 0 c 25
 111.111111111 -0 88.8888888889 0 66.6666666667 0 c 25
 66.6666666667 233.333333333 66.6666666667 466.666666667 66.6666666667 700 c 13
EndSplineSet
EndChar

StartChar: l
Encoding: 108 108 65
Width: 390
Flags: HW
HStem: 0 100<100 250 350 500> 650 100<150 250>
VStem: 250 100<100 650>
LayerCount: 2
Back
Fore
SplineSet
100 750 m 13
 144.444444444 750 188.888888889 750 233.333333333 750 c 25
 233.333333333 533.333333333 233.333333333 316.666666667 233.333333333 100 c 25
 266.666666667 100 300 100 333.333333333 100 c 25
 333.333333333 66.6666666667 333.333333333 33.3333333333 333.333333333 0 c 25
 244.444444444 -0 155.555555556 0 66.6666666667 0 c 25
 66.6666666667 33.3333333333 66.6666666667 66.6666666667 66.6666666667 100 c 25
 100 100 133.333333333 100 166.666666667 100 c 25
 166.666666667 283.333333333 166.666666667 466.666666667 166.666666667 650 c 25
 144.444444444 650 122.222222222 650 100 650 c 25
 100 683.333333333 100 716.666666667 100 750 c 13
EndSplineSet
EndChar

StartChar: m
Encoding: 109 109 66
Width: 390
Flags: HW
HStem: 0 21G<50 150 250 350 450 550> 400 100<150 250 350 450>
VStem: 50 100<0 400> 250 100<0 400> 450 100<0 400>
CounterMasks: 1 38
LayerCount: 2
Back
Fore
SplineSet
33.3333333333 0 m 13
 33.3333333333 166.666666667 33.3333333333 333.333333333 33.3333333333 500 c 25
 133.111111111 500 232.888888889 500 332.666666667 500 c 25
 332.888888889 466.666666667 333.111111111 433.333333333 333.333333333 400 c 25
 344.444444444 400 355.555555556 400 366.666666667 400 c 25
 366.666666667 266.666666667 366.666666667 133.333333333 366.666666667 0 c 25
 344.444444444 -0 322.222222222 0 300 0 c 25
 300 133.333333333 300 266.666666667 300 400 c 25
 277.777777778 400 255.555555556 400 233.333333333 400 c 25
 233.333333333 266.666666667 233.333333333 133.333333333 233.333333333 0 c 25
 211.111111111 -0 188.888888889 0 166.666666667 0 c 25
 166.666666667 133.333333333 166.666666667 266.666666667 166.666666667 400 c 25
 144.444444444 400 122.222222222 400 100 400 c 25
 100 266.666666667 100 133.333333333 100 0 c 25
 77.7777777778 -0 55.5555555556 0 33.3333333333 0 c 13
EndSplineSet
EndChar

StartChar: n
Encoding: 110 110 67
Width: 390
Flags: HW
HStem: 0 21G<100 200 450 550> 300 100<200 250> 400 100<250 450>
VStem: 100 150<300 400> 100 100<0 300 400 500> 450 100<0 400>
LayerCount: 2
Back
Fore
SplineSet
66.6666666667 0 m 13
 66.6666666667 166.666666667 66.6666666667 333.333333333 66.6666666667 500 c 25
 88.8888888889 500 111.111111111 500 133.333333333 500 c 25
 133.333333333 466.666666667 133.333333333 433.333333333 133.333333333 400 c 25
 144.444444444 400 155.555555556 400 166.666666667 400 c 25
 166.666666667 433.333333333 166.666666667 466.666666667 166.666666667 500 c 25
 222.222222222 500 277.777777778 500 333.333333333 500 c 25
 333.333333333 466.666666667 333.333333333 433.333333333 333.333333333 400 c 25
 344.444444444 400 355.555555556 400 366.666666667 400 c 25
 366.666666667 266.666666667 366.666666667 133.333333333 366.666666667 0 c 25
 344.444444444 -0 322.222222222 0 300 0 c 25
 300 133.333333333 300 266.666666667 300 400 c 25
 255.555555556 400 211.111111111 400 166.666666667 400 c 25
 166.666666667 366.666666667 166.666666667 333.333333333 166.666666667 300 c 25
 155.555555556 300 144.444444444 300 133.333333333 300 c 25
 133.333333333 200 133.333333333 100 133.333333333 0 c 25
 111.111111111 -0 88.8888888889 0 66.6666666667 0 c 13
EndSplineSet
EndChar

StartChar: o
Encoding: 111 111 68
Width: 390
Flags: HW
HStem: 0 100<200 450> 400 100<200 450>
VStem: 100 100<100 400> 450 100<100 400>
LayerCount: 2
Back
Fore
SplineSet
133.333333333 400 m 13
 133.333333333 300 133.333333333 200 133.333333333 100 c 25
 188.888888889 100 244.444444444 100 300 100 c 25
 300 200 300 300 300 400 c 25
 244.444444444 400 188.888888889 400 133.333333333 400 c 13
100 500 m 9
 177.777777778 500 255.555555556 500 333.333333333 500 c 25
 333.333333333 466.666666667 333.333333333 433.333333333 333.333333333 400 c 25
 344.444444444 400 355.555555556 400 366.666666667 400 c 25
 366.666666667 300 366.666666667 200 366.666666667 100 c 25
 355.555555556 100 344.444444444 100 333.333333333 100 c 25
 333.333333333 66.6666666667 333.333333333 33.3333333333 333.333333333 0 c 25
 255.555555556 -0 177.777777778 0 100 0 c 25
 100 33.3333333333 100 66.6666666667 100 100 c 25
 88.8888888889 100 77.7777777778 100 66.6666666667 100 c 25
 66.6666666667 200 66.6666666667 300 66.6666666667 400 c 25
 77.7777777778 400 88.8888888889 400 100 400 c 25
 100 433.333333333 100 466.666666667 100 500 c 9
EndSplineSet
EndChar

StartChar: p
Encoding: 112 112 69
Width: 390
Flags: HW
HStem: -200 21G<100 200> 0 100<250 450> 100 100<200 250> 300 100<200 250> 400 100<250 450>
VStem: 100 150<100 200 300 400> 100 100<-200 100 200 300 400 500> 250 250<0 100 400 500> 450 100<100 400>
LayerCount: 2
Back
Fore
SplineSet
166.666666667 300 m 13
 155.555555556 300 144.444444444 300 133.333333333 300 c 25
 133.333333333 266.666666667 133.333333333 233.333333333 133.333333333 200 c 25
 144.444444444 200 155.555555556 200 166.666666667 200 c 25
 166.666666667 166.666666667 166.666666667 133.333333333 166.666666667 100 c 25
 211.111111111 100 255.555555556 100 300 100 c 25
 300 200 300 300 300 400 c 25
 255.555555556 400 211.111111111 400 166.666666667 400 c 25
 166.666666667 366.666666667 166.666666667 333.333333333 166.666666667 300 c 13
66.6666666667 500 m 9
 88.8888888889 500 111.111111111 500 133.333333333 500 c 25
 133.333333333 466.666666667 133.333333333 433.333333333 133.333333333 400 c 25
 144.444444444 400 155.555555556 400 166.666666667 400 c 25
 166.666666667 433.333333333 166.666666667 466.666666667 166.666666667 500 c 25
 222.222222222 500 277.777777778 500 333.333333333 500 c 25
 333.333333333 466.666666667 333.333333333 433.333333333 333.333333333 400 c 25
 344.444444444 400 355.555555556 400 366.666666667 400 c 25
 366.666666667 300 366.666666667 200 366.666666667 100 c 25
 355.555555556 100 344.444444444 100 333.333333333 100 c 25
 333.333333333 66.6666666667 333.333333333 33.3333333333 333.333333333 0 c 25
 277.777777778 -0 222.222222222 0 166.666666667 0 c 25
 166.666666667 33.3333333333 166.666666667 66.6666666667 166.666666667 100 c 25
 155.555555556 100 144.444444444 100 133.333333333 100 c 25
 133.333333333 1.18425917107e-14 133.333333333 -100 133.333333333 -200 c 25
 111.111111111 -200 88.8888888889 -200 66.6666666667 -200 c 25
 66.6666666667 33.3333333333 66.6666666667 266.666666667 66.6666666667 500 c 9
EndSplineSet
EndChar

StartChar: q
Encoding: 113 113 70
Width: 390
Flags: HW
HStem: -200 21G<450 550> 0 100<200 400> 100 100<400 450> 300 100<400 450> 400 100<200 400>
VStem: 100 100<100 400> 150 250<0 100 400 500> 400 150<100 200 300 400> 450 100<-200 100 200 300 400 500>
LayerCount: 2
Back
Fore
SplineSet
133.333333333 400 m 13
 133.333333333 300 133.333333333 200 133.333333333 100 c 25
 177.777777778 100 222.222222222 100 266.666666667 100 c 25
 266.666666667 133.333333333 266.666666667 166.666666667 266.666666667 200 c 25
 277.777777778 200 288.888888889 200 300 200 c 25
 300 233.333333333 300 266.666666667 300 300 c 25
 288.888888889 300 277.777777778 300 266.666666667 300 c 25
 266.666666667 333.333333333 266.666666667 366.666666667 266.666666667 400 c 25
 222.222222222 400 177.777777778 400 133.333333333 400 c 13
100 500 m 9
 155.555555556 500 211.111111111 500 266.666666667 500 c 25
 266.666666667 466.666666667 266.666666667 433.333333333 266.666666667 400 c 25
 277.777777778 400 288.888888889 400 300 400 c 25
 300 433.333333333 300 466.666666667 300 500 c 25
 322.222222222 500 344.444444444 500 366.666666667 500 c 25
 366.666666667 266.666666667 366.666666667 33.3333333333 366.666666667 -200 c 25
 344.444444444 -200 322.222222222 -200 300 -200 c 25
 300 -100 300 -2.2559458935e-14 300 100 c 25
 288.888888889 100 277.777777778 100 266.666666667 100 c 25
 266.666666667 66.6666666667 266.666666667 33.3333333333 266.666666667 0 c 25
 211.111111111 -0 155.555555556 0 100 0 c 25
 100 33.3333333333 100 66.6666666667 100 100 c 25
 88.8888888889 100 77.7777777778 100 66.6666666667 100 c 25
 66.6666666667 200 66.6666666667 300 66.6666666667 400 c 25
 77.7777777778 400 88.8888888889 400 100 400 c 25
 100 433.333333333 100 466.666666667 100 500 c 9
EndSplineSet
EndChar

StartChar: r
Encoding: 114 114 71
Width: 390
Flags: HW
HStem: 0 21G<100 200> 300 100<200 300> 400 100<300 550>
VStem: 100 100<0 300 400 500>
LayerCount: 2
Back
Fore
SplineSet
66.6666666667 0 m 13
 66.6666666667 166.666666667 66.6666666667 333.333333333 66.6666666667 500 c 25
 88.8888888889 500 111.111111111 500 133.333333333 500 c 25
 133.333333333 466.666666667 133.333333333 433.333333333 133.333333333 400 c 25
 155.555555556 400 177.777777778 400 200 400 c 25
 200 433.333333333 200 466.666666667 200 500 c 25
 255.555555556 500 311.111111111 500 366.666666667 500 c 25
 366.666666667 466.666666667 366.666666667 433.333333333 366.666666667 400 c 25
 311.111111111 400 255.555555556 400 200 400 c 25
 200 366.666666667 200 333.333333333 200 300 c 25
 177.777777778 300 155.555555556 300 133.333333333 300 c 25
 133.333333333 200 133.333333333 100 133.333333333 0 c 25
 111.111111111 -0 88.8888888889 0 66.6666666667 0 c 13
EndSplineSet
EndChar

StartChar: s
Encoding: 115 115 72
Width: 390
Flags: HW
HStem: 0 100<150 450> 100 100<500 550> 200 100<200 450> 300 100<100 150> 400 100<200 500>
VStem: 100 100<300 400> 150 350<0 100 200 300 400 500> 450 100<100 200>
LayerCount: 2
Back
Fore
SplineSet
333.333333333 400 m 1
 266.666666667 400 200 400 133.333333333 400 c 1
 133.333333333 366.666666667 133.333333333 333.333333333 133.333333333 300 c 1
 200 300 266.666666667 300 333.333333333 300 c 1
 333.333333333 266.666666667 333.333333333 233.333333333 333.333333333 200 c 25
 344.444444444 200 355.555555556 200 366.666666667 200 c 25
 366.666666667 166.666666667 366.666666667 133.333333333 366.666666667 100 c 25
 355.555555556 100 344.444444444 100 333.333333333 100 c 25
 333.333333333 66.6666666667 333.333333333 33.3333333333 333.333333333 0 c 1
 255.555555556 -0 177.777777778 0 100 0 c 5
 100 33.3333333333 100 66.6666666667 100 100 c 1
 166.666666667 100 233.333333333 100 300 100 c 1
 300 133.333333333 300 166.666666667 300 200 c 1
 233.333333333 200 166.666666667 200 100 200 c 1
 100 233.333333333 100 266.666666667 100 300 c 1
 88.8888888889 300 77.7777777778 300 66.6666666667 300 c 1
 66.6666666667 333.333333333 66.6666666667 366.666666667 66.6666666667 400 c 1
 77.7777777778 400 88.8888888889 400 100 400 c 1
 100 433.333333333 100 466.666666667 100 500 c 1
 177.777777778 500 255.555555556 500 333.333333333 500 c 1
 333.333333333 466.666666667 333.333333333 433.333333333 333.333333333 400 c 1
EndSplineSet
EndChar

StartChar: t
Encoding: 116 116 73
Width: 390
Flags: HW
HStem: 0 100<300 550> 400 100<100 200 300 400> 680 20G<200 300>
VStem: 200 100<100 400 500 700>
LayerCount: 2
Back
Fore
SplineSet
133.333333333 700 m 13
 155.555555556 700 177.777777778 700 200 700 c 25
 200 633.333333333 200 566.666666667 200 500 c 25
 222.222222222 500 244.444444444 500 266.666666667 500 c 25
 266.666666667 466.666666667 266.666666667 433.333333333 266.666666667 400 c 25
 244.444444444 400 222.222222222 400 200 400 c 25
 200 300 200 200 200 100 c 25
 255.555555556 100 311.111111111 100 366.666666667 100 c 25
 366.666666667 66.6666666667 366.666666667 33.3333333333 366.666666667 0 c 25
 300 -0 233.333333333 0 166.666666667 0 c 25
 166.666666667 33.3333333333 166.666666667 66.6666666667 166.666666667 100 c 25
 155.555555556 100 144.444444444 100 133.333333333 100 c 25
 133.333333333 200 133.333333333 300 133.333333333 400 c 25
 111.111111111 400 88.8888888889 400 66.6666666667 400 c 25
 66.6666666667 433.333333333 66.6666666667 466.666666667 66.6666666667 500 c 25
 88.8888888889 500 111.111111111 500 133.333333333 500 c 25
 133.333333333 566.666666667 133.333333333 633.333333333 133.333333333 700 c 13
EndSplineSet
EndChar

StartChar: u
Encoding: 117 117 74
Width: 390
Flags: HW
HStem: 0 100<200 400> 100 100<400 450> 480 20G<100 200 450 550>
VStem: 100 100<100 500> 400 150<100 200> 450 100<0 100 200 500>
LayerCount: 2
Back
Fore
SplineSet
66.6666666667 500 m 13
 88.8888888889 500 111.111111111 500 133.333333333 500 c 25
 133.333333333 366.666666667 133.333333333 233.333333333 133.333333333 100 c 25
 177.777777778 100 222.222222222 100 266.666666667 100 c 25
 266.666666667 133.333333333 266.666666667 166.666666667 266.666666667 200 c 25
 277.777777778 200 288.888888889 200 300 200 c 25
 300 300 300 400 300 500 c 25
 322.222222222 500 344.444444444 500 366.666666667 500 c 25
 366.666666667 333.333333333 366.666666667 166.666666667 366.666666667 0 c 25
 344.444444444 -0 322.222222222 0 300 0 c 25
 300 33.3333333333 300 66.6666666667 300 100 c 25
 288.888888889 100 277.777777778 100 266.666666667 100 c 25
 266.666666667 66.6666666667 266.666666667 33.3333333333 266.666666667 0 c 25
 211.111111111 -0 155.555555556 0 100 0 c 25
 100 33.3333333333 100 66.6666666667 100 100 c 25
 88.8888888889 100 77.7777777778 100 66.6666666667 100 c 25
 66.6666666667 233.333333333 66.6666666667 366.666666667 66.6666666667 500 c 13
EndSplineSet
EndChar

StartChar: v
Encoding: 118 118 75
Width: 390
Flags: HW
HStem: 0 21G<250 350> 400 100<50 100 500 550>
VStem: 50 100<400 500> 100 100<300 400> 150 100<200 300> 250 100<0 100> 350 100<200 300> 400 100<300 400> 450 100<400 500>
LayerCount: 2
Back
Fore
SplineSet
33.3333333333 500 m 13
 55.5555555556 500 77.7777777778 500 100 500 c 25
 100 466.666666667 100 433.333333333 100 400 c 25
 111.111111111 400 122.222222222 400 133.333333333 400 c 25
 133.333333333 366.666666667 133.333333333 333.333333333 133.333333333 300 c 25
 144.444444444 300 155.555555556 300 166.666666667 300 c 25
 166.666666667 266.666666667 166.666666667 233.333333333 166.666666667 200 c 25
 188.888888889 200 211.111111111 200 233.333333333 200 c 25
 233.333333333 233.333333333 233.333333333 266.666666667 233.333333333 300 c 25
 244.444444444 300 255.555555556 300 266.666666667 300 c 25
 266.666666667 333.333333333 266.666666667 366.666666667 266.666666667 400 c 25
 277.777777778 400 288.888888889 400 300 400 c 25
 300 433.333333333 300 466.666666667 300 500 c 25
 322.222222222 500 344.444444444 500 366.666666667 500 c 25
 366.666666667 466.666666667 366.666666667 433.333333333 366.666666667 400 c 25
 355.555555556 400 344.444444444 400 333.333333333 400 c 25
 333.333333333 366.666666667 333.333333333 333.333333333 333.333333333 300 c 25
 322.222222222 300 311.111111111 300 300 300 c 25
 300 266.666666667 300 233.333333333 300 200 c 25
 288.888888889 200 277.777777778 200 266.666666667 200 c 25
 266.666666667 166.666666667 266.666666667 133.333333333 266.666666667 100 c 25
 255.555555556 100 244.444444444 100 233.333333333 100 c 25
 233.333333333 66.6666666667 233.333333333 33.3333333333 233.333333333 0 c 25
 211.111111111 -0 188.888888889 0 166.666666667 0 c 25
 166.666666667 33.3333333333 166.666666667 66.6666666667 166.666666667 100 c 25
 155.555555556 100 144.444444444 100 133.333333333 100 c 25
 133.333333333 133.333333333 133.333333333 166.666666667 133.333333333 200 c 25
 122.222222222 200 111.111111111 200 100 200 c 25
 100 233.333333333 100 266.666666667 100 300 c 25
 88.8888888889 300 77.7777777778 300 66.6666666667 300 c 25
 66.6666666667 333.333333333 66.6666666667 366.666666667 66.6666666667 400 c 25
 55.5555555556 400 44.4444444444 400 33.3333333333 400 c 25
 33.3333333333 433.333333333 33.3333333333 466.666666667 33.3333333333 500 c 13
EndSplineSet
EndChar

StartChar: w
Encoding: 119 119 76
Width: 390
Flags: HW
HStem: 0 100<200 250 350 400> 480 20G<50 150 450 550>
VStem: 50 100<200 500> 100 100<100 200> 250 100<100 400> 400 100<100 200> 450 100<200 500>
LayerCount: 2
Back
Fore
SplineSet
300 500 m 13
 322.222222222 500 344.444444444 500 366.666666667 500 c 25
 366.666666667 400 366.666666667 300 366.666666667 200 c 25
 355.555555556 200 344.444444444 200 333.333333333 200 c 25
 333.333333333 166.666666667 333.333333333 133.333333333 333.333333333 100 c 25
 322.222222222 100 311.111111111 100 300 100 c 25
 300 66.6666666667 300 33.3333333333 300 0 c 25
 277.777777778 -0 255.555555556 0 233.333333333 0 c 25
 233.333333333 33.3333333333 233.333333333 66.6666666667 233.333333333 100 c 25
 211.111111111 100 188.888888889 100 166.666666667 100 c 25
 166.666666667 66.6666666667 166.666666667 33.3333333333 166.666666667 0 c 25
 144.444444444 -0 122.222222222 0 100 0 c 25
 100 33.3333333333 100 66.6666666667 100 100 c 25
 88.8888888889 100 77.7777777778 100 66.6666666667 100 c 25
 66.6666666667 133.333333333 66.6666666667 166.666666667 66.6666666667 200 c 25
 55.5555555556 200 44.4444444444 200 33.3333333333 200 c 25
 33.3333333333 300 33.3333333333 400 33.3333333333 500 c 25
 55.5555555556 500 77.7777777778 500 100 500 c 25
 100 400 100 300 100 200 c 25
 111.111111111 200 122.222222222 200 133.333333333 200 c 25
 133.333333333 166.666666667 133.333333333 133.333333333 133.333333333 100 c 25
 144.444444444 100 155.555555556 100 166.666666667 100 c 25
 166.666666667 200 166.666666667 300 166.666666667 400 c 25
 188.888888889 400 211.111111111 400 233.333333333 400 c 25
 233.333333333 300 233.333333333 200 233.333333333 100 c 25
 244.444444444 100 255.555555556 100 266.666666667 100 c 25
 266.666666667 133.333333333 266.666666667 166.666666667 266.666666667 200 c 25
 277.777777778 200 288.888888889 200 300 200 c 25
 300 300 300 400 300 500 c 13
EndSplineSet
EndChar

StartChar: x
Encoding: 120 120 77
Width: 390
Flags: HW
HStem: 0 100<50 150 450 550> 200 100<250 350> 400 100<50 150 450 550>
VStem: 50 150<0 100 400 500> 150 100<100 200 300 400> 350 100<100 200 300 400> 400 150<0 100 400 500>
CounterMasks: 1 e0
LayerCount: 2
Back
Fore
SplineSet
33.3333333333 500 m 13
 66.6666666667 500 100 500 133.333333333 500 c 25
 133.333333333 466.666666667 133.333333333 433.333333333 133.333333333 400 c 25
 144.444444444 400 155.555555556 400 166.666666667 400 c 25
 166.666666667 366.666666667 166.666666667 333.333333333 166.666666667 300 c 25
 188.888888889 300 211.111111111 300 233.333333333 300 c 25
 233.333333333 333.333333333 233.333333333 366.666666667 233.333333333 400 c 25
 244.444444444 400 255.555555556 400 266.666666667 400 c 25
 266.666666667 433.333333333 266.666666667 466.666666667 266.666666667 500 c 25
 300 500 333.333333333 500 366.666666667 500 c 25
 366.666666667 466.666666667 366.666666667 433.333333333 366.666666667 400 c 25
 344.444444444 400 322.222222222 400 300 400 c 25
 300 366.666666667 300 333.333333333 300 300 c 25
 288.888888889 300 277.777777778 300 266.666666667 300 c 25
 266.666666667 266.666666667 266.666666667 233.333333333 266.666666667 200 c 25
 277.777777778 200 288.888888889 200 300 200 c 25
 300 166.666666667 300 133.333333333 300 100 c 25
 322.222222222 100 344.444444444 100 366.666666667 100 c 25
 366.666666667 66.6666666667 366.666666667 33.3333333333 366.666666667 0 c 25
 333.333333333 -0 300 0 266.666666667 0 c 25
 266.666666667 33.3333333333 266.666666667 66.6666666667 266.666666667 100 c 25
 255.555555556 100 244.444444444 100 233.333333333 100 c 25
 233.333333333 133.333333333 233.333333333 166.666666667 233.333333333 200 c 25
 211.111111111 200 188.888888889 200 166.666666667 200 c 25
 166.666666667 166.666666667 166.666666667 133.333333333 166.666666667 100 c 25
 155.555555556 100 144.444444444 100 133.333333333 100 c 25
 133.333333333 66.6666666667 133.333333333 33.3333333333 133.333333333 0 c 25
 100 -0 66.6666666667 0 33.3333333333 0 c 25
 33.3333333333 33.3333333333 33.3333333333 66.6666666667 33.3333333333 100 c 25
 55.5555555556 100 77.7777777778 100 100 100 c 25
 100 133.333333333 100 166.666666667 100 200 c 25
 111.111111111 200 122.222222222 200 133.333333333 200 c 25
 133.333333333 233.333333333 133.333333333 266.666666667 133.333333333 300 c 25
 122.222222222 300 111.111111111 300 100 300 c 25
 100 333.333333333 100 366.666666667 100 400 c 25
 77.7777777778 400 55.5555555556 400 33.3333333333 400 c 25
 33.3333333333 433.333333333 33.3333333333 466.666666667 33.3333333333 500 c 13
EndSplineSet
EndChar

StartChar: y
Encoding: 121 121 78
Width: 390
Flags: HW
HStem: -200 100<100 200> 400 100<100 150 500 550>
VStem: 100 100<400 500> 150 100<300 400> 200 100<-100 0 200 300> 250 150<100 200> 250 100<0 100> 350 100<200 300> 400 100<300 400> 450 100<400 500>
LayerCount: 2
Back
Fore
SplineSet
66.6666666667 500 m 13
 88.8888888889 500 111.111111111 500 133.333333333 500 c 25
 133.333333333 466.666666667 133.333333333 433.333333333 133.333333333 400 c 25
 144.444444444 400 155.555555556 400 166.666666667 400 c 25
 166.666666667 366.666666667 166.666666667 333.333333333 166.666666667 300 c 25
 177.777777778 300 188.888888889 300 200 300 c 25
 200 266.666666667 200 233.333333333 200 200 c 25
 211.111111111 200 222.222222222 200 233.333333333 200 c 25
 233.333333333 233.333333333 233.333333333 266.666666667 233.333333333 300 c 25
 244.444444444 300 255.555555556 300 266.666666667 300 c 25
 266.666666667 333.333333333 266.666666667 366.666666667 266.666666667 400 c 25
 277.777777778 400 288.888888889 400 300 400 c 25
 300 433.333333333 300 466.666666667 300 500 c 25
 322.222222222 500 344.444444444 500 366.666666667 500 c 25
 366.666666667 466.666666667 366.666666667 433.333333333 366.666666667 400 c 25
 355.555555556 400 344.444444444 400 333.333333333 400 c 25
 333.333333333 366.666666667 333.333333333 333.333333333 333.333333333 300 c 25
 322.222222222 300 311.111111111 300 300 300 c 25
 300 266.666666667 300 233.333333333 300 200 c 25
 288.888888889 200 277.777777778 200 266.666666667 200 c 25
 266.666666667 166.666666667 266.666666667 133.333333333 266.666666667 100 c 25
 255.555555556 100 244.444444444 100 233.333333333 100 c 25
 233.333333333 66.6666666667 233.333333333 33.3333333333 233.333333333 0 c 25
 222.222222222 -0 211.111111111 0 200 0 c 25
 200 -33.3333333333 200 -66.6666666667 200 -100 c 25
 188.888888889 -100 177.777777778 -100 166.666666667 -100 c 25
 166.666666667 -133.333333333 166.666666667 -166.666666667 166.666666667 -200 c 25
 133.333333333 -200 100 -200 66.6666666667 -200 c 25
 66.6666666667 -166.666666667 66.6666666667 -133.333333333 66.6666666667 -100 c 25
 88.8888888889 -100 111.111111111 -100 133.333333333 -100 c 25
 133.333333333 -66.6666666667 133.333333333 -33.3333333333 133.333333333 0 c 25
 144.444444444 -0 155.555555556 0 166.666666667 0 c 25
 166.666666667 66.6666666667 166.666666667 133.333333333 166.666666667 200 c 25
 155.555555556 200 144.444444444 200 133.333333333 200 c 25
 133.333333333 233.333333333 133.333333333 266.666666667 133.333333333 300 c 25
 122.222222222 300 111.111111111 300 100 300 c 25
 100 333.333333333 100 366.666666667 100 400 c 25
 88.8888888889 400 77.7777777778 400 66.6666666667 400 c 25
 66.6666666667 433.333333333 66.6666666667 466.666666667 66.6666666667 500 c 13
EndSplineSet
EndChar

StartChar: z
Encoding: 122 122 79
Width: 390
Flags: HW
HStem: 0 100<100 200 300 500> 400 100<100 300 400 500>
VStem: 200 100<100 200> 250 100<200 300> 300 100<300 400>
LayerCount: 2
Back
Fore
SplineSet
66.6666666667 500 m 13
 155.555555556 500 244.444444444 500 333.333333333 500 c 25
 333.333333333 466.666666667 333.333333333 433.333333333 333.333333333 400 c 25
 311.111111111 400 288.888888889 400 266.666666667 400 c 25
 266.666666667 366.666666667 266.666666667 333.333333333 266.666666667 300 c 25
 255.555555556 300 244.444444444 300 233.333333333 300 c 25
 233.333333333 266.666666667 233.333333333 233.333333333 233.333333333 200 c 25
 222.222222222 200 211.111111111 200 200 200 c 25
 200 166.666666667 200 133.333333333 200 100 c 25
 244.444444444 100 288.888888889 100 333.333333333 100 c 25
 333.333333333 66.6666666667 333.333333333 33.3333333333 333.333333333 0 c 25
 244.444444444 -0 155.555555556 0 66.6666666667 0 c 25
 66.6666666667 33.3333333333 66.6666666667 66.6666666667 66.6666666667 100 c 25
 88.8888888889 100 111.111111111 100 133.333333333 100 c 25
 133.333333333 133.333333333 133.333333333 166.666666667 133.333333333 200 c 25
 144.444444444 200 155.555555556 200 166.666666667 200 c 25
 166.666666667 233.333333333 166.666666667 266.666666667 166.666666667 300 c 25
 177.777777778 300 188.888888889 300 200 300 c 25
 200 333.333333333 200 366.666666667 200 400 c 25
 155.555555556 400 111.111111111 400 66.6666666667 400 c 25
 66.6666666667 433.333333333 66.6666666667 466.666666667 66.6666666667 500 c 13
EndSplineSet
EndChar

StartChar: edieresis
Encoding: 235 235 82
Width: 390
Flags: HW
HStem: 0 100<200 500> 200 100<200 450> 400 100<200 450> 600 100<150 250 400 500>
VStem: 100 100<100 200 300 400> 150 100<600 700> 400 100<600 700> 450 100<300 400>
LayerCount: 2
Back
Fore
SplineSet
266.666666667 700 m 9
 288.888888889 700 311.111111111 700 333.333333333 700 c 25
 333.333333333 666.666666667 333.333333333 633.333333333 333.333333333 600 c 25
 311.111111111 600 288.888888889 600 266.666666667 600 c 25
 266.666666667 633.333333333 266.666666667 666.666666667 266.666666667 700 c 9
100 700 m 9
 122.222222222 700 144.444444444 700 166.666666667 700 c 25
 166.666666667 666.666666667 166.666666667 633.333333333 166.666666667 600 c 25
 144.444444444 600 122.222222222 600 100 600 c 25
 100 633.333333333 100 666.666666667 100 700 c 9
133.333333333 400 m 1
 133.333333333 366.666666667 133.333333333 333.333333333 133.333333333 300 c 1
 188.888888889 300 244.444444444 300 300 300 c 1
 300 333.333333333 300 366.666666667 300 400 c 1
 244.444444444 400 188.888888889 400 133.333333333 400 c 1
100 400 m 1
 100.222222222 433.333333333 100.444444444 466.666666667 100.666666667 500 c 1
 178 500 255.333333333 500 332.666666667 500 c 1
 332.888888889 466.666666667 333.111111111 433.333333333 333.333333333 400 c 25
 344.444444444 400 355.555555556 400 366.666666667 400 c 25
 366.666666667 333.333333333 366.666666667 266.666666667 366.666666667 200 c 1
 288.888888889 200 211.111111111 200 133.333333333 200 c 1
 133.333333333 166.666666667 133.333333333 133.333333333 133.333333333 100 c 1
 200 100 266.666666667 100 333.333333333 100 c 1
 333.333333333 66.6666666667 333.333333333 33.3333333333 333.333333333 0 c 1
 255.555555556 -0 177.777777778 0 100 0 c 1
 100 33.3333333333 100 66.6666666667 100 100 c 1
 88.8888888889 100 77.7777777778 100 66.6666666667 100 c 1
 66.6666666667 200 66.6666666667 300 66.6666666667 400 c 5
 77.7777777778 400 88.8888888889 400 100 400 c 1
EndSplineSet
EndChar

StartChar: uni0401
Encoding: 1025 1025 97
Width: 390
Flags: HW
HStem: 0 100<200 550> 300 100<200 450> 500 100<200 550> 700 100<150 250 400 500>
VStem: 100 100<100 300 400 500> 150 100<700 800> 400 100<700 800>
LayerCount: 2
Back
Fore
SplineSet
266.666666667 700 m 9
 266.666666667 733.333333333 266.666666667 766.666666667 266.666666667 800 c 25
 288.888888889 800 311.111111111 800 333.333333333 800 c 25
 333.333333333 766.666666667 333.333333333 733.333333333 333.333333333 700 c 25
 311.111111111 700 288.888888889 700 266.666666667 700 c 9
100 700 m 9
 100 733.333333333 100 766.666666667 100 800 c 25
 122.222222222 800 144.444444444 800 166.666666667 800 c 25
 166.666666667 766.666666667 166.666666667 733.333333333 166.666666667 700 c 25
 144.444444444 700 122.222222222 700 100 700 c 9
366.666666667 500 m 1
 288.888888889 500 211.111111111 500 133.333333333 500 c 1
 133.333333333 466.666666667 133.333333333 433.333333333 133.333333333 400 c 1
 188.888888889 400 244.444444444 400 300 400 c 25
 300 366.666666667 300 333.333333333 300 300 c 25
 244.444444444 300 188.888888889 300 133.333333333 300 c 25
 133.333333333 233.333333333 133.333333333 166.666666667 133.333333333 100 c 25
 211.111111111 100 288.888888889 100 366.666666667 100 c 25
 366.666666667 66.6666666667 366.666666667 33.3333333333 366.666666667 0 c 25
 266.666666667 -0 166.666666667 0 66.6666666667 0 c 1
 66.6666666667 200 66.6666666667 400 66.6666666667 600 c 1
 166.666666667 600 266.666666667 600 366.666666667 600 c 1
 366.666666667 566.666666667 366.666666667 533.333333333 366.666666667 500 c 1
EndSplineSet
EndChar

StartChar: uni0404
Encoding: 1028 1028 100
Width: 390
Flags: HW
HStem: 0 100<200 400> 100 100<450 500> 300 100<150 350> 500 100<450 500> 600 100<200 400>
VStem: 50 100<200 300 400 500> 100 100<100 200 500 600> 150 300<0 100 600 700> 400 100<100 200 500 600>
LayerCount: 2
Back
Fore
SplineSet
133.333333333 500 m 13
 122.222222222 500 111.111111111 500 100 500 c 25
 100 466.666666667 100 433.333333333 100 400 c 25
 144.444444444 400 188.888888889 400 233.333333333 400 c 25
 233.333333333 366.666666667 233.333333333 333.333333333 233.333333333 300 c 25
 188.888888889 300 144.444444444 300 100 300 c 25
 100 266.666666667 100 233.333333333 100 200 c 25
 111.111111111 200 122.222222222 200 133.333333333 200 c 25
 133.333333333 166.666666667 133.333333333 133.333333333 133.333333333 100 c 25
 177.777777778 100 222.222222222 100 266.666666667 100 c 25
 266.666666667 133.333333333 266.666666667 166.666666667 266.666666667 200 c 25
 288.888888889 200 311.111111111 200 333.333333333 200 c 25
 333.333333333 166.666666667 333.333333333 133.333333333 333.333333333 100 c 25
 322.222222222 100 311.111111111 100 300 100 c 25
 300 66.6666666667 300 33.3333333333 300 0 c 25
 233.333333333 -0 166.666666667 0 100 0 c 25
 100 33.3333333333 100 66.6666666667 100 100 c 25
 88.8888888889 100 77.7777777778 100 66.6666666667 100 c 25
 66.6666666667 133.333333333 66.6666666667 166.666666667 66.6666666667 200 c 25
 55.5555555556 200 44.4444444444 200 33.3333333333 200 c 25
 33.3333333333 300 33.3333333333 400 33.3333333333 500 c 25
 44.4444444444 500 55.5555555556 500 66.6666666667 500 c 25
 66.6666666667 533.333333333 66.6666666667 566.666666667 66.6666666667 600 c 25
 77.7777777778 600 88.8888888889 600 100 600 c 25
 100 633.333333333 100 666.666666667 100 700 c 25
 166.666666667 700 233.333333333 700 300 700 c 25
 300 666.666666667 300 633.333333333 300 600 c 25
 311.111111111 600 322.222222222 600 333.333333333 600 c 25
 333.333333333 566.666666667 333.333333333 533.333333333 333.333333333 500 c 25
 311.111111111 500 288.888888889 500 266.666666667 500 c 25
 266.666666667 533.333333333 266.666666667 566.666666667 266.666666667 600 c 25
 222.222222222 600 177.777777778 600 133.333333333 600 c 25
 133.333333333 566.666666667 133.333333333 533.333333333 133.333333333 500 c 13
EndSplineSet
EndChar

StartChar: uni0406
Encoding: 1030 1030 102
Width: 390
Flags: HW
HStem: 0 100<100 250 350 500> 600 100<100 250 350 500>
VStem: 250 100<100 600>
LayerCount: 2
Back
Fore
SplineSet
66.6666666667 700 m 13
 155.555555556 700 244.444444444 700 333.333333333 700 c 25
 333.333333333 666.666666667 333.333333333 633.333333333 333.333333333 600 c 25
 300 600 266.666666667 600 233.333333333 600 c 25
 233.333333333 433.333333333 233.333333333 266.666666667 233.333333333 100 c 25
 266.666666667 100 300 100 333.333333333 100 c 25
 333.333333333 66.6666666667 333.333333333 33.3333333333 333.333333333 0 c 25
 244.444444444 -0 155.555555556 0 66.6666666667 0 c 25
 66.6666666667 33.3333333333 66.6666666667 66.6666666667 66.6666666667 100 c 25
 100 100 133.333333333 100 166.666666667 100 c 25
 166.666666667 266.666666667 166.666666667 433.333333333 166.666666667 600 c 25
 133.333333333 600 100 600 66.6666666667 600 c 25
 66.6666666667 633.333333333 66.6666666667 666.666666667 66.6666666667 700 c 13
EndSplineSet
EndChar

StartChar: uni0407
Encoding: 1031 1031 103
Width: 390
Flags: HMW
LayerCount: 2
Back
Fore
SplineSet
233.333333333 650 m 13
 233.333333333 683.333333333 233.333333333 716.666666667 233.333333333 750 c 25
 255.555555556 750 277.777777778 750 300 750 c 25
 300 716.666666667 300 683.333333333 300 650 c 25
 277.777777778 650 255.555555556 650 233.333333333 650 c 13
100 650 m 9
 100 683.333333333 100 716.666666667 100 750 c 25
 122.222222222 750 144.444444444 750 166.666666667 750 c 25
 166.666666667 716.666666667 166.666666667 683.333333333 166.666666667 650 c 25
 144.444444444 650 122.222222222 650 100 650 c 9
66.6666666667 500 m 9
 66.6666666667 533.333333333 66.6666666667 566.666666667 66.6666666667 600 c 25
 155.555555556 600 244.444444444 600 333.333333333 600 c 25
 333.333333333 566.666666667 333.333333333 533.333333333 333.333333333 500 c 25
 300 500 266.666666667 500 233.333333333 500 c 25
 233.333333333 366.666666667 233.333333333 233.333333333 233.333333333 100 c 25
 266.666666667 100 300 100 333.333333333 100 c 25
 333.333333333 66.6666666667 333.333333333 33.3333333333 333.333333333 0 c 25
 244.444444444 -0 155.555555556 0 66.6666666667 0 c 25
 66.6666666667 33.3333333333 66.6666666667 66.6666666667 66.6666666667 100 c 25
 100 100 133.333333333 100 166.666666667 100 c 25
 166.666666667 233.333333333 166.666666667 366.666666667 166.666666667 500 c 25
 133.333333333 500 100 500 66.6666666667 500 c 9
EndSplineSet
EndChar

StartChar: uni040E
Encoding: 1038 1038 109
Width: 390
Flags: HW
HStem: 0 100<200 450> 100 100<100 150> 300 100<200 450> 680 20G<100 200 450 550> 700 100<300 350>
VStem: 100 100<100 200 400 700> 300 50<700 800> 450 100<100 300 400 700>
CounterMasks: 1 07
LayerCount: 2
Back
Fore
SplineSet
200 700 m 13
 200 733.333333333 200 766.666666667 200 800 c 25
 211.111111111 800 222.222222222 800 233.333333333 800 c 25
 233.333333333 766.666666667 233.333333333 733.333333333 233.333333333 700 c 25
 222.222222222 700 211.111111111 700 200 700 c 13
66.6666666667 700 m 9
 88.8888888889 700 111.111111111 700 133.333333333 700 c 25
 133.333333333 600 133.333333333 500 133.333333333 400 c 25
 188.888888889 400 244.444444444 400 300 400 c 25
 300 500 300 600 300 700 c 25
 322.222222222 700 344.444444444 700 366.666666667 700 c 25
 366.666666667 500 366.666666667 300 366.666666667 100 c 25
 355.555555556 100 344.444444444 100 333.333333333 100 c 25
 333.333333333 66.6666666667 333.333333333 33.3333333333 333.333333333 0 c 25
 255.555555556 -0 177.777777778 0 100 0 c 25
 100 33.3333333333 100 66.6666666667 100 100 c 25
 88.8888888889 100 77.7777777778 100 66.6666666667 100 c 25
 66.6666666667 133.333333333 66.6666666667 166.666666667 66.6666666667 200 c 25
 88.8888888889 200 111.111111111 200 133.333333333 200 c 25
 133.333333333 166.666666667 133.333333333 133.333333333 133.333333333 100 c 25
 188.888888889 100 244.444444444 100 300 100 c 25
 300 166.666666667 300 233.333333333 300 300 c 25
 233.333333333 300 166.666666667 300 100 300 c 25
 100 333.333333333 100 366.666666667 100 400 c 25
 88.8888888889 400 77.7777777778 400 66.6666666667 400 c 25
 66.6666666667 500 66.6666666667 600 66.6666666667 700 c 9
EndSplineSet
EndChar

StartChar: uni0410
Encoding: 1040 1040 111
Width: 390
Flags: HW
HStem: 0 21G<50 150 450 550> 200 100<150 450> 600 100<250 350>
VStem: 50 100<0 200 300 400> 100 100<400 500> 150 100<500 600> 350 100<500 600> 400 100<400 500> 450 100<0 200 300 400>
LayerCount: 2
Back
Fore
SplineSet
100 400 m 13
 100 366.666666667 100 333.333333333 100 300 c 25
 166.666666667 300 233.333333333 300 300 300 c 25
 300 333.333333333 300 366.666666667 300 400 c 25
 288.888888889 400 277.777777778 400 266.666666667 400 c 25
 266.666666667 433.333333333 266.666666667 466.666666667 266.666666667 500 c 25
 255.555555556 500 244.444444444 500 233.333333333 500 c 25
 233.333333333 533.333333333 233.333333333 566.666666667 233.333333333 600 c 25
 211.111111111 600 188.888888889 600 166.666666667 600 c 25
 166.666666667 566.666666667 166.666666667 533.333333333 166.666666667 500 c 25
 155.555555556 500 144.444444444 500 133.333333333 500 c 25
 133.333333333 466.666666667 133.333333333 433.333333333 133.333333333 400 c 25
 122.222222222 400 111.111111111 400 100 400 c 13
100 0 m 9
 77.7777777778 -0 55.5555555556 0 33.3333333333 0 c 25
 33.3333333333 133.333333333 33.3333333333 266.666666667 33.3333333333 400 c 25
 44.4444444444 400 55.5555555556 400 66.6666666667 400 c 25
 66.6666666667 433.333333333 66.6666666667 466.666666667 66.6666666667 500 c 25
 77.7777777778 500 88.8888888889 500 100 500 c 25
 100 533.333333333 100 566.666666667 100 600 c 25
 111.111111111 600 122.222222222 600 133.333333333 600 c 25
 133.333333333 633.333333333 133.333333333 666.666666667 133.333333333 700 c 25
 177.555555556 700 221.777777778 700 266 700 c 25
 266.222222222 666.666666667 266.444444444 633.333333333 266.666666667 600 c 25
 277.777777778 600 288.888888889 600 300 600 c 25
 300 566.666666667 300 533.333333333 300 500 c 25
 311.111111111 500 322.222222222 500 333.333333333 500 c 25
 333.333333333 466.666666667 333.333333333 433.333333333 333.333333333 400 c 25
 344.444444444 400 355.555555556 400 366.666666667 400 c 25
 366.666666667 266.666666667 366.666666667 133.333333333 366.666666667 0 c 25
 344.444444444 -0 322.222222222 0 300 0 c 25
 300 66.6666666667 300 133.333333333 300 200 c 25
 233.333333333 200 166.666666667 200 100 200 c 25
 100 133.333333333 100 66.6666666667 100 0 c 9
EndSplineSet
EndChar

StartChar: uni0411
Encoding: 1041 1041 112
Width: 390
Flags: HW
HStem: 0 100<200 450> 300 100<200 450> 600 100<200 500>
VStem: 100 400<0 100 300 400 600 700> 100 100<100 300 400 600> 450 100<100 300>
CounterMasks: 1 e0
LayerCount: 2
Back
Fore
SplineSet
133.333333333 100 m 13
 188.888888889 100 244.444444444 100 300 100 c 25
 300 166.666666667 300 233.333333333 300 300 c 25
 244.444444444 300 188.888888889 300 133.333333333 300 c 25
 133.333333333 233.333333333 133.333333333 166.666666667 133.333333333 100 c 13
66.6666666667 700 m 9
 155.555555556 700 244.444444444 700 333.333333333 700 c 25
 333.333333333 666.666666667 333.333333333 633.333333333 333.333333333 600 c 25
 266.666666667 600 200 600 133.333333333 600 c 25
 133.333333333 533.333333333 133.333333333 466.666666667 133.333333333 400 c 25
 200 400 266.666666667 400 333.333333333 400 c 25
 333.333333333 366.666666667 333.333333333 333.333333333 333.333333333 300 c 25
 344.444444444 300 355.555555556 300 366.666666667 300 c 25
 366.666666667 233.333333333 366.666666667 166.666666667 366.666666667 100 c 25
 355.555555556 100 344.444444444 100 333.333333333 100 c 25
 333.333333333 66.6666666667 333.333333333 33.3333333333 333.333333333 0 c 25
 244.444444444 -0 155.555555556 0 66.6666666667 0 c 25
 66.6666666667 233.333333333 66.6666666667 466.666666667 66.6666666667 700 c 9
EndSplineSet
EndChar

StartChar: uni0412
Encoding: 1042 1042 113
Width: 390
Flags: HW
HStem: 0 100<200 450> 300 100<200 450> 600 100<200 450>
VStem: 100 400<0 100 300 400 600 700> 100 100<100 300 400 600> 450 100<100 300 400 600>
CounterMasks: 1 e0
LayerCount: 2
Back
Fore
SplineSet
133.333333333 600 m 13
 133.333333333 533.333333333 133.333333333 466.666666667 133.333333333 400 c 25
 188.888888889 400 244.444444444 400 300 400 c 25
 300 466.666666667 300 533.333333333 300 600 c 25
 244.444444444 600 188.888888889 600 133.333333333 600 c 13
133.333333333 300 m 9
 133.333333333 233.333333333 133.333333333 166.666666667 133.333333333 100 c 25
 188.888888889 100 244.444444444 100 300 100 c 25
 300 166.666666667 300 233.333333333 300 300 c 25
 244.444444444 300 188.888888889 300 133.333333333 300 c 9
66.6666666667 0 m 9
 66.6666666667 233.333333333 66.6666666667 466.666666667 66.6666666667 700 c 25
 155.555555556 700 244.444444444 700 333.333333333 700 c 25
 333.333333333 666.666666667 333.333333333 633.333333333 333.333333333 600 c 25
 344.444444444 600 355.555555556 600 366.666666667 600 c 25
 366.666666667 533.333333333 366.666666667 466.666666667 366.666666667 400 c 25
 355.555555556 400 344.444444444 400 333.333333333 400 c 25
 333.333333333 366.666666667 333.333333333 333.333333333 333.333333333 300 c 25
 344.444444444 300 355.555555556 300 366.666666667 300 c 25
 366.666666667 233.333333333 366.666666667 166.666666667 366.666666667 100 c 25
 355.555555556 100 344.444444444 100 333.333333333 100 c 25
 333.333333333 66.6666666667 333.333333333 33.3333333333 333.333333333 0 c 25
 244.444444444 -0 155.555555556 0 66.6666666667 0 c 9
EndSplineSet
EndChar

StartChar: uni0413
Encoding: 1043 1043 114
Width: 390
Flags: HW
HStem: 0 21G<100 200> 600 100<200 550>
VStem: 100 100<0 600>
LayerCount: 2
Back
Fore
SplineSet
66.6666666667 700 m 13
 166.666666667 700 266.666666667 700 366.666666667 700 c 25
 366.666666667 666.666666667 366.666666667 633.333333333 366.666666667 600 c 25
 288.888888889 600 211.111111111 600 133.333333333 600 c 25
 133.333333333 400 133.333333333 200 133.333333333 0 c 25
 111.111111111 -0 88.8888888889 0 66.6666666667 0 c 25
 66.6666666667 233.333333333 66.6666666667 466.666666667 66.6666666667 700 c 13
EndSplineSet
EndChar

StartChar: uni0414
Encoding: 1044 1044 115
Width: 390
Flags: HW
HStem: 0 100<250 400> 600 100<300 400>
VStem: 100 100<-100 0> 150 100<100 500> 200 100<500 600> 400 100<100 600> 450 100<-100 0>
LayerCount: 2
Back
Fore
SplineSet
200 600 m 13
 200 566.666666667 200 533.333333333 200 500 c 25
 188.888888889 500 177.777777778 500 166.666666667 500 c 25
 166.666666667 366.666666667 166.666666667 233.333333333 166.666666667 100 c 25
 200 100 233.333333333 100 266.666666667 100 c 25
 266.666666667 266.666666667 266.666666667 433.333333333 266.666666667 600 c 25
 244.444444444 600 222.222222222 600 200 600 c 13
133.333333333 500 m 9
 133.333333333 533.333333333 133.333333333 566.666666667 133.333333333 600 c 25
 144.444444444 600 155.555555556 600 166.666666667 600 c 25
 166.666666667 633.333333333 166.666666667 666.666666667 166.666666667 700 c 25
 222.222222222 700 277.777777778 700 333.333333333 700 c 25
 333.333333333 500 333.333333333 300 333.333333333 100 c 25
 344.444444444 100 355.555555556 100 366.666666667 100 c 25
 366.666666667 33.3333333333 366.666666667 -33.3333333333 366.666666667 -100 c 25
 344.444444444 -100 322.222222222 -100 300 -100 c 25
 300 -66.6666666667 300 -33.3333333333 300 0 c 25
 244.444444444 -0 188.888888889 0 133.333333333 0 c 25
 133.333333333 -33.3333333333 133.333333333 -66.6666666667 133.333333333 -100 c 25
 111.111111111 -100 88.8888888889 -100 66.6666666667 -100 c 25
 66.6666666667 -33.3333333333 66.6666666667 33.3333333333 66.6666666667 100 c 25
 77.7777777778 100 88.8888888889 100 100 100 c 25
 100 233.333333333 100 366.666666667 100 500 c 25
 111.111111111 500 122.222222222 500 133.333333333 500 c 9
EndSplineSet
EndChar

StartChar: uni0415
Encoding: 1045 1045 116
Width: 390
Flags: HW
HStem: 0 100<200 550> 300 100<200 450> 600 100<200 550>
VStem: 100 100<100 300 400 600>
CounterMasks: 1 e0
LayerCount: 2
Back
Fore
SplineSet
366.666666667 600 m 13
 288.888888889 600 211.111111111 600 133.333333333 600 c 29
 133.333333333 533.333333333 133.333333333 466.666666667 133.333333333 400 c 29
 188.888888889 400 244.444444444 400 300 400 c 29
 300 366.666666667 300 333.333333333 300 300 c 29
 244.444444444 300 188.888888889 300 133.333333333 300 c 29
 133.333333333 233.333333333 133.333333333 166.666666667 133.333333333 100 c 29
 211.111111111 100 288.888888889 100 366.666666667 100 c 29
 366.666666667 66.6666666667 366.666666667 33.3333333333 366.666666667 0 c 29
 266.666666667 -0 166.666666667 0 66.6666666667 0 c 29
 66.6666666667 233.333333333 66.6666666667 466.666666667 66.6666666667 700 c 29
 166.666666667 700 266.666666667 700 366.666666667 700 c 29
 366.666666667 666.666666667 366.666666667 633.333333333 366.666666667 600 c 13
EndSplineSet
EndChar

StartChar: uni0416
Encoding: 1046 1046 117
Width: 390
Flags: HW
HStem: 0 21G<50 150 250 350 450 550> 300 100<200 250 350 400> 680 20G<50 149.1 250 350 450 550>
VStem: 50 100<0 200 500 700> 100 100<200 300 400 500> 250 100<0 300 400 700> 400 100<200 300 400 500> 450 100<0 200 500 700>
LayerCount: 2
Back
Fore
SplineSet
33.3333333333 700 m 13
 55.3333333333 700 77.3333333333 700 99.3333333333 700 c 25
 99.5555555556 633.333333333 99.7777777778 566.666666667 100 500 c 25
 110.888888889 500 121.777777778 500 132.666666667 500 c 25
 132.888888889 466.666666667 133.111111111 433.333333333 133.333333333 400 c 25
 144.444444444 400 155.555555556 400 166.666666667 400 c 25
 166.666666667 500 166.666666667 600 166.666666667 700 c 25
 188.888888889 700 211.111111111 700 233.333333333 700 c 25
 233.333333333 600 233.333333333 500 233.333333333 400 c 25
 244.444444444 400 255.555555556 400 266.666666667 400 c 25
 266.666666667 433.333333333 266.666666667 466.666666667 266.666666667 500 c 25
 277.777777778 500 288.888888889 500 300 500 c 25
 300 566.666666667 300 633.333333333 300 700 c 25
 322.222222222 700 344.444444444 700 366.666666667 700 c 25
 366.666666667 633.333333333 366.666666667 566.666666667 366.666666667 500 c 25
 355.555555556 500 344.444444444 500 333.333333333 500 c 25
 333.333333333 466.666666667 333.333333333 433.333333333 333.333333333 400 c 25
 322.222222222 400 311.111111111 400 300 400 c 25
 299.777777778 366.666666667 299.555555556 333.333333333 299.333333333 300 c 25
 310.666666667 300 322 300 333.333333333 300 c 25
 333.333333333 266.666666667 333.333333333 233.333333333 333.333333333 200 c 25
 344.444444444 200 355.555555556 200 366.666666667 200 c 25
 366.666666667 133.333333333 366.666666667 66.6666666667 366.666666667 0 c 25
 344.444444444 -0 322.222222222 0 300 0 c 25
 300 66.6666666667 300 133.333333333 300 200 c 25
 288.888888889 200 277.777777778 200 266.666666667 200 c 25
 266.666666667 233.333333333 266.666666667 266.666666667 266.666666667 300 c 25
 255.555555556 300 244.444444444 300 233.333333333 300 c 25
 233.333333333 200 233.333333333 100 233.333333333 0 c 25
 211.111111111 -0 188.888888889 0 166.666666667 0 c 25
 166.666666667 100 166.666666667 200 166.666666667 300 c 25
 155.555555556 300 144.444444444 300 133.333333333 300 c 25
 133.333333333 266.666666667 133.333333333 233.333333333 133.333333333 200 c 25
 122.222222222 200 111.111111111 200 100 200 c 25
 100 133.333333333 100 66.6666666667 100 0 c 25
 77.7777777778 -0 55.5555555556 0 33.3333333333 0 c 25
 33.3333333333 66.6666666667 33.3333333333 133.333333333 33.3333333333 200 c 25
 44.4444444444 200 55.5555555556 200 66.6666666667 200 c 25
 66.6666666667 233.333333333 66.6666666667 266.666666667 66.6666666667 300 c 25
 77.7777777778 300 88.8888888889 300 100 300 c 25
 100 333.333333333 100 366.666666667 100 400 c 25
 88.8888888889 400 77.7777777778 400 66.6666666667 400 c 25
 66.6666666667 433.333333333 66.6666666667 466.666666667 66.6666666667 500 c 25
 55.5555555556 500 44.4444444444 500 33.3333333333 500 c 25
 33.3333333333 566.666666667 33.3333333333 633.333333333 33.3333333333 700 c 13
EndSplineSet
EndChar

StartChar: uni0417
Encoding: 1047 1047 118
Width: 390
Flags: HW
HStem: 0 100<200 450> 100 100<100 150> 300 100<250 450> 500 100<100 150> 600 100<200 450>
VStem: 100 100<100 200 500 600> 450 100<100 300 400 600>
LayerCount: 2
Back
Fore
SplineSet
66.6666666667 500 m 13
 66.6666666667 533.333333333 66.6666666667 566.666666667 66.6666666667 600 c 1
 77.7777777778 600 88.8888888889 600 100 600 c 25
 100 633.333333333 100 666.666666667 100 700 c 25
 177.777777778 700 255.555555556 700 333.333333333 700 c 25
 333.333333333 666.666666667 333.333333333 633.333333333 333.333333333 600 c 25
 344.444444444 600 355.555555556 600 366.666666667 600 c 25
 366.666666667 533.333333333 366.666666667 466.666666667 366.666666667 400 c 25
 355.555555556 400 344.444444444 400 333.333333333 400 c 25
 333.333333333 366.666666667 333.333333333 333.333333333 333.333333333 300 c 25
 344.444444444 300 355.555555556 300 366.666666667 300 c 25
 366.666666667 233.333333333 366.666666667 166.666666667 366.666666667 100 c 25
 355.555555556 100 344.444444444 100 333.333333333 100 c 25
 333.333333333 66.6666666667 333.333333333 33.3333333333 333.333333333 0 c 25
 255.555555556 -0 177.777777778 0 100 0 c 25
 100 33.3333333333 100 66.6666666667 100 100 c 25
 88.8888888889 100 77.7777777778 100 66.6666666667 100 c 25
 66.6666666667 133.333333333 66.6666666667 166.666666667 66.6666666667 200 c 25
 88.6666666667 200 110.666666667 200 132.666666667 200 c 25
 132.888888889 166.666666667 133.111111111 133.333333333 133.333333333 100 c 25
 188.888888889 100 244.444444444 100 300 100 c 25
 300 166.666666667 300 233.333333333 300 300 c 25
 255.555555556 300 211.111111111 300 166.666666667 300 c 25
 166.666666667 333.333333333 166.666666667 366.666666667 166.666666667 400 c 25
 211.111111111 400 255.555555556 400 300 400 c 25
 300 466.666666667 300 533.333333333 300 600 c 25
 244.444444444 600 188.888888889 600 133.333333333 600 c 25
 133.333333333 566.666666667 133.333333333 533.333333333 133.333333333 500 c 1
 111.111111111 500 88.8888888889 500 66.6666666667 500 c 13
EndSplineSet
EndChar

StartChar: uni0418
Encoding: 1048 1048 119
Width: 390
Flags: HW
HStem: 0 21G<50 200 450 550> 680 20G<50 150 400 550>
VStem: 50 150<0 100> 50 100<200 700> 200 100<200 300> 250 100<300 400> 300 100<400 500> 400 150<600 700> 450 100<0 500>
LayerCount: 2
Back
Fore
SplineSet
33.3333333333 700 m 13
 55.5555555556 700 77.7777777778 700 100 700 c 29
 100 533.333333333 100 366.666666667 100 200 c 29
 111.111111111 200 122.222222222 200 133.333333333 200 c 29
 133.333333333 233.333333333 133.333333333 266.666666667 133.333333333 300 c 29
 144.444444444 300 155.555555556 300 166.666666667 300 c 29
 166.666666667 333.333333333 166.666666667 366.666666667 166.666666667 400 c 29
 177.777777778 400 188.888888889 400 200 400 c 29
 200 433.333333333 200 466.666666667 200 500 c 29
 211.111111111 500 222.222222222 500 233.333333333 500 c 29
 233.333333333 533.333333333 233.333333333 566.666666667 233.333333333 600 c 29
 244.444444444 600 255.555555556 600 266.666666667 600 c 29
 266.666666667 633.333333333 266.666666667 666.666666667 266.666666667 700 c 29
 300 700 333.333333333 700 366.666666667 700 c 29
 366.666666667 466.666666667 366.666666667 233.333333333 366.666666667 0 c 29
 344.444444444 -0 322.222222222 0 300 0 c 29
 300 166.666666667 300 333.333333333 300 500 c 29
 288.888888889 500 277.777777778 500 266.666666667 500 c 29
 266.666666667 466.666666667 266.666666667 433.333333333 266.666666667 400 c 29
 255.555555556 400 244.444444444 400 233.333333333 400 c 29
 233.333333333 366.666666667 233.333333333 333.333333333 233.333333333 300 c 29
 222.222222222 300 211.111111111 300 200 300 c 29
 200 266.666666667 200 233.333333333 200 200 c 29
 188.888888889 200 177.777777778 200 166.666666667 200 c 29
 166.666666667 166.666666667 166.666666667 133.333333333 166.666666667 100 c 29
 155.555555556 100 144.444444444 100 133.333333333 100 c 29
 133.333333333 66.6666666667 133.333333333 33.3333333333 133.333333333 0 c 29
 100 -0 66.6666666667 0 33.3333333333 0 c 29
 33.3333333333 233.333333333 33.3333333333 466.666666667 33.3333333333 700 c 13
EndSplineSet
EndChar

StartChar: uni0419
Encoding: 1049 1049 120
Width: 390
Flags: HW
HStem: 0 21G<50 200 450 550> 680 20G<50 150 400 550> 700 100<250 300>
VStem: 50 150<0 100> 50 100<200 700> 200 100<200 300> 250 100<300 400> 250 50<700 800> 300 100<400 500> 400 150<600 700> 450 100<0 500>
LayerCount: 2
Back
Fore
SplineSet
166.666666667 700 m 13
 166.666666667 733.333333333 166.666666667 766.666666667 166.666666667 800 c 25
 177.777777778 800 188.888888889 800 200 800 c 25
 200 766.666666667 200 733.333333333 200 700 c 25
 188.888888889 700 177.777777778 700 166.666666667 700 c 13
33.3333333333 700 m 9
 55.5555555556 700 77.7777777778 700 100 700 c 25
 100 533.333333333 100 366.666666667 100 200 c 25
 111.111111111 200 122.222222222 200 133.333333333 200 c 25
 133.333333333 233.333333333 133.333333333 266.666666667 133.333333333 300 c 25
 144.444444444 300 155.555555556 300 166.666666667 300 c 25
 166.666666667 333.333333333 166.666666667 366.666666667 166.666666667 400 c 25
 177.777777778 400 188.888888889 400 200 400 c 25
 200 433.333333333 200 466.666666667 200 500 c 25
 211.111111111 500 222.222222222 500 233.333333333 500 c 25
 233.333333333 533.333333333 233.333333333 566.666666667 233.333333333 600 c 25
 244.444444444 600 255.555555556 600 266.666666667 600 c 25
 266.666666667 633.333333333 266.666666667 666.666666667 266.666666667 700 c 25
 300 700 333.333333333 700 366.666666667 700 c 25
 366.666666667 466.666666667 366.666666667 233.333333333 366.666666667 0 c 25
 344.444444444 -0 322.222222222 0 300 0 c 25
 300 166.666666667 300 333.333333333 300 500 c 25
 288.888888889 500 277.777777778 500 266.666666667 500 c 25
 266.666666667 466.666666667 266.666666667 433.333333333 266.666666667 400 c 25
 255.555555556 400 244.444444444 400 233.333333333 400 c 25
 233.333333333 366.666666667 233.333333333 333.333333333 233.333333333 300 c 25
 222.222222222 300 211.111111111 300 200 300 c 25
 200 266.666666667 200 233.333333333 200 200 c 25
 188.888888889 200 177.777777778 200 166.666666667 200 c 25
 166.666666667 166.666666667 166.666666667 133.333333333 166.666666667 100 c 25
 155.555555556 100 144.444444444 100 133.333333333 100 c 25
 133.333333333 66.6666666667 133.333333333 33.3333333333 133.333333333 0 c 25
 100 -0 66.6666666667 0 33.3333333333 0 c 25
 33.3333333333 233.333333333 33.3333333333 466.666666667 33.3333333333 700 c 9
EndSplineSet
EndChar

StartChar: uni041A
Encoding: 1050 1050 121
Width: 390
Flags: HW
HStem: 0 100<450 550> 200 100<300 350> 300 100<200 250> 400 100<300 350> 600 100<450 550>
VStem: 100 100<0 300 400 700> 250 150<200 300 400 500> 350 100<100 200 500 600> 400 150<0 100 600 700>
LayerCount: 2
Back
Fore
SplineSet
66.6666666667 700 m 13
 88.8888888889 700 111.111111111 700 133.333333333 700 c 25
 133.333333333 600 133.333333333 500 133.333333333 400 c 25
 144.444444444 400 155.555555556 400 166.666666667 400 c 25
 166.666666667 433.333333333 166.666666667 466.666666667 166.666666667 500 c 25
 188.888888889 500 211.111111111 500 233.333333333 500 c 25
 233.333333333 533.333333333 233.333333333 566.666666667 233.333333333 600 c 25
 244.444444444 600 255.555555556 600 266.666666667 600 c 25
 266.666666667 633.333333333 266.666666667 666.666666667 266.666666667 700 c 25
 300 700 333.333333333 700 366.666666667 700 c 25
 366.666666667 666.666666667 366.666666667 633.333333333 366.666666667 600 c 25
 344.444444444 600 322.222222222 600 300 600 c 25
 300 566.666666667 300 533.333333333 300 500 c 25
 288.888888889 500 277.777777778 500 266.666666667 500 c 25
 266.666666667 466.666666667 266.666666667 433.333333333 266.666666667 400 c 25
 244.444444444 400 222.222222222 400 200 400 c 25
 200 366.666666667 200 333.333333333 200 300 c 25
 222.222222222 300 244.444444444 300 266.666666667 300 c 25
 266.666666667 266.666666667 266.666666667 233.333333333 266.666666667 200 c 25
 277.777777778 200 288.888888889 200 300 200 c 25
 300 166.666666667 300 133.333333333 300 100 c 25
 322.222222222 100 344.444444444 100 366.666666667 100 c 25
 366.666666667 66.6666666667 366.666666667 33.3333333333 366.666666667 0 c 25
 333.333333333 -0 300 0 266.666666667 0 c 25
 266.666666667 33.3333333333 266.666666667 66.6666666667 266.666666667 100 c 25
 255.555555556 100 244.444444444 100 233.333333333 100 c 25
 233.333333333 133.333333333 233.333333333 166.666666667 233.333333333 200 c 25
 211.111111111 200 188.888888889 200 166.666666667 200 c 25
 166.666666667 233.333333333 166.666666667 266.666666667 166.666666667 300 c 25
 155.555555556 300 144.444444444 300 133.333333333 300 c 25
 133.333333333 200 133.333333333 100 133.333333333 0 c 25
 111.111111111 -0 88.8888888889 0 66.6666666667 0 c 25
 66.6666666667 233.333333333 66.6666666667 466.666666667 66.6666666667 700 c 13
EndSplineSet
EndChar

StartChar: uni041B
Encoding: 1051 1051 122
Width: 390
Flags: HW
HStem: 0 100<100 150> 600 100<300 450>
VStem: 100 100<0 100> 150 100<100 200> 200 100<200 600> 450 100<0 600>
LayerCount: 2
Back
Fore
SplineSet
66.6666666667 0 m 13
 66.6666666667 33.3333333333 66.6666666667 66.6666666667 66.6666666667 100 c 25
 77.7777777778 100 88.8888888889 100 100 100 c 25
 100 133.333333333 100 166.666666667 100 200 c 25
 111.111111111 200 122.222222222 200 133.333333333 200 c 25
 133.333333333 333.333333333 133.333333333 466.666666667 133.333333333 600 c 25
 144.444444444 600 155.555555556 600 166.666666667 600 c 25
 166.666666667 633.333333333 166.666666667 666.666666667 166.666666667 700 c 25
 233.333333333 700 300 700 366.666666667 700 c 25
 366.666666667 466.666666667 366.666666667 233.333333333 366.666666667 0 c 25
 344.444444444 -0 322.222222222 0 300 0 c 25
 300 200 300 400 300 600 c 25
 266.666666667 600 233.333333333 600 200 600 c 25
 200 466.666666667 200 333.333333333 200 200 c 25
 188.888888889 200 177.777777778 200 166.666666667 200 c 25
 166.666666667 166.666666667 166.666666667 133.333333333 166.666666667 100 c 25
 155.555555556 100 144.444444444 100 133.333333333 100 c 25
 133.333333333 66.6666666667 133.333333333 33.3333333333 133.333333333 0 c 25
 111.111111111 -0 88.8888888889 0 66.6666666667 0 c 13
EndSplineSet
EndChar

StartChar: uni041C
Encoding: 1052 1052 123
Width: 390
Flags: HW
HStem: 0 21G<50 150 450 550> 680 20G<50 200 400 550>
VStem: 50 150<600 700> 50 100<0 500> 250 100<300 400> 400 150<600 700> 450 100<0 500>
LayerCount: 2
Back
Fore
SplineSet
100 0 m 13
 77.7777777778 -0 55.5555555556 0 33.3333333333 0 c 25
 33.3333333333 233.333333333 33.3333333333 466.666666667 33.3333333333 700 c 25
 66.6666666667 700 100 700 133.333333333 700 c 25
 133.333333333 666.666666667 133.333333333 633.333333333 133.333333333 600 c 25
 144.444444444 600 155.555555556 600 166.666666667 600 c 25
 166.666666667 566.666666667 166.666666667 533.333333333 166.666666667 500 c 25
 188.888888889 500 211.111111111 500 233.333333333 500 c 25
 233.333333333 533.333333333 233.333333333 566.666666667 233.333333333 600 c 25
 244.444444444 600 255.555555556 600 266.666666667 600 c 25
 266.666666667 633.333333333 266.666666667 666.666666667 266.666666667 700 c 25
 300 700 333.333333333 700 366.666666667 700 c 25
 366.666666667 466.666666667 366.666666667 233.333333333 366.666666667 0 c 25
 344.444444444 -0 322.222222222 0 300 0 c 25
 300 166.666666667 300 333.333333333 300 500 c 25
 288.888888889 500 277.777777778 500 266.666666667 500 c 25
 266.666666667 466.666666667 266.666666667 433.333333333 266.666666667 400 c 25
 255.555555556 400 244.444444444 400 233.333333333 400 c 25
 233.333333333 366.666666667 233.333333333 333.333333333 233.333333333 300 c 25
 211.111111111 300 188.888888889 300 166.666666667 300 c 25
 166.666666667 333.333333333 166.666666667 366.666666667 166.666666667 400 c 25
 155.555555556 400 144.444444444 400 133.333333333 400 c 25
 133.333333333 433.333333333 133.333333333 466.666666667 133.333333333 500 c 25
 122.222222222 500 111.111111111 500 100 500 c 25
 100 333.333333333 100 166.666666667 100 0 c 13
EndSplineSet
EndChar

StartChar: uni041D
Encoding: 1053 1053 124
Width: 390
Flags: HW
HStem: 0 21G<100 200 450 550> 300 100<200 450> 680 20G<100 200 450 550>
VStem: 100 100<0 300 400 700> 450 100<0 300 400 700>
LayerCount: 2
Back
Fore
SplineSet
66.6666666667 700 m 13
 88.8888888889 700 111.111111111 700 133.333333333 700 c 25
 133.333333333 600 133.333333333 500 133.333333333 400 c 25
 188.888888889 400 244.444444444 400 300 400 c 25
 300 500 300 600 300 700 c 25
 322.222222222 700 344.444444444 700 366.666666667 700 c 25
 366.666666667 466.666666667 366.666666667 233.333333333 366.666666667 0 c 25
 344.444444444 -0 322.222222222 0 300 0 c 25
 300 100 300 200 300 300 c 25
 244.444444444 300 188.888888889 300 133.333333333 300 c 25
 133.333333333 200 133.333333333 100 133.333333333 0 c 25
 111.111111111 -0 88.8888888889 0 66.6666666667 0 c 25
 66.6666666667 233.333333333 66.6666666667 466.666666667 66.6666666667 700 c 13
EndSplineSet
EndChar

StartChar: uni041E
Encoding: 1054 1054 125
Width: 390
Flags: HW
HStem: 0 100<200 400> 600 100<200 400>
VStem: 50 100<200 500> 100 100<100 200 500 600> 150 300<0 100 600 700> 400 100<100 200 500 600> 450 100<200 500>
LayerCount: 2
Back
Fore
SplineSet
266.666666667 100 m 13
 266.666666667 133.333333333 266.666666667 166.666666667 266.666666667 200 c 25
 277.777777778 200 288.888888889 200 300 200 c 25
 300 300 300 400 300 500 c 25
 288.888888889 500 277.777777778 500 266.666666667 500 c 25
 266.666666667 533.333333333 266.666666667 566.666666667 266.666666667 600 c 25
 222.222222222 600 177.777777778 600 133.333333333 600 c 25
 133.333333333 566.666666667 133.333333333 533.333333333 133.333333333 500 c 25
 122.222222222 500 111.111111111 500 100 500 c 25
 100 400 100 300 100 200 c 25
 111.111111111 200 122.222222222 200 133.333333333 200 c 25
 133.333333333 166.666666667 133.333333333 133.333333333 133.333333333 100 c 25
 177.777777778 100 222.222222222 100 266.666666667 100 c 13
300 0 m 9
 233.333333333 -0 166.666666667 0 100 0 c 25
 100 33.3333333333 100 66.6666666667 100 100 c 25
 88.8888888889 100 77.7777777778 100 66.6666666667 100 c 25
 66.6666666667 133.333333333 66.6666666667 166.666666667 66.6666666667 200 c 25
 55.5555555556 200 44.4444444444 200 33.3333333333 200 c 25
 33.3333333333 300 33.3333333333 400 33.3333333333 500 c 25
 44.4444444444 500 55.5555555556 500 66.6666666667 500 c 25
 66.6666666667 533.333333333 66.6666666667 566.666666667 66.6666666667 600 c 25
 77.7777777778 600 88.8888888889 600 100 600 c 25
 100 633.333333333 100 666.666666667 100 700 c 25
 166.666666667 700 233.333333333 700 300 700 c 25
 300 666.666666667 300 633.333333333 300 600 c 25
 311.111111111 600 322.222222222 600 333.333333333 600 c 25
 333.333333333 566.666666667 333.333333333 533.333333333 333.333333333 500 c 25
 344.444444444 500 355.555555556 500 366.666666667 500 c 25
 366.666666667 400 366.666666667 300 366.666666667 200 c 25
 355.555555556 200 344.444444444 200 333.333333333 200 c 25
 333.333333333 166.666666667 333.333333333 133.333333333 333.333333333 100 c 25
 322.222222222 100 311.111111111 100 300 100 c 25
 300 66.6666666667 300 33.3333333333 300 0 c 9
EndSplineSet
EndChar

StartChar: uni041F
Encoding: 1055 1055 126
Width: 390
Flags: HW
HStem: 0 21G<100 200 450 550> 600 100<200 450>
VStem: 100 100<0 600> 450 100<0 600>
LayerCount: 2
Back
Fore
SplineSet
66.6666666667 700 m 13
 166.666666667 700 266.666666667 700 366.666666667 700 c 25
 366.666666667 466.666666667 366.666666667 233.333333333 366.666666667 0 c 25
 344.444444444 -0 322.222222222 0 300 0 c 25
 300 200 300 400 300 600 c 25
 244.444444444 600 188.888888889 600 133.333333333 600 c 25
 133.333333333 400 133.333333333 200 133.333333333 0 c 25
 111.111111111 -0 88.8888888889 0 66.6666666667 0 c 25
 66.6666666667 233.333333333 66.6666666667 466.666666667 66.6666666667 700 c 13
EndSplineSet
EndChar

StartChar: uni0420
Encoding: 1056 1056 127
Width: 390
Flags: HW
HStem: 0 21G<100 200> 300 100<200 450> 600 100<200 450>
VStem: 100 100<0 300 400 600> 450 100<400 600>
LayerCount: 2
Back
Fore
SplineSet
133.333333333 600 m 13
 133.333333333 533.333333333 133.333333333 466.666666667 133.333333333 400 c 25
 188.888888889 400 244.444444444 400 300 400 c 25
 300 466.666666667 300 533.333333333 300 600 c 25
 244.444444444 600 188.888888889 600 133.333333333 600 c 13
66.6666666667 700 m 9
 155.555555556 700 244.444444444 700 333.333333333 700 c 25
 333.333333333 683.333333333 333.333333333 666.666666667 333.333333333 650 c 25
 344.444444444 650 355.555555556 650 366.666666667 650 c 25
 366.666666667 566.666666667 366.666666667 483.333333333 366.666666667 400 c 25
 355.555555556 400 344.444444444 400 333.333333333 400 c 25
 333.333333333 366.666666667 333.333333333 333.333333333 333.333333333 300 c 25
 266.666666667 300 200 300 133.333333333 300 c 25
 133.333333333 200 133.333333333 100 133.333333333 0 c 25
 111.111111111 -0 88.8888888889 0 66.6666666667 0 c 25
 66.6666666667 233.333333333 66.6666666667 466.666666667 66.6666666667 700 c 9
EndSplineSet
EndChar

StartChar: uni0421
Encoding: 1057 1057 128
Width: 390
Flags: HW
HStem: 0 100<250 450> 100 100<500 550> 500 100<500 550> 600 100<250 450>
VStem: 100 100<200 500> 150 100<100 200 500 600> 200 300<0 100 600 700> 450 100<100 200 500 600>
LayerCount: 2
Back
Fore
SplineSet
133.333333333 700 m 13
 200 700 266.666666667 700 333.333333333 700 c 25
 333.333333333 666.666666667 333.333333333 633.333333333 333.333333333 600 c 25
 344.444444444 600 355.555555556 600 366.666666667 600 c 25
 366.666666667 566.666666667 366.666666667 533.333333333 366.666666667 500 c 25
 344.444444444 500 322.222222222 500 300 500 c 25
 300 533.333333333 300 566.666666667 300 600 c 25
 255.555555556 600 211.111111111 600 166.666666667 600 c 25
 166.666666667 566.666666667 166.666666667 533.333333333 166.666666667 500 c 25
 155.555555556 500 144.444444444 500 133.333333333 500 c 25
 133.333333333 400 133.333333333 300 133.333333333 200 c 25
 144.444444444 200 155.555555556 200 166.666666667 200 c 25
 166.666666667 166.666666667 166.666666667 133.333333333 166.666666667 100 c 25
 211.111111111 100 255.555555556 100 300 100 c 25
 300 133.333333333 300 166.666666667 300 200 c 25
 322.222222222 200 344.444444444 200 366.666666667 200 c 25
 366.666666667 166.666666667 366.666666667 133.333333333 366.666666667 100 c 25
 355.555555556 100 344.444444444 100 333.333333333 100 c 25
 333.333333333 66.6666666667 333.333333333 33.3333333333 333.333333333 0 c 25
 266.666666667 -0 200 0 133.333333333 0 c 25
 133.333333333 33.3333333333 133.333333333 66.6666666667 133.333333333 100 c 25
 122.222222222 100 111.111111111 100 100 100 c 25
 100 133.333333333 100 166.666666667 100 200 c 25
 88.8888888889 200 77.7777777778 200 66.6666666667 200 c 25
 66.6666666667 300 66.6666666667 400 66.6666666667 500 c 25
 77.7777777778 500 88.8888888889 500 100 500 c 25
 100 533.333333333 100 566.666666667 100 600 c 25
 111.111111111 600 122.222222222 600 133.333333333 600 c 25
 133.333333333 633.333333333 133.333333333 666.666666667 133.333333333 700 c 13
EndSplineSet
EndChar

StartChar: uni0422
Encoding: 1058 1058 129
Width: 390
Flags: HW
HStem: 0 21G<250 350> 600 100<50 250 350 550>
VStem: 250 100<0 600>
LayerCount: 2
Back
Fore
SplineSet
33.3333333333 700 m 1
 144.444444444 700 255.555555556 700 366.666666667 700 c 5
 366.666666667 666.666666667 366.666666667 633.333333333 366.666666667 600 c 1
 322.222222222 600 277.777777778 600 233.333333333 600 c 1
 233.333333333 400 233.333333333 200 233.333333333 0 c 25
 211.111111111 -0 188.888888889 0 166.666666667 0 c 25
 166.666666667 200 166.666666667 400 166.666666667 600 c 1
 122.222222222 600 77.7777777778 600 33.3333333333 600 c 1
 33.3333333333 633.333333333 33.3333333333 666.666666667 33.3333333333 700 c 1
EndSplineSet
EndChar

StartChar: uni0423
Encoding: 1059 1059 130
Width: 390
Flags: HW
HStem: 0 100<200 450> 100 100<100 150> 300 100<200 450> 680 20G<100 200 450 550>
VStem: 100 100<100 200 400 700> 450 100<100 300 400 700>
LayerCount: 2
Back
Fore
SplineSet
66.6666666667 700 m 13
 88.8888888889 700 111.111111111 700 133.333333333 700 c 25
 133.333333333 600 133.333333333 500 133.333333333 400 c 25
 188.888888889 400 244.444444444 400 300 400 c 25
 300 500 300 600 300 700 c 25
 322.222222222 700 344.444444444 700 366.666666667 700 c 25
 366.666666667 500 366.666666667 300 366.666666667 100 c 25
 355.555555556 100 344.444444444 100 333.333333333 100 c 25
 333.333333333 66.6666666667 333.333333333 33.3333333333 333.333333333 0 c 25
 255.555555556 -0 177.777777778 0 100 0 c 25
 100 33.3333333333 100 66.6666666667 100 100 c 25
 88.8888888889 100 77.7777777778 100 66.6666666667 100 c 25
 66.6666666667 133.333333333 66.6666666667 166.666666667 66.6666666667 200 c 25
 88.8888888889 200 111.111111111 200 133.333333333 200 c 25
 133.333333333 166.666666667 133.333333333 133.333333333 133.333333333 100 c 25
 188.888888889 100 244.444444444 100 300 100 c 25
 300 166.666666667 300 233.333333333 300 300 c 25
 233.333333333 300 166.666666667 300 100 300 c 25
 100 333.333333333 100 366.666666667 100 400 c 25
 88.8888888889 400 77.7777777778 400 66.6666666667 400 c 25
 66.6666666667 500 66.6666666667 600 66.6666666667 700 c 13
EndSplineSet
EndChar

StartChar: uni0424
Encoding: 1060 1060 131
Width: 390
Flags: HW
HStem: 0 21G<250 350> 100 100<150 250 350 450> 500 100<150 250 350 450> 680 20G<250 350>
VStem: 50 100<200 500> 250 100<0 100 200 500 600 700> 450 100<200 500>
CounterMasks: 1 0e
LayerCount: 2
Back
Fore
SplineSet
233.333333333 500 m 13
 233.333333333 400 233.333333333 300 233.333333333 200 c 25
 255.555555556 200 277.777777778 200 300 200 c 25
 300 300 300 400 300 500 c 25
 277.777777778 500 255.555555556 500 233.333333333 500 c 13
100 500 m 9
 100 400 100 300 100 200 c 25
 122.222222222 200 144.444444444 200 166.666666667 200 c 25
 166.666666667 300 166.666666667 400 166.666666667 500 c 25
 144.444444444 500 122.222222222 500 100 500 c 9
166.666666667 600 m 9
 166.666666667 633.333333333 166.666666667 666.666666667 166.666666667 700 c 1
 188.888888889 700 211.111111111 700 233.333333333 700 c 25
 233.333333333 666.666666667 233.333333333 633.333333333 233.333333333 600 c 25
 266.666666667 600 300 600 333.333333333 600 c 25
 333.333333333 566.666666667 333.333333333 533.333333333 333.333333333 500 c 25
 344.444444444 500 355.555555556 500 366.666666667 500 c 25
 366.666666667 400 366.666666667 300 366.666666667 200 c 25
 355.555555556 200 344.444444444 200 333.333333333 200 c 25
 333.333333333 166.666666667 333.333333333 133.333333333 333.333333333 100 c 25
 300 100 266.666666667 100 233.333333333 100 c 25
 233.333333333 66.6666666667 233.333333333 33.3333333333 233.333333333 0 c 25
 211.111111111 -0 188.888888889 0 166.666666667 0 c 25
 166.666666667 33.3333333333 166.666666667 66.6666666667 166.666666667 100 c 25
 133.333333333 100 100 100 66.6666666667 100 c 25
 66.6666666667 133.333333333 66.6666666667 166.666666667 66.6666666667 200 c 25
 55.5555555556 200 44.4444444444 200 33.3333333333 200 c 25
 33.3333333333 300 33.3333333333 400 33.3333333333 500 c 25
 44.4444444444 500 55.5555555556 500 66.6666666667 500 c 25
 66.6666666667 533.333333333 66.6666666667 566.666666667 66.6666666667 600 c 1
 100 600 133.333333333 600 166.666666667 600 c 9
EndSplineSet
EndChar

StartChar: uni0425
Encoding: 1061 1061 132
Width: 390
Flags: HW
HStem: 0 100<100 150 450 500> 600 100<100 150 450 500>
VStem: 100 100<0 100 600 700> 150 100<100 200 500 600> 200 200<200 300 400 500> 350 100<100 200 500 600> 400 100<0 100 600 700>
LayerCount: 2
Back
Fore
SplineSet
66.6666666667 700 m 13
 88.8888888889 700 111.111111111 700 133.333333333 700 c 25
 133.333333333 666.666666667 133.333333333 633.333333333 133.333333333 600 c 25
 144.444444444 600 155.555555556 600 166.666666667 600 c 25
 166.666666667 566.666666667 166.666666667 533.333333333 166.666666667 500 c 25
 188.888888889 500 211.111111111 500 233.333333333 500 c 25
 233.333333333 533.333333333 233.333333333 566.666666667 233.333333333 600 c 25
 244.444444444 600 255.555555556 600 266.666666667 600 c 25
 266.666666667 633.333333333 266.666666667 666.666666667 266.666666667 700 c 25
 288.888888889 700 311.111111111 700 333.333333333 700 c 25
 333.333333333 666.666666667 333.333333333 633.333333333 333.333333333 600 c 25
 322.222222222 600 311.111111111 600 300 600 c 25
 300 566.666666667 300 533.333333333 300 500 c 25
 288.888888889 500 277.777777778 500 266.666666667 500 c 25
 266.666666667 466.666666667 266.666666667 433.333333333 266.666666667 400 c 25
 255.555555556 400 244.444444444 400 233.333333333 400 c 25
 233.333333333 366.666666667 233.333333333 333.333333333 233.333333333 300 c 25
 244.444444444 300 255.555555556 300 266.666666667 300 c 25
 266.666666667 266.666666667 266.666666667 233.333333333 266.666666667 200 c 25
 277.777777778 200 288.888888889 200 300 200 c 25
 300 166.666666667 300 133.333333333 300 100 c 25
 311.111111111 100 322.222222222 100 333.333333333 100 c 25
 333.333333333 66.6666666667 333.333333333 33.3333333333 333.333333333 0 c 25
 311.111111111 -0 288.888888889 0 266.666666667 0 c 25
 266.666666667 33.3333333333 266.666666667 66.6666666667 266.666666667 100 c 25
 255.555555556 100 244.444444444 100 233.333333333 100 c 25
 233.333333333 133.333333333 233.333333333 166.666666667 233.333333333 200 c 25
 211.111111111 200 188.888888889 200 166.666666667 200 c 25
 166.666666667 166.666666667 166.666666667 133.333333333 166.666666667 100 c 25
 155.555555556 100 144.444444444 100 133.333333333 100 c 25
 133.333333333 66.6666666667 133.333333333 33.3333333333 133.333333333 0 c 25
 111.111111111 -0 88.8888888889 0 66.6666666667 0 c 25
 66.6666666667 33.3333333333 66.6666666667 66.6666666667 66.6666666667 100 c 25
 77.7777777778 100 88.8888888889 100 100 100 c 25
 100 133.333333333 100 166.666666667 100 200 c 25
 111.111111111 200 122.222222222 200 133.333333333 200 c 25
 133.333333333 233.333333333 133.333333333 266.666666667 133.333333333 300 c 25
 144.444444444 300 155.555555556 300 166.666666667 300 c 25
 166.666666667 333.333333333 166.666666667 366.666666667 166.666666667 400 c 25
 155.555555556 400 144.444444444 400 133.333333333 400 c 25
 133.333333333 433.333333333 133.333333333 466.666666667 133.333333333 500 c 25
 122.222222222 500 111.111111111 500 100 500 c 25
 100 533.333333333 100 566.666666667 100 600 c 25
 88.8888888889 600 77.7777777778 600 66.6666666667 600 c 25
 66.6666666667 633.333333333 66.6666666667 666.666666667 66.6666666667 700 c 13
EndSplineSet
EndChar

StartChar: uni0426
Encoding: 1062 1062 133
Width: 390
Flags: HW
HStem: 0 100<200 350> 680 20G<100 200 350 450>
VStem: 100 100<100 700> 350 100<100 700> 450 100<-100 0>
LayerCount: 2
Back
Fore
SplineSet
66.6666666667 700 m 13
 88.8888888889 700 111.111111111 700 133.333333333 700 c 25
 133.333333333 500 133.333333333 300 133.333333333 100 c 25
 166.666666667 100 200 100 233.333333333 100 c 25
 233.333333333 300 233.333333333 500 233.333333333 700 c 25
 255.555555556 700 277.777777778 700 300 700 c 25
 300 500 300 300 300 100 c 25
 322.222222222 100 344.444444444 100 366.666666667 100 c 25
 366.666666667 33.3333333333 366.666666667 -33.3333333333 366.666666667 -100 c 25
 344.444444444 -100 322.222222222 -100 300 -100 c 25
 300 -66.6666666667 300 -33.3333333333 300 0 c 25
 222.222222222 -0 144.444444444 0 66.6666666667 0 c 25
 66.6666666667 233.333333333 66.6666666667 466.666666667 66.6666666667 700 c 13
EndSplineSet
EndChar

StartChar: uni0427
Encoding: 1063 1063 134
Width: 390
Flags: HW
HStem: 0 21G<450 550> 300 100<250 450> 680 20G<100 200 450 550>
VStem: 100 100<500 700> 150 100<400 500> 450 100<0 300 400 700>
LayerCount: 2
Back
Fore
SplineSet
66.6666666667 700 m 13
 88.8888888889 700 111.111111111 700 133.333333333 700 c 25
 133.333333333 633.333333333 133.333333333 566.666666667 133.333333333 500 c 25
 144.444444444 500 155.555555556 500 166.666666667 500 c 25
 166.666666667 466.666666667 166.666666667 433.333333333 166.666666667 400 c 25
 211.111111111 400 255.555555556 400 300 400 c 25
 300 500 300 600 300 700 c 25
 322.222222222 700 344.444444444 700 366.666666667 700 c 25
 366.666666667 466.666666667 366.666666667 233.333333333 366.666666667 0 c 25
 344.444444444 -0 322.222222222 0 300 0 c 25
 300 100 300 200 300 300 c 25
 244.444444444 300 188.888888889 300 133.333333333 300 c 25
 133.333333333 333.333333333 133.333333333 366.666666667 133.333333333 400 c 25
 122.222222222 400 111.111111111 400 100 400 c 25
 100 433.333333333 100 466.666666667 100 500 c 25
 88.8888888889 500 77.7777777778 500 66.6666666667 500 c 25
 66.6666666667 566.666666667 66.6666666667 633.333333333 66.6666666667 700 c 13
EndSplineSet
EndChar

StartChar: uni0428
Encoding: 1064 1064 135
Width: 390
Flags: HW
HStem: 0 100<150 250 350 450> 680 20G<50 150 250 350 450 550>
VStem: 50 100<100 700> 250 100<100 700> 450 100<100 700>
CounterMasks: 1 38
LayerCount: 2
Back
Fore
SplineSet
33.3333333333 700 m 13
 55.5555555556 700 77.7777777778 700 100 700 c 25
 100 500 100 300 100 100 c 25
 122.222222222 100 144.444444444 100 166.666666667 100 c 25
 166.666666667 300 166.666666667 500 166.666666667 700 c 25
 188.888888889 700 211.111111111 700 233.333333333 700 c 25
 233.333333333 500 233.333333333 300 233.333333333 100 c 25
 255.555555556 100 277.777777778 100 300 100 c 25
 300 300 300 500 300 700 c 25
 322.222222222 700 344.444444444 700 366.666666667 700 c 25
 366.666666667 466.666666667 366.666666667 233.333333333 366.666666667 0 c 25
 255.555555556 -0 144.444444444 0 33.3333333333 0 c 25
 33.3333333333 233.333333333 33.3333333333 466.666666667 33.3333333333 700 c 13
EndSplineSet
EndChar

StartChar: uni0429
Encoding: 1065 1065 136
Width: 390
Flags: HW
HStem: 0 100<150 250 350 450> 680 20G<50 150 250 350 450 550>
VStem: 50 100<100 700> 250 100<100 700> 450 100<100 700> 500 100<-100 0>
LayerCount: 2
Back
Fore
SplineSet
33.3333333333 700 m 13
 55.5555555556 700 77.7777777778 700 100 700 c 25
 100 500 100 300 100 100 c 25
 122.222222222 100 144.444444444 100 166.666666667 100 c 25
 166.666666667 300 166.666666667 500 166.666666667 700 c 25
 188.888888889 700 211.111111111 700 233.333333333 700 c 25
 233.333333333 500 233.333333333 300 233.333333333 100 c 25
 255.555555556 100 277.777777778 100 300 100 c 25
 300 300 300 500 300 700 c 25
 322.222222222 700 344.444444444 700 366.666666667 700 c 25
 366.666666667 500 366.666666667 300 366.666666667 100 c 25
 377.777777778 100 388.888888889 100 400 100 c 25
 400 33.3333333333 400 -33.3333333333 400 -100 c 25
 377.777777778 -100 355.555555556 -100 333.333333333 -100 c 25
 333.333333333 -66.6666666667 333.333333333 -33.3333333333 333.333333333 0 c 25
 233.333333333 -0 133.333333333 0 33.3333333333 0 c 25
 33.3333333333 233.333333333 33.3333333333 466.666666667 33.3333333333 700 c 13
EndSplineSet
EndChar

StartChar: uni042A
Encoding: 1066 1066 137
Width: 390
Flags: HW
HStem: 0 100<250 450> 300 100<250 450> 600 100<50 150>
VStem: 150 100<100 300 400 600> 450 100<100 300>
CounterMasks: 1 e0
LayerCount: 2
Back
Fore
SplineSet
166.666666667 300 m 13
 166.666666667 233.333333333 166.666666667 166.666666667 166.666666667 100 c 25
 211.111111111 100 255.555555556 100 300 100 c 25
 300 166.666666667 300 233.333333333 300 300 c 25
 255.555555556 300 211.111111111 300 166.666666667 300 c 13
33.3333333333 700 m 9
 77.7777777778 700 122.222222222 700 166.666666667 700 c 25
 166.666666667 600 166.666666667 500 166.666666667 400 c 25
 222.222222222 400 277.777777778 400 333.333333333 400 c 25
 333.333333333 366.666666667 333.333333333 333.333333333 333.333333333 300 c 25
 344.444444444 300 355.555555556 300 366.666666667 300 c 25
 366.666666667 233.333333333 366.666666667 166.666666667 366.666666667 100 c 25
 355.555555556 100 344.444444444 100 333.333333333 100 c 25
 333.333333333 66.6666666667 333.333333333 33.3333333333 333.333333333 0 c 25
 255.555555556 -0 177.777777778 0 100 0 c 25
 100 200 100 400 100 600 c 25
 77.7777777778 600 55.5555555556 600 33.3333333333 600 c 25
 33.3333333333 633.333333333 33.3333333333 666.666666667 33.3333333333 700 c 9
EndSplineSet
EndChar

StartChar: uni042B
Encoding: 1067 1067 138
Width: 390
Flags: HW
HStem: 0 100<150 300> 300 100<150 300> 680 20G<50 150 450 550>
VStem: 50 300<0 100 300 400> 50 100<100 300 400 700> 300 100<100 300> 450 100<0 700>
LayerCount: 2
Back
Fore
SplineSet
200 300 m 13
 166.666666667 300 133.333333333 300 100 300 c 25
 100 233.333333333 100 166.666666667 100 100 c 25
 133.333333333 100 166.666666667 100 200 100 c 25
 200 166.666666667 200 233.333333333 200 300 c 13
300 700 m 9
 322.222222222 700 344.444444444 700 366.666666667 700 c 25
 366.666666667 466.666666667 366.666666667 233.333333333 366.666666667 0 c 25
 344.444444444 -0 322.222222222 0 300 0 c 25
 300 233.333333333 300 466.666666667 300 700 c 9
33.3333333333 700 m 9
 55.5555555556 700 77.7777777778 700 100 700 c 25
 100 600 100 500 100 400 c 25
 144.444444444 400 188.888888889 400 233.333333333 400 c 25
 233.333333333 366.666666667 233.333333333 333.333333333 233.333333333 300 c 25
 244.444444444 300 255.555555556 300 266.666666667 300 c 25
 266.666666667 233.333333333 266.666666667 166.666666667 266.666666667 100 c 25
 255.555555556 100 244.444444444 100 233.333333333 100 c 25
 233.333333333 66.6666666667 233.333333333 33.3333333333 233.333333333 0 c 25
 166.666666667 -0 100 0 33.3333333333 0 c 25
 33.3333333333 233.333333333 33.3333333333 466.666666667 33.3333333333 700 c 9
EndSplineSet
EndChar

StartChar: uni042C
Encoding: 1068 1068 139
Width: 390
Flags: HW
HStem: 0 100<250 450> 300 100<250 450> 680 20G<150 249>
VStem: 150 99<100 300 400 700> 450 100<101 300>
LayerCount: 2
Back
Fore
SplineSet
166.666666667 100 m 13
 211.111111111 100 255.555555556 100 300 100 c 25
 300 166.666666667 300 233.333333333 300 300 c 25
 255.555555556 300 211.111111111 300 166.666666667 300 c 25
 166.666666667 233.333333333 166.666666667 166.666666667 166.666666667 100 c 13
100 700 m 9
 122 700 144 700 166 700 c 25
 166 600 166 500 166 400 c 25
 221.777777778 400 277.555555556 400 333.333333333 400 c 25
 333.333333333 366.666666667 333.333333333 333.333333333 333.333333333 300 c 25
 344 300 354.666666667 300 365.333333333 300 c 25
 365.777777778 233.666666667 366.222222222 167.333333333 366.666666667 101 c 25
 355.555555556 100.666666667 344.444444444 100.333333333 333.333333333 100 c 25
 333.333333333 66.6666666667 333.333333333 33.3333333333 333.333333333 0 c 25
 255.555555556 -0 177.777777778 0 100 0 c 25
 100 233.333333333 100 466.666666667 100 700 c 9
EndSplineSet
EndChar

StartChar: uni042D
Encoding: 1069 1069 140
Width: 390
Flags: HW
HStem: 0 100<200 400> 100 100<100 150> 300 100<250 450> 500 100<100 150> 600 100<200 400>
VStem: 100 100<100 200 500 600> 150 300<0 100 600 700> 400 100<100 200 500 600> 450 100<200 300 400 500>
LayerCount: 2
Back
Fore
SplineSet
66.6666666667 500 m 13
 66.6666666667 533.333333333 66.6666666667 566.666666667 66.6666666667 600 c 25
 77.7777777778 600 88.8888888889 600 100 600 c 25
 100 633.333333333 100 666.666666667 100 700 c 25
 166.666666667 700 233.333333333 700 300 700 c 25
 300 666.666666667 300 633.333333333 300 600 c 25
 311.111111111 600 322.222222222 600 333.333333333 600 c 25
 333.333333333 566.666666667 333.333333333 533.333333333 333.333333333 500 c 25
 344.444444444 500 355.555555556 500 366.666666667 500 c 25
 366.666666667 400 366.666666667 300 366.666666667 200 c 25
 355.555555556 200 344.444444444 200 333.333333333 200 c 25
 333.333333333 166.666666667 333.333333333 133.333333333 333.333333333 100 c 25
 322.222222222 100 311.111111111 100 300 100 c 25
 300 66.6666666667 300 33.3333333333 300 0 c 25
 233.333333333 -0 166.666666667 0 100 0 c 25
 100 33.3333333333 100 66.6666666667 100 100 c 25
 88.8888888889 100 77.7777777778 100 66.6666666667 100 c 25
 66.6666666667 133.333333333 66.6666666667 166.666666667 66.6666666667 200 c 25
 88.8888888889 200 111.111111111 200 133.333333333 200 c 25
 133.333333333 166.666666667 133.333333333 133.333333333 133.333333333 100 c 25
 177.777777778 100 222.222222222 100 266.666666667 100 c 25
 266.666666667 133.333333333 266.666666667 166.666666667 266.666666667 200 c 25
 277.777777778 200 288.888888889 200 300 200 c 25
 300 233.333333333 300 266.666666667 300 300 c 25
 255.555555556 300 211.111111111 300 166.666666667 300 c 25
 166.666666667 333.333333333 166.666666667 366.666666667 166.666666667 400 c 25
 211.111111111 400 255.555555556 400 300 400 c 25
 300 433.333333333 300 466.666666667 300 500 c 25
 288.888888889 500 277.777777778 500 266.666666667 500 c 25
 266.666666667 533.333333333 266.666666667 566.666666667 266.666666667 600 c 25
 222.222222222 600 177.777777778 600 133.333333333 600 c 25
 133.333333333 566.666666667 133.333333333 533.333333333 133.333333333 500 c 25
 111.111111111 500 88.8888888889 500 66.6666666667 500 c 13
EndSplineSet
EndChar

StartChar: uni042E
Encoding: 1070 1070 141
Width: 390
Flags: HW
HStem: 0 100<350 450> 300 100<200 250> 600 100<350 450>
VStem: 100 100<0 300 400 700> 250 100<100 300 400 600> 300 200<0 100 600 700> 450 100<100 600>
CounterMasks: 1 e0
LayerCount: 2
Back
Fore
SplineSet
233.333333333 600 m 13
 233.333333333 433.333333333 233.333333333 266.666666667 233.333333333 100 c 25
 255.555555556 100 277.777777778 100 300 100 c 25
 300 266.666666667 300 433.333333333 300 600 c 25
 277.777777778 600 255.555555556 600 233.333333333 600 c 13
66.6666666667 700 m 9
 88.8888888889 700 111.111111111 700 133.333333333 700 c 25
 133.333333333 600 133.333333333 500 133.333333333 400 c 25
 144.444444444 400 155.555555556 400 166.666666667 400 c 25
 166.666666667 466.666666667 166.666666667 533.333333333 166.666666667 600 c 25
 177.777777778 600 188.888888889 600 200 600 c 25
 200 633.333333333 200 666.666666667 200 700 c 25
 244.444444444 700 288.888888889 700 333.333333333 700 c 25
 333.333333333 666.666666667 333.333333333 633.333333333 333.333333333 600 c 25
 344.444444444 600 355.555555556 600 366.666666667 600 c 25
 366.666666667 433.333333333 366.666666667 266.666666667 366.666666667 100 c 25
 355.555555556 100 344.444444444 100 333.333333333 100 c 25
 333.333333333 66.6666666667 333.333333333 33.3333333333 333.333333333 0 c 25
 288.888888889 -0 244.444444444 0 200 0 c 25
 200 33.3333333333 200 66.6666666667 200 100 c 25
 188.888888889 100 177.777777778 100 166.666666667 100 c 25
 166.666666667 166.666666667 166.666666667 233.333333333 166.666666667 300 c 25
 155.555555556 300 144.444444444 300 133.333333333 300 c 25
 133.333333333 200 133.333333333 100 133.333333333 0 c 25
 111.111111111 -0 88.8888888889 0 66.6666666667 0 c 25
 66.6666666667 233.333333333 66.6666666667 466.666666667 66.6666666667 700 c 9
EndSplineSet
EndChar

StartChar: uni042F
Encoding: 1071 1071 142
Width: 390
Flags: HW
HStem: 0 100<100 200> 300 100<200 300> 600 100<200 450>
VStem: 100 100<400 600> 200 150<100 200> 450 100<0 200 400 600>
CounterMasks: 1 e0
LayerCount: 2
Back
Fore
SplineSet
133.333333333 600 m 13
 133.333333333 533.333333333 133.333333333 466.666666667 133.333333333 400 c 25
 188.888888889 400 244.444444444 400 300 400 c 25
 300 466.666666667 300 533.333333333 300 600 c 25
 244.444444444 600 188.888888889 600 133.333333333 600 c 13
100 700 m 9
 188.888888889 700 277.777777778 700 366.666666667 700 c 25
 366.666666667 466.666666667 366.666666667 233.333333333 366.666666667 0 c 25
 344.444444444 -0 322.222222222 0 300 0 c 25
 300 66.6666666667 300 133.333333333 300 200 c 25
 277.777777778 200 255.555555556 200 233.333333333 200 c 25
 233.333333333 166.666666667 233.333333333 133.333333333 233.333333333 100 c 25
 222.222222222 100 211.111111111 100 200 100 c 25
 200 66.6666666667 200 33.3333333333 200 0 c 25
 155.555555556 -0 111.111111111 0 66.6666666667 0 c 25
 66.6666666667 33.3333333333 66.6666666667 66.6666666667 66.6666666667 100 c 25
 88.8888888889 100 111.111111111 100 133.333333333 100 c 25
 133.333333333 133.333333333 133.333333333 166.666666667 133.333333333 200 c 25
 155.555555556 200 177.777777778 200 200 200 c 25
 200 233.333333333 200 266.666666667 200 300 c 25
 166.666666667 300 133.333333333 300 100 300 c 25
 100 333.333333333 100 366.666666667 100 400 c 25
 88.8888888889 400 77.7777777778 400 66.6666666667 400 c 25
 66.6666666667 466.666666667 66.6666666667 533.333333333 66.6666666667 600 c 25
 77.7777777778 600 88.8888888889 600 100 600 c 25
 100 633.333333333 100 666.666666667 100 700 c 9
EndSplineSet
EndChar

StartChar: uni0430
Encoding: 1072 1072 143
Width: 390
Flags: HW
HStem: 0 100<150 400 500 549> 100 100<50 100> 200 100<150 400> 400 100<100 400>
VStem: 50 100<100 200> 400 100<100 200 300 400>
LayerCount: 2
Back
Fore
SplineSet
100 200 m 13
 100 166.666666667 100 133.333333333 100 100 c 25
 155.555555556 100 211.111111111 100 266.666666667 100 c 25
 266.666666667 133.333333333 266.666666667 166.666666667 266.666666667 200 c 25
 211.111111111 200 155.555555556 200 100 200 c 13
66.6666666667 500 m 9
 144.444444444 500 222.222222222 500 300 500 c 25
 300 466.666666667 300 433.333333333 300 400 c 25
 311.111111111 400 322.222222222 400 333.333333333 400 c 25
 333.333333333 300 333.333333333 200 333.333333333 100 c 25
 344.222222222 100 355.111111111 100 366 100 c 25
 366.222222222 66.6666666667 366.444444444 33.3333333333 366.666666667 0 c 25
 266.666666667 -0 166.666666667 0 66.6666666667 0 c 25
 66.6666666667 33.3333333333 66.6666666667 66.6666666667 66.6666666667 100 c 25
 55.5555555556 100 44.4444444444 100 33.3333333333 100 c 25
 33.3333333333 133.333333333 33.3333333333 166.666666667 33.3333333333 200 c 25
 44.4444444444 200 55.5555555556 200 66.6666666667 200 c 25
 66.6666666667 233.333333333 66.6666666667 266.666666667 66.6666666667 300 c 25
 133.333333333 300 200 300 266.666666667 300 c 25
 266.666666667 333.333333333 266.666666667 366.666666667 266.666666667 400 c 25
 200 400 133.333333333 400 66.6666666667 400 c 25
 66.6666666667 433.333333333 66.6666666667 466.666666667 66.6666666667 500 c 9
EndSplineSet
EndChar

StartChar: uni0431
Encoding: 1073 1073 144
Width: 390
Flags: HW
HStem: 0 100<200 450> 300 200<300 450> 300 100<200 300> 600 100<150 200 300 550>
VStem: 100 100<100 300> 200 100<500 600> 300 150<400 500> 450 100<100 300>
LayerCount: 2
Back
Fore
SplineSet
133.333333333 300 m 13
 133.333333333 233.333333333 133.333333333 166.666666667 133.333333333 100 c 25
 188.888888889 100 244.444444444 100 300 100 c 25
 300 166.666666667 300 233.333333333 300 300 c 25
 244.444444444 300 188.888888889 300 133.333333333 300 c 13
100 700 m 9
 188.888888889 700 277.777777778 700 366.666666667 700 c 25
 366.666666667 666.666666667 366.666666667 633.333333333 366.666666667 600 c 25
 311.111111111 600 255.555555556 600 200 600 c 25
 200 566.666666667 200 533.333333333 200 500 c 25
 233.333333333 500 266.666666667 500 300 500 c 25
 300 466.666666667 300 433.333333333 300 400 c 25
 311.111111111 400 322.222222222 400 333.333333333 400 c 25
 333.333333333 366.666666667 333.333333333 333.333333333 333.333333333 300 c 25
 344.444444444 300 355.555555556 300 366.666666667 300 c 25
 366.666666667 233.333333333 366.666666667 166.666666667 366.666666667 100 c 25
 355.555555556 100 344.444444444 100 333.333333333 100 c 25
 333.333333333 66.6666666667 333.333333333 33.3333333333 333.333333333 0 c 25
 255.555555556 -0 177.777777778 0 100 0 c 25
 100 33.3333333333 100 66.6666666667 100 100 c 25
 88.8888888889 100 77.7777777778 100 66.6666666667 100 c 25
 66.6666666667 166.666666667 66.6666666667 233.333333333 66.6666666667 300 c 25
 77.7777777778 300 88.8888888889 300 100 300 c 25
 100 333.333333333 100 366.666666667 100 400 c 25
 133.333333333 400 166.666666667 400 200 400 c 25
 200 433.333333333 200 466.666666667 200 500 c 25
 177.777777778 500 155.555555556 500 133.333333333 500 c 25
 133.333333333 533.333333333 133.333333333 566.666666667 133.333333333 600 c 25
 122.222222222 600 111.111111111 600 100 600 c 25
 100 633.333333333 100 666.666666667 100 700 c 9
EndSplineSet
EndChar

StartChar: uni0432
Encoding: 1074 1074 145
Width: 390
Flags: HW
HStem: 0 100<200 450> 100 100<500 550> 200 100<200 450> 300 100<500 550> 400 100<200 450>
VStem: 100 400<0 100 200 300 400 500> 100 100<100 200 300 400> 450 100<100 200 300 400>
LayerCount: 2
Back
Fore
SplineSet
133.333333333 200 m 13
 133.333333333 166.666666667 133.333333333 133.333333333 133.333333333 100 c 25
 188.888888889 100 244.444444444 100 300 100 c 25
 300 133.333333333 300 166.666666667 300 200 c 25
 244.444444444 200 188.888888889 200 133.333333333 200 c 13
133.333333333 400 m 9
 133.333333333 366.666666667 133.333333333 333.333333333 133.333333333 300 c 25
 188.888888889 300 244.444444444 300 300 300 c 25
 300 333.333333333 300 366.666666667 300 400 c 25
 244.444444444 400 188.888888889 400 133.333333333 400 c 9
66.6666666667 500 m 9
 155.555555556 500 244.444444444 500 333.333333333 500 c 25
 333.333333333 466.666666667 333.333333333 433.333333333 333.333333333 400 c 25
 344.444444444 400 355.555555556 400 366.666666667 400 c 25
 366.666666667 366.666666667 366.666666667 333.333333333 366.666666667 300 c 25
 355.555555556 300 344.444444444 300 333.333333333 300 c 25
 333.333333333 266.666666667 333.333333333 233.333333333 333.333333333 200 c 25
 344.444444444 200 355.555555556 200 366.666666667 200 c 25
 366.666666667 166.666666667 366.666666667 133.333333333 366.666666667 100 c 25
 355.555555556 100 344.444444444 100 333.333333333 100 c 25
 333.333333333 66.6666666667 333.333333333 33.3333333333 333.333333333 0 c 25
 244.444444444 -0 155.555555556 0 66.6666666667 0 c 25
 66.6666666667 166.666666667 66.6666666667 333.333333333 66.6666666667 500 c 9
EndSplineSet
EndChar

StartChar: uni0433
Encoding: 1075 1075 146
Width: 390
Flags: HW
HStem: 0 21G<100 200> 400 100<200 550>
VStem: 100 100<0 400>
LayerCount: 2
Back
Fore
SplineSet
66.6666666667 0 m 13
 66.6666666667 166.666666667 66.6666666667 333.333333333 66.6666666667 500 c 25
 166.666666667 500 266.666666667 500 366.666666667 500 c 25
 366.666666667 467 366.666666667 434 366.666666667 401 c 25
 288.888888889 400.666666667 211.111111111 400.333333333 133.333333333 400 c 25
 133.333333333 266.666666667 133.333333333 133.333333333 133.333333333 0 c 25
 111.111111111 -0 88.8888888889 0 66.6666666667 0 c 13
EndSplineSet
EndChar

StartChar: uni0434
Encoding: 1076 1076 147
Width: 390
Flags: HW
HStem: -100 200<50 149 450 550> -1 101<149 150 250 350> 400 100<250 350>
VStem: 50 100<-100 -1> 150 100<100 400> 350 100<100 400> 450 100<-100 0>
LayerCount: 2
Back
Fore
SplineSet
166.666666667 400 m 13
 166.666666667 300 166.666666667 200 166.666666667 100 c 25
 188.888888889 100 211.111111111 100 233.333333333 100 c 25
 233.333333333 200 233.333333333 300 233.333333333 400 c 25
 211.111111111 400 188.888888889 400 166.666666667 400 c 13
133.333333333 500 m 9
 188.888888889 500 244.444444444 500 300 500 c 25
 300 366.666666667 300 233.333333333 300 100 c 25
 322.222222222 100 344.444444444 100 366.666666667 100 c 25
 366.666666667 33.3333333333 366.666666667 -33.3333333333 366.666666667 -100 c 25
 344.444444444 -100 322.222222222 -100 300 -100 c 25
 300 -66.6666666667 300 -33.3333333333 300 0 c 25
 233.111111111 -0.333333333333 166.222222222 -0.666666666667 99.3333333333 -1 c 25
 99.5555555556 -34 99.7777777778 -67 100 -100 c 25
 77.7777777778 -100 55.5555555556 -100 33.3333333333 -100 c 25
 33.3333333333 -33.3333333333 33.3333333333 33.3333333333 33.3333333333 100 c 25
 55.5555555556 100 77.7777777778 100 100 100 c 25
 100 200 100 300 100 400 c 25
 111.111111111 400 122.222222222 400 133.333333333 400 c 25
 133.333333333 433.333333333 133.333333333 466.666666667 133.333333333 500 c 9
EndSplineSet
EndChar

StartChar: uni0435
Encoding: 1077 1077 148
Width: 390
Flags: HW
HStem: 0 100<200 500> 200 100<200 450> 400 100<200 450>
VStem: 100 100<100 200 300 400> 450 100<300 400>
CounterMasks: 1 e0
LayerCount: 2
Back
Fore
SplineSet
133.333333333 400 m 1
 133.333333333 366.666666667 133.333333333 333.333333333 133.333333333 300 c 1
 188.888888889 300 244.444444444 300 300 300 c 1
 300 333.333333333 300 366.666666667 300 400 c 1
 244.444444444 400 188.888888889 400 133.333333333 400 c 1
100 400 m 1
 100 433.333333333 100 466.666666667 100 500 c 1
 177.555555556 500 255.111111111 500 332.666666667 500 c 1
 332.888888889 466.666666667 333.111111111 433.333333333 333.333333333 400 c 25
 344.444444444 400 355.555555556 400 366.666666667 400 c 25
 366.666666667 333.333333333 366.666666667 266.666666667 366.666666667 200 c 1
 288.888888889 200 211.111111111 200 133.333333333 200 c 1
 133.333333333 166.666666667 133.333333333 133.333333333 133.333333333 100 c 1
 200 100 266.666666667 100 333.333333333 100 c 1
 333.333333333 66.6666666667 333.333333333 33.3333333333 333.333333333 0 c 1
 255.555555556 -0 177.777777778 0 100 0 c 1
 100 33.3333333333 100 66.6666666667 100 100 c 1
 88.8888888889 100 77.7777777778 100 66.6666666667 100 c 1
 66.6666666667 200 66.6666666667 300 66.6666666667 400 c 5
 77.7777777778 400 88.8888888889 400 100 400 c 1
EndSplineSet
EndChar

StartChar: uni0436
Encoding: 1078 1078 149
Width: 390
Flags: HW
HStem: 0 100<50 100 500 550> 200 100<200 250 350 400> 400 100<50 100 500 550>
VStem: 50 100<0 100 400 500> 100 100<100 200 300 400> 250 100<0 200 300 500> 400 100<100 200 300 400> 450 100<0 100 400 500>
CounterMasks: 1 e0
LayerCount: 2
Back
Fore
SplineSet
33.3333333333 500 m 13
 55.5555555556 500 77.7777777778 500 100 500 c 25
 100 466.666666667 100 433.333333333 100 400 c 25
 111.111111111 400 122.222222222 400 133.333333333 400 c 25
 133.333333333 366.666666667 133.333333333 333.333333333 133.333333333 300 c 25
 144.444444444 300 155.555555556 300 166.666666667 300 c 25
 166.666666667 366.666666667 166.666666667 433.333333333 166.666666667 500 c 25
 188.888888889 500 211.111111111 500 233.333333333 500 c 25
 233.333333333 433.333333333 233.333333333 366.666666667 233.333333333 300 c 25
 244.444444444 300 255.555555556 300 266.666666667 300 c 25
 266.666666667 333.333333333 266.666666667 366.666666667 266.666666667 400 c 25
 277.777777778 400 288.888888889 400 300 400 c 25
 300 433.333333333 300 466.666666667 300 500 c 25
 322.222222222 500 344.444444444 500 366.666666667 500 c 25
 366.666666667 466.666666667 366.666666667 433.333333333 366.666666667 400 c 25
 355.555555556 400 344.444444444 400 333.333333333 400 c 25
 333.333333333 366.666666667 333.333333333 333.333333333 333.333333333 300 c 25
 322.222222222 300 311.111111111 300 300 300 c 25
 300 266.666666667 300 233.333333333 300 200 c 25
 311.111111111 200 322.222222222 200 333.333333333 200 c 25
 333.333333333 166.666666667 333.333333333 133.333333333 333.333333333 100 c 25
 344.444444444 100 355.555555556 100 366.666666667 100 c 25
 366.666666667 66.6666666667 366.666666667 33.3333333333 366.666666667 0 c 25
 344.444444444 -0 322.222222222 0 300 0 c 25
 300 33.3333333333 300 66.6666666667 300 100 c 25
 288.888888889 100 277.777777778 100 266.666666667 100 c 25
 266.666666667 133.333333333 266.666666667 166.666666667 266.666666667 200 c 25
 255.555555556 200 244.444444444 200 233.333333333 200 c 25
 233.333333333 133.333333333 233.333333333 66.6666666667 233.333333333 0 c 25
 211.111111111 -0 188.888888889 0 166.666666667 0 c 25
 166.666666667 66.6666666667 166.666666667 133.333333333 166.666666667 200 c 25
 155.555555556 200 144.444444444 200 133.333333333 200 c 25
 133.333333333 166.666666667 133.333333333 133.333333333 133.333333333 100 c 25
 122.222222222 100 111.111111111 100 100 100 c 25
 100 66.6666666667 100 33.3333333333 100 0 c 25
 77.7777777778 -0 55.5555555556 0 33.3333333333 0 c 25
 33.3333333333 33.3333333333 33.3333333333 66.6666666667 33.3333333333 100 c 25
 44.4444444444 100 55.5555555556 100 66.6666666667 100 c 25
 66.6666666667 133.333333333 66.6666666667 166.666666667 66.6666666667 200 c 25
 77.7777777778 200 88.8888888889 200 100 200 c 25
 100 233.333333333 100 266.666666667 100 300 c 25
 88.8888888889 300 77.7777777778 300 66.6666666667 300 c 25
 66.6666666667 333.333333333 66.6666666667 366.666666667 66.6666666667 400 c 25
 55.5555555556 400 44.4444444444 400 33.3333333333 400 c 25
 33.3333333333 433.333333333 33.3333333333 466.666666667 33.3333333333 500 c 13
EndSplineSet
EndChar

StartChar: uni0437
Encoding: 1079 1079 150
Width: 390
Flags: HW
HStem: 0 100<200 450> 100 100<100 150 500 550> 300 100<100 150 500 550> 400 100<200 450>
VStem: 100 100<100 200 300 400> 450 100<100 200 300 400>
LayerCount: 2
Back
Fore
SplineSet
66.6666666667 400 m 13
 77.7777777778 400 88.8888888889 400 100 400 c 1
 100 433.333333333 100 466.666666667 100 500 c 25
 177.777777778 500 255.555555556 500 333.333333333 500 c 25
 333.333333333 466.666666667 333.333333333 433.333333333 333.333333333 400 c 25
 344.444444444 400 355.555555556 400 366.666666667 400 c 25
 366.666666667 366.666666667 366.666666667 333.333333333 366.666666667 300 c 25
 355.555555556 300 344.444444444 300 333.333333333 300 c 25
 333.333333333 266.666666667 333.333333333 233.333333333 333.333333333 200 c 25
 344.444444444 200 355.555555556 200 366.666666667 200 c 25
 366.666666667 166.666666667 366.666666667 133.333333333 366.666666667 100 c 25
 355.555555556 100 344.444444444 100 333.333333333 100 c 25
 333.333333333 66.6666666667 333.333333333 33.3333333333 333.333333333 0 c 25
 255.555555556 -0 177.777777778 0 100 0 c 25
 100 33.3333333333 100 66.6666666667 100 100 c 25
 88.8888888889 100 77.7777777778 100 66.6666666667 100 c 25
 66.6666666667 133.333333333 66.6666666667 166.666666667 66.6666666667 200 c 25
 88.8888888889 200 111.111111111 200 133.333333333 200 c 25
 133.333333333 166.666666667 133.333333333 133.333333333 133.333333333 100 c 25
 188.888888889 100 244.444444444 100 300 100 c 25
 300 133.333333333 300 166.666666667 300 200 c 25
 266.666666667 200 233.333333333 200 200 200 c 25
 200 233.333333333 200 266.666666667 200 300 c 25
 233.333333333 300 266.666666667 300 300 300 c 25
 300 333.333333333 300 366.666666667 300 400 c 25
 244.444444444 400 188.888888889 400 133.333333333 400 c 25
 133.333333333 366.666666667 133.333333333 333.333333333 133.333333333 300 c 25
 111.111111111 300 88.8888888889 300 66.6666666667 300 c 1
 66.6666666667 333.333333333 66.6666666667 366.666666667 66.6666666667 400 c 13
EndSplineSet
EndChar

